{
.appVersion = "1075";
copyright = "Copyright © 2018 by Cadson Demak Co.,Ltd.. All rights reserved.";
customParameters = (
{
name = vendorID;
value = CDK;
},
{
name = description;
value = "Copyright (c) 2018, Cadson Demak (info@cadsondemak.com)";
},
{
name = license;

glyphs = (
{
glyphname = A;
layers = (
{
anchors = (
{
name = bottom;
position = "{252, 0}";
},
{
name = ogonek;
position = "{487, 10}";
},
{
name = top;
position = "{363, 700}";
}
);
layerId = "A732778C-A9DB-4576-83EA-D63CA8B0AAB2";
paths = (
{
closed = 1;
nodes = (
"-5 -4 OFFCURVE",
"1 -6 OFFCURVE",
"7 -6 CURVE SMOOTH",
"19 -6 OFFCURVE",
"29 2 OFFCURVE",
"40 23 CURVE SMOOTH",
"144 227 LINE",
"439 227 LINE",
"484 -6 LINE",
"509 -6 OFFCURVE",
"520 7 OFFCURVE",
"515 31 CURVE SMOOTH",
"386 703 LINE",
"382 705 OFFCURVE",
"377 706 OFFCURVE",
"372 706 CURVE SMOOTH",
"356 706 OFFCURVE",
"343 696 OFFCURVE",
"331 671 CURVE SMOOTH",
"-10 0 LINE"
);
},
{
closed = 1;
nodes = (
"358 649 LINE",
"433 259 LINE",
"160 259 LINE"
);
}
);
width = 583;
}
);
leftKerningGroup = A;
note = A;
rightKerningGroup = A;
unicode = 0041;
},
{
glyphname = Aacute;
layers = (
{
anchors = (
{
name = bottom;
position = "{252, 0}";
},
{
name = ogonek;
position = "{487, 10}";
},
{
name = top;
position = "{444, 890}";
}
);
layerId = "A732778C-A9DB-4576-83EA-D63CA8B0AAB2";
paths = (
{
closed = 1;
nodes = (
"-5 -4 OFFCURVE",
"1 -6 OFFCURVE",
"7 -6 CURVE SMOOTH",
"19 -6 OFFCURVE",
"29 2 OFFCURVE",
"40 23 CURVE SMOOTH",
"144 227 LINE",
"439 227 LINE",
"484 -6 LINE",
"509 -6 OFFCURVE",
"520 7 OFFCURVE",
"515 31 CURVE SMOOTH",
"386 703 LINE",
"382 705 OFFCURVE",
"377 706 OFFCURVE",
"372 706 CURVE SMOOTH",
"356 706 OFFCURVE",
"343 696 OFFCURVE",
"331 671 CURVE SMOOTH",
"-10 0 LINE"
);
},
{
closed = 1;
nodes = (
"358 649 LINE",
"433 259 LINE",
"160 259 LINE"
);
},
{
closed = 1;
nodes = (
"351 752 LINE",
"466 890 LINE",
"422 890 LINE",
"335 752 LINE"
);
}
);
width = 583;
}
);
leftKerningGroup = A;
note = Aacute;
rightKerningGroup = A;
unicode = 00C1;
},
{
glyphname = Abreve;
layers = (
{
anchors = (
{
name = bottom;
position = "{252, 0}";
},
{
name = ogonek;
position = "{487, 10}";
},
{
name = top;
position = "{390, 870}";
}
);
layerId = "A732778C-A9DB-4576-83EA-D63CA8B0AAB2";
paths = (
{
closed = 1;
nodes = (
"-5 -4 OFFCURVE",
"1 -6 OFFCURVE",
"7 -6 CURVE SMOOTH",
"19 -6 OFFCURVE",
"29 2 OFFCURVE",
"40 23 CURVE SMOOTH",
"144 227 LINE",
"439 227 LINE",
"484 -6 LINE",
"509 -6 OFFCURVE",
"520 7 OFFCURVE",
"515 31 CURVE SMOOTH",
"386 703 LINE",
"382 705 OFFCURVE",
"377 706 OFFCURVE",
"372 706 CURVE SMOOTH",
"356 706 OFFCURVE",
"343 696 OFFCURVE",
"331 671 CURVE SMOOTH",
"-10 0 LINE"
);
},
{
closed = 1;
nodes = (
"358 649 LINE",
"433 259 LINE",
"160 259 LINE"
);
},
{
closed = 1;
nodes = (
"251 794 OFFCURVE",
"301 746 OFFCURVE",
"377 746 CURVE SMOOTH",
"453 746 OFFCURVE",
"505 794 OFFCURVE",
"520 870 CURVE",
"496 870 LINE",
"482 817 OFFCURVE",
"436 784 OFFCURVE",
"376 784 CURVE SMOOTH",
"316 784 OFFCURVE",
"280 817 OFFCURVE",
"284 870 CURVE",
"260 870 LINE"
);
}
);
width = 583;
}
);
leftKerningGroup = A;
note = Abreve;
rightKerningGroup = A;
unicode = 0102;
},
{
glyphname = Abreveacute;
layers = (
{
anchors = (
{
name = bottom;
position = "{252, 0}";
},
{
name = ogonek;
position = "{487, 10}";
},
{
name = top;
position = "{414, 1021}";
}
);
layerId = "A732778C-A9DB-4576-83EA-D63CA8B0AAB2";
paths = (
{
closed = 1;
nodes = (
"-5 -4 OFFCURVE",
"1 -6 OFFCURVE",
"7 -6 CURVE SMOOTH",
"19 -6 OFFCURVE",
"29 2 OFFCURVE",
"40 23 CURVE SMOOTH",
"144 227 LINE",
"439 227 LINE",
"484 -6 LINE",
"509 -6 OFFCURVE",
"520 7 OFFCURVE",
"515 31 CURVE SMOOTH",
"386 703 LINE",
"382 705 OFFCURVE",
"377 706 OFFCURVE",
"372 706 CURVE SMOOTH",
"356 706 OFFCURVE",
"343 696 OFFCURVE",
"331 671 CURVE SMOOTH",
"-10 0 LINE"
);
},
{
closed = 1;
nodes = (
"358 649 LINE",
"433 259 LINE",
"160 259 LINE"
);
},
{
closed = 1;
nodes = (
"251 794 OFFCURVE",
"301 746 OFFCURVE",
"377 746 CURVE SMOOTH",
"453 746 OFFCURVE",
"505 794 OFFCURVE",
"520 870 CURVE",
"496 870 LINE",
"482 817 OFFCURVE",
"436 784 OFFCURVE",
"376 784 CURVE SMOOTH",
"316 784 OFFCURVE",
"280 817 OFFCURVE",
"284 870 CURVE",
"260 870 LINE"
);
},
{
closed = 1;
nodes = (
"391 912 LINE",
"506 1022 LINE",
"462 1022 LINE",
"375 912 LINE"
);
}
);
width = 583;
}
);
leftKerningGroup = A;
note = Abreveacute;
rightKerningGroup = A;
unicode = 1EAE;
},
{
glyphname = Abrevedotbelow;
layers = (
{
anchors = (
{
name = bottom;
position = "{230, -140}";
},
{
name = ogonek;
position = "{487, 10}";
},
{
name = top;
position = "{390, 870}";
}
);
layerId = "A732778C-A9DB-4576-83EA-D63CA8B0AAB2";
paths = (
{
closed = 1;
nodes = (
"-5 -4 OFFCURVE",
"1 -6 OFFCURVE",
"7 -6 CURVE SMOOTH",
"19 -6 OFFCURVE",
"29 2 OFFCURVE",
"40 23 CURVE SMOOTH",
"144 227 LINE",
"439 227 LINE",
"484 -6 LINE",
"509 -6 OFFCURVE",
"520 7 OFFCURVE",
"515 31 CURVE SMOOTH",
"386 703 LINE",
"382 705 OFFCURVE",
"377 706 OFFCURVE",
"372 706 CURVE SMOOTH",
"356 706 OFFCURVE",
"343 696 OFFCURVE",
"331 671 CURVE SMOOTH",
"-10 0 LINE"
);
},
{
closed = 1;
nodes = (
"358 649 LINE",
"433 259 LINE",
"160 259 LINE"
);
},
{
closed = 1;
nodes = (
"196 -125 OFFCURVE",
"210 -138 OFFCURVE",
"230 -138 CURVE SMOOTH",
"257 -138 OFFCURVE",
"276 -119 OFFCURVE",
"276 -92 CURVE SMOOTH",
"276 -73 OFFCURVE",
"263 -60 OFFCURVE",
"242 -60 CURVE SMOOTH",
"215 -60 OFFCURVE",
"196 -79 OFFCURVE",
"196 -105 CURVE SMOOTH"
);
},
{
closed = 1;
nodes = (
"251 794 OFFCURVE",
"301 746 OFFCURVE",
"377 746 CURVE SMOOTH",
"453 746 OFFCURVE",
"505 794 OFFCURVE",
"520 870 CURVE",
"496 870 LINE",
"482 817 OFFCURVE",
"436 784 OFFCURVE",
"376 784 CURVE SMOOTH",
"316 784 OFFCURVE",
"280 817 OFFCURVE",
"284 870 CURVE",
"260 870 LINE"
);
}
);
width = 583;
}
);
leftKerningGroup = A;
note = Abrevedotbelow;
rightKerningGroup = A;
unicode = 1EB6;
},
{
glyphname = Abrevegrave;
layers = (
{
anchors = (
{
name = bottom;
position = "{252, 0}";
},
{
name = ogonek;
position = "{487, 10}";
},
{
name = top;
position = "{414, 1024}";
}
);
layerId = "A732778C-A9DB-4576-83EA-D63CA8B0AAB2";
paths = (
{
closed = 1;
nodes = (
"-5 -4 OFFCURVE",
"1 -6 OFFCURVE",
"7 -6 CURVE SMOOTH",
"19 -6 OFFCURVE",
"29 2 OFFCURVE",
"40 23 CURVE SMOOTH",
"144 227 LINE",
"439 227 LINE",
"484 -6 LINE",
"509 -6 OFFCURVE",
"520 7 OFFCURVE",
"515 31 CURVE SMOOTH",
"386 703 LINE",
"382 705 OFFCURVE",
"377 706 OFFCURVE",
"372 706 CURVE SMOOTH",
"356 706 OFFCURVE",
"343 696 OFFCURVE",
"331 671 CURVE SMOOTH",
"-10 0 LINE"
);
},
{
closed = 1;
nodes = (
"358 649 LINE",
"433 259 LINE",
"160 259 LINE"
);
},
{
closed = 1;
nodes = (
"251 794 OFFCURVE",
"301 746 OFFCURVE",
"377 746 CURVE SMOOTH",
"453 746 OFFCURVE",
"505 794 OFFCURVE",
"520 870 CURVE",
"496 870 LINE",
"482 817 OFFCURVE",
"436 784 OFFCURVE",
"376 784 CURVE SMOOTH",
"316 784 OFFCURVE",
"280 817 OFFCURVE",
"284 870 CURVE",
"260 870 LINE"
);
},
{
closed = 1;
nodes = (
"388 912 LINE",
"404 912 LINE",
"361 1022 LINE",
"317 1022 LINE"
);
}
);
width = 583;
}
);
leftKerningGroup = A;
note = Abrevegrave;
rightKerningGroup = A;
unicode = 1EB0;
},
{
glyphname = Abrevehookabove;
layers = (
{
anchors = (
{
name = bottom;
position = "{252, 0}";
},
{
name = ogonek;
position = "{487, 10}";
},
{
name = top;
position = "{417, 1044}";
}
);
layerId = "A732778C-A9DB-4576-83EA-D63CA8B0AAB2";
paths = (
{
closed = 1;
nodes = (
"-5 -4 OFFCURVE",
"1 -6 OFFCURVE",
"7 -6 CURVE SMOOTH",
"19 -6 OFFCURVE",
"29 2 OFFCURVE",
"40 23 CURVE SMOOTH",
"144 227 LINE",
"439 227 LINE",
"484 -6 LINE",
"509 -6 OFFCURVE",
"520 7 OFFCURVE",
"515 31 CURVE SMOOTH",
"386 703 LINE",
"382 705 OFFCURVE",
"377 706 OFFCURVE",
"372 706 CURVE SMOOTH",
"356 706 OFFCURVE",
"343 696 OFFCURVE",
"331 671 CURVE SMOOTH",
"-10 0 LINE"
);
},
{
closed = 1;
nodes = (
"358 649 LINE",
"433 259 LINE",
"160 259 LINE"
);
},
{
closed = 1;
nodes = (
"251 794 OFFCURVE",
"301 746 OFFCURVE",
"377 746 CURVE SMOOTH",
"453 746 OFFCURVE",
"505 794 OFFCURVE",
"520 870 CURVE",
"496 870 LINE",
"482 817 OFFCURVE",
"436 784 OFFCURVE",
"376 784 CURVE SMOOTH",
"316 784 OFFCURVE",
"280 817 OFFCURVE",
"284 870 CURVE",
"260 870 LINE"
);
},
{
closed = 1;
nodes = (
"395 994 OFFCURVE",
"408 998 OFFCURVE",
"423 998 CURVE SMOOTH",
"451 998 OFFCURVE",
"462 986 OFFCURVE",
"462 973 CURVE SMOOTH",
"462 953 OFFCURVE",
"435 917 OFFCURVE",
"385 890 CURVE",
"410 890 LINE",
"479 919 OFFCURVE",
"504 953 OFFCURVE",
"504 981 CURVE SMOOTH",
"504 1007 OFFCURVE",
"477 1022 OFFCURVE",
"441 1022 CURVE SMOOTH",
"422 1022 OFFCURVE",
"402 1018 OFFCURVE",
"384 1012 CURVE",
"380 990 LINE"
);
}
);
width = 583;
}
);
leftKerningGroup = A;
note = Abrevehookabove;
rightKerningGroup = A;
unicode = 1EB2;
},
{
glyphname = Abrevetilde;
layers = (
{
anchors = (
{
name = bottom;
position = "{252, 0}";
},
{
name = ogonek;
position = "{487, 10}";
},
{
name = top;
position = "{410, 999}";
}
);
layerId = "A732778C-A9DB-4576-83EA-D63CA8B0AAB2";
paths = (
{
closed = 1;
nodes = (
"-5 -4 OFFCURVE",
"1 -6 OFFCURVE",
"7 -6 CURVE SMOOTH",
"19 -6 OFFCURVE",
"29 2 OFFCURVE",
"40 23 CURVE SMOOTH",
"144 227 LINE",
"439 227 LINE",
"484 -6 LINE",
"509 -6 OFFCURVE",
"520 7 OFFCURVE",
"515 31 CURVE SMOOTH",
"386 703 LINE",
"382 705 OFFCURVE",
"377 706 OFFCURVE",
"372 706 CURVE SMOOTH",
"356 706 OFFCURVE",
"343 696 OFFCURVE",
"331 671 CURVE SMOOTH",
"-10 0 LINE"
);
},
{
closed = 1;
nodes = (
"358 649 LINE",
"433 259 LINE",
"160 259 LINE"
);
},
{
closed = 1;
nodes = (
"251 794 OFFCURVE",
"301 746 OFFCURVE",
"377 746 CURVE SMOOTH",
"453 746 OFFCURVE",
"505 794 OFFCURVE",
"520 870 CURVE",
"496 870 LINE",
"482 817 OFFCURVE",
"436 784 OFFCURVE",
"376 784 CURVE SMOOTH",
"316 784 OFFCURVE",
"280 817 OFFCURVE",
"284 870 CURVE",
"260 870 LINE"
);
},
{
closed = 1;
nodes = (
"302 912 LINE",
"312 948 OFFCURVE",
"331 969 OFFCURVE",
"352 969 CURVE SMOOTH",
"386 969 OFFCURVE",
"399 912 OFFCURVE",
"449 912 CURVE SMOOTH",
"486 912 OFFCURVE",
"517 944 OFFCURVE",
"528 996 CURVE",
"506 996 LINE",
"495 960 OFFCURVE",
"474 939 OFFCURVE",
"453 939 CURVE SMOOTH",
"419 939 OFFCURVE",
"406 996 OFFCURVE",
"357 996 CURVE SMOOTH",
"320 996 OFFCURVE",
"291 964 OFFCURVE",
"279 912 CURVE"
);
}
);
width = 583;
}
);
leftKerningGroup = A;
note = Abrevetilde;
rightKerningGroup = A;
unicode = 1EB4;
},
{
glyphname = Acaron;
layers = (
{
anchors = (
{
name = bottom;
position = "{252, 0}";
},
{
name = ogonek;
position = "{487, 10}";
},
{
name = top;
position = "{393, 890}";
}
);
layerId = "A732778C-A9DB-4576-83EA-D63CA8B0AAB2";
paths = (
{
closed = 1;
nodes = (
"-5 -4 OFFCURVE",
"1 -6 OFFCURVE",
"7 -6 CURVE SMOOTH",
"19 -6 OFFCURVE",
"29 2 OFFCURVE",
"40 23 CURVE SMOOTH",
"144 227 LINE",
"439 227 LINE",
"484 -6 LINE",
"509 -6 OFFCURVE",
"520 7 OFFCURVE",
"515 31 CURVE SMOOTH",
"386 703 LINE",
"382 705 OFFCURVE",
"377 706 OFFCURVE",
"372 706 CURVE SMOOTH",
"356 706 OFFCURVE",
"343 696 OFFCURVE",
"331 671 CURVE SMOOTH",
"-10 0 LINE"
);
},
{
closed = 1;
nodes = (
"358 649 LINE",
"433 259 LINE",
"160 259 LINE"
);
},
{
closed = 1;
nodes = (
"347 752 LINE",
"395 752 LINE",
"523 890 LINE",
"507 890 LINE",
"375 792 LINE",
"279 890 LINE",
"263 890 LINE"
);
}
);
width = 583;
}
);
leftKerningGroup = A;
note = Acaron;
rightKerningGroup = A;
unicode = 01CD;
},
{
glyphname = Acircumflex;
layers = (
{
anchors = (
{
name = bottom;
position = "{252, 0}";
},
{
name = ogonek;
position = "{487, 10}";
},
{
name = top;
position = "{393, 890}";
}
);
layerId = "A732778C-A9DB-4576-83EA-D63CA8B0AAB2";
paths = (
{
closed = 1;
nodes = (
"-5 -4 OFFCURVE",
"1 -6 OFFCURVE",
"7 -6 CURVE SMOOTH",
"19 -6 OFFCURVE",
"29 2 OFFCURVE",
"40 23 CURVE SMOOTH",
"144 227 LINE",
"439 227 LINE",
"484 -6 LINE",
"509 -6 OFFCURVE",
"520 7 OFFCURVE",
"515 31 CURVE SMOOTH",
"386 703 LINE",
"382 705 OFFCURVE",
"377 706 OFFCURVE",
"372 706 CURVE SMOOTH",
"356 706 OFFCURVE",
"343 696 OFFCURVE",
"331 671 CURVE SMOOTH",
"-10 0 LINE"
);
},
{
closed = 1;
nodes = (
"358 649 LINE",
"433 259 LINE",
"160 259 LINE"
);
},
{
closed = 1;
nodes = (
"257 752 LINE",
"389 850 LINE",
"485 752 LINE",
"501 752 LINE",
"417 890 LINE",
"369 890 LINE",
"241 752 LINE"
);
}
);
width = 583;
}
);
leftKerningGroup = A;
note = Acircumflex;
rightKerningGroup = A;
unicode = 00C2;
},
{
glyphname = Acircumflexacute;
layers = (
{
anchors = (
{
name = bottom;
position = "{252, 0}";
},
{
name = ogonek;
position = "{487, 10}";
},
{
name = top;
position = "{403, 954}";
}
);
layerId = "A732778C-A9DB-4576-83EA-D63CA8B0AAB2";
paths = (
{
closed = 1;
nodes = (
"-5 -4 OFFCURVE",
"1 -6 OFFCURVE",
"7 -6 CURVE SMOOTH",
"19 -6 OFFCURVE",
"29 2 OFFCURVE",
"40 23 CURVE SMOOTH",
"144 227 LINE",
"439 227 LINE",
"484 -6 LINE",
"509 -6 OFFCURVE",
"520 7 OFFCURVE",
"515 31 CURVE SMOOTH",
"386 703 LINE",
"382 705 OFFCURVE",
"377 706 OFFCURVE",
"372 706 CURVE SMOOTH",
"356 706 OFFCURVE",
"343 696 OFFCURVE",
"331 671 CURVE SMOOTH",
"-10 0 LINE"
);
},
{
closed = 1;
nodes = (
"358 649 LINE",
"433 259 LINE",
"160 259 LINE"
);
},
{
closed = 1;
nodes = (
"257 752 LINE",
"389 850 LINE",
"485 752 LINE",
"501 752 LINE",
"417 890 LINE",
"369 890 LINE",
"241 752 LINE"
);
},
{
closed = 1;
nodes = (
"486 839 LINE",
"601 949 LINE",
"557 949 LINE",
"470 839 LINE"
);
}
);
width = 583;
}
);
leftKerningGroup = A;
note = Acircumflexacute;
rightKerningGroup = A;
unicode = 1EA4;
},
{
glyphname = Acircumflexdotbelow;
layers = (
{
anchors = (
{
name = bottom;
position = "{230, -140}";
},
{
name = ogonek;
position = "{487, 10}";
},
{
name = top;
position = "{393, 890}";
}
);
layerId = "A732778C-A9DB-4576-83EA-D63CA8B0AAB2";
paths = (
{
closed = 1;
nodes = (
"-5 -4 OFFCURVE",
"1 -6 OFFCURVE",
"7 -6 CURVE SMOOTH",
"19 -6 OFFCURVE",
"29 2 OFFCURVE",
"40 23 CURVE SMOOTH",
"144 227 LINE",
"439 227 LINE",
"484 -6 LINE",
"509 -6 OFFCURVE",
"520 7 OFFCURVE",
"515 31 CURVE SMOOTH",
"386 703 LINE",
"382 705 OFFCURVE",
"377 706 OFFCURVE",
"372 706 CURVE SMOOTH",
"356 706 OFFCURVE",
"343 696 OFFCURVE",
"331 671 CURVE SMOOTH",
"-10 0 LINE"
);
},
{
closed = 1;
nodes = (
"358 649 LINE",
"433 259 LINE",
"160 259 LINE"
);
},
{
closed = 1;
nodes = (
"196 -125 OFFCURVE",
"210 -138 OFFCURVE",
"230 -138 CURVE SMOOTH",
"257 -138 OFFCURVE",
"276 -119 OFFCURVE",
"276 -92 CURVE SMOOTH",
"276 -73 OFFCURVE",
"263 -60 OFFCURVE",
"242 -60 CURVE SMOOTH",
"215 -60 OFFCURVE",
"196 -79 OFFCURVE",
"196 -105 CURVE SMOOTH"
);
},
{
closed = 1;
nodes = (
"257 752 LINE",
"389 850 LINE",
"485 752 LINE",
"501 752 LINE",
"417 890 LINE",
"369 890 LINE",
"241 752 LINE"
);
}
);
width = 583;
}
);
leftKerningGroup = A;
note = Acircumflexdotbelow;
rightKerningGroup = A;
unicode = 1EAC;
},
{
glyphname = Acircumflexgrave;
layers = (
{
anchors = (
{
name = bottom;
position = "{252, 0}";
},
{
name = ogonek;
position = "{487, 10}";
},
{
name = top;
position = "{403, 954}";
}
);
layerId = "A732778C-A9DB-4576-83EA-D63CA8B0AAB2";
paths = (
{
closed = 1;
nodes = (
"-5 -4 OFFCURVE",
"1 -6 OFFCURVE",
"7 -6 CURVE SMOOTH",
"19 -6 OFFCURVE",
"29 2 OFFCURVE",
"40 23 CURVE SMOOTH",
"144 227 LINE",
"439 227 LINE",
"484 -6 LINE",
"509 -6 OFFCURVE",
"520 7 OFFCURVE",
"515 31 CURVE SMOOTH",
"386 703 LINE",
"382 705 OFFCURVE",
"377 706 OFFCURVE",
"372 706 CURVE SMOOTH",
"356 706 OFFCURVE",
"343 696 OFFCURVE",
"331 671 CURVE SMOOTH",
"-10 0 LINE"
);
},
{
closed = 1;
nodes = (
"358 649 LINE",
"433 259 LINE",
"160 259 LINE"
);
},
{
closed = 1;
nodes = (
"257 752 LINE",
"389 850 LINE",
"485 752 LINE",
"501 752 LINE",
"417 890 LINE",
"369 890 LINE",
"241 752 LINE"
);
},
{
closed = 1;
nodes = (
"500 839 LINE",
"516 839 LINE",
"473 949 LINE",
"429 949 LINE"
);
}
);
width = 583;
}
);
leftKerningGroup = A;
note = Acircumflexgrave;
rightKerningGroup = A;
unicode = 1EA6;
},
{
glyphname = Acircumflexhookabove;
layers = (
{
anchors = (
{
name = bottom;
position = "{252, 0}";
},
{
name = ogonek;
position = "{487, 10}";
},
{
name = top;
position = "{405, 966}";
}
);
layerId = "A732778C-A9DB-4576-83EA-D63CA8B0AAB2";
paths = (
{
closed = 1;
nodes = (
"-5 -4 OFFCURVE",
"1 -6 OFFCURVE",
"7 -6 CURVE SMOOTH",
"19 -6 OFFCURVE",
"29 2 OFFCURVE",
"40 23 CURVE SMOOTH",
"144 227 LINE",
"439 227 LINE",
"484 -6 LINE",
"509 -6 OFFCURVE",
"520 7 OFFCURVE",
"515 31 CURVE SMOOTH",
"386 703 LINE",
"382 705 OFFCURVE",
"377 706 OFFCURVE",
"372 706 CURVE SMOOTH",
"356 706 OFFCURVE",
"343 696 OFFCURVE",
"331 671 CURVE SMOOTH",
"-10 0 LINE"
);
},
{
closed = 1;
nodes = (
"358 649 LINE",
"433 259 LINE",
"160 259 LINE"
);
},
{
closed = 1;
nodes = (
"257 752 LINE",
"389 850 LINE",
"485 752 LINE",
"501 752 LINE",
"417 890 LINE",
"369 890 LINE",
"241 752 LINE"
);
},
{
closed = 1;
nodes = (
"480 944 OFFCURVE",
"491 948 OFFCURVE",
"503 948 CURVE SMOOTH",
"525 948 OFFCURVE",
"534 936 OFFCURVE",
"534 923 CURVE SMOOTH",
"534 903 OFFCURVE",
"512 867 OFFCURVE",
"472 840 CURVE",
"492 840 LINE",
"547 869 OFFCURVE",
"567 903 OFFCURVE",
"567 931 CURVE SMOOTH",
"567 957 OFFCURVE",
"546 972 OFFCURVE",
"517 972 CURVE SMOOTH",
"502 972 OFFCURVE",
"486 968 OFFCURVE",
"471 962 CURVE",
"468 940 LINE"
);
}
);
width = 583;
}
);
leftKerningGroup = A;
note = Acircumflexhookabove;
rightKerningGroup = A;
unicode = 1EA8;
},
{
glyphname = Acircumflextilde;
layers = (
{
anchors = (
{
name = bottom;
position = "{252, 0}";
},
{
name = ogonek;
position = "{487, 10}";
},
{
name = top;
position = "{412, 1013}";
}
);
layerId = "A732778C-A9DB-4576-83EA-D63CA8B0AAB2";
paths = (
{
closed = 1;
nodes = (
"-5 -4 OFFCURVE",
"1 -6 OFFCURVE",
"7 -6 CURVE SMOOTH",
"19 -6 OFFCURVE",
"29 2 OFFCURVE",
"40 23 CURVE SMOOTH",
"144 227 LINE",
"439 227 LINE",
"484 -6 LINE",
"509 -6 OFFCURVE",
"520 7 OFFCURVE",
"515 31 CURVE SMOOTH",
"386 703 LINE",
"382 705 OFFCURVE",
"377 706 OFFCURVE",
"372 706 CURVE SMOOTH",
"356 706 OFFCURVE",
"343 696 OFFCURVE",
"331 671 CURVE SMOOTH",
"-10 0 LINE"
);
},
{
closed = 1;
nodes = (
"358 649 LINE",
"433 259 LINE",
"160 259 LINE"
);
},
{
closed = 1;
nodes = (
"257 752 LINE",
"389 850 LINE",
"485 752 LINE",
"501 752 LINE",
"417 890 LINE",
"369 890 LINE",
"241 752 LINE"
);
},
{
closed = 1;
nodes = (
"305 926 LINE",
"315 959 OFFCURVE",
"334 977 OFFCURVE",
"355 977 CURVE SMOOTH",
"389 977 OFFCURVE",
"402 926 OFFCURVE",
"452 926 CURVE SMOOTH",
"489 926 OFFCURVE",
"520 955 OFFCURVE",
"531 1001 CURVE",
"509 1001 LINE",
"498 968 OFFCURVE",
"477 950 OFFCURVE",
"456 950 CURVE SMOOTH",
"422 950 OFFCURVE",
"409 1001 OFFCURVE",
"360 1001 CURVE SMOOTH",
"323 1001 OFFCURVE",
"294 972 OFFCURVE",
"282 926 CURVE"
);
}
);
width = 583;
}
);
leftKerningGroup = A;
note = Acircumflextilde;
rightKerningGroup = A;
unicode = 1EAA;
},
{
glyphname = Adieresis;
layers = (
{
anchors = (
{
name = bottom;
position = "{252, 0}";
},
{
name = ogonek;
position = "{487, 10}";
},
{
name = top;
position = "{384, 834}";
}
);
layerId = "A732778C-A9DB-4576-83EA-D63CA8B0AAB2";
paths = (
{
closed = 1;
nodes = (
"-5 -4 OFFCURVE",
"1 -6 OFFCURVE",
"7 -6 CURVE SMOOTH",
"19 -6 OFFCURVE",
"29 2 OFFCURVE",
"40 23 CURVE SMOOTH",
"144 227 LINE",
"439 227 LINE",
"484 -6 LINE",
"509 -6 OFFCURVE",
"520 7 OFFCURVE",
"515 31 CURVE SMOOTH",
"386 703 LINE",
"382 705 OFFCURVE",
"377 706 OFFCURVE",
"372 706 CURVE SMOOTH",
"356 706 OFFCURVE",
"343 696 OFFCURVE",
"331 671 CURVE SMOOTH",
"-10 0 LINE"
);
},
{
closed = 1;
nodes = (
"358 649 LINE",
"433 259 LINE",
"160 259 LINE"
);
},
{
closed = 1;
nodes = (
"266 765 OFFCURVE",
"280 752 OFFCURVE",
"300 752 CURVE SMOOTH",
"327 752 OFFCURVE",
"346 771 OFFCURVE",
"346 798 CURVE SMOOTH",
"346 817 OFFCURVE",
"333 830 OFFCURVE",
"312 830 CURVE SMOOTH",
"285 830 OFFCURVE",
"266 811 OFFCURVE",
"266 785 CURVE SMOOTH"
);
},
{
closed = 1;
nodes = (
"407 765 OFFCURVE",
"421 752 OFFCURVE",
"441 752 CURVE SMOOTH",
"468 752 OFFCURVE",
"487 771 OFFCURVE",
"487 798 CURVE SMOOTH",
"487 817 OFFCURVE",
"474 830 OFFCURVE",
"453 830 CURVE SMOOTH",
"426 830 OFFCURVE",
"407 811 OFFCURVE",
"407 785 CURVE SMOOTH"
);
}
);
width = 583;
}
);
leftKerningGroup = A;
note = Adieresis;
rightKerningGroup = A;
unicode = 00C4;
},
{
glyphname = Adotbelow;
layers = (
{
anchors = (
{
name = bottom;
position = "{230, -140}";
},
{
name = ogonek;
position = "{487, 10}";
},
{
name = top;
position = "{363, 700}";
}
);
layerId = "A732778C-A9DB-4576-83EA-D63CA8B0AAB2";
paths = (
{
closed = 1;
nodes = (
"-5 -4 OFFCURVE",
"1 -6 OFFCURVE",
"7 -6 CURVE SMOOTH",
"19 -6 OFFCURVE",
"29 2 OFFCURVE",
"40 23 CURVE SMOOTH",
"144 227 LINE",
"439 227 LINE",
"484 -6 LINE",
"509 -6 OFFCURVE",
"520 7 OFFCURVE",
"515 31 CURVE SMOOTH",
"386 703 LINE",
"382 705 OFFCURVE",
"377 706 OFFCURVE",
"372 706 CURVE SMOOTH",
"356 706 OFFCURVE",
"343 696 OFFCURVE",
"331 671 CURVE SMOOTH",
"-10 0 LINE"
);
},
{
closed = 1;
nodes = (
"358 649 LINE",
"433 259 LINE",
"160 259 LINE"
);
},
{
closed = 1;
nodes = (
"196 -125 OFFCURVE",
"210 -138 OFFCURVE",
"230 -138 CURVE SMOOTH",
"257 -138 OFFCURVE",
"276 -119 OFFCURVE",
"276 -92 CURVE SMOOTH",
"276 -73 OFFCURVE",
"263 -60 OFFCURVE",
"242 -60 CURVE SMOOTH",
"215 -60 OFFCURVE",
"196 -79 OFFCURVE",
"196 -105 CURVE SMOOTH"
);
}
);
width = 583;
}
);
leftKerningGroup = A;
note = Adotbelow;
rightKerningGroup = A;
unicode = 1EA0;
},
{
glyphname = Agrave;
layers = (
{
anchors = (
{
name = bottom;
position = "{252, 0}";
},
{
name = ogonek;
position = "{487, 10}";
},
{
name = top;
position = "{342, 890}";
}
);
layerId = "A732778C-A9DB-4576-83EA-D63CA8B0AAB2";
paths = (
{
closed = 1;
nodes = (
"-5 -4 OFFCURVE",
"1 -6 OFFCURVE",
"7 -6 CURVE SMOOTH",
"19 -6 OFFCURVE",
"29 2 OFFCURVE",
"40 23 CURVE SMOOTH",
"144 227 LINE",
"439 227 LINE",
"484 -6 LINE",
"509 -6 OFFCURVE",
"520 7 OFFCURVE",
"515 31 CURVE SMOOTH",
"386 703 LINE",
"382 705 OFFCURVE",
"377 706 OFFCURVE",
"372 706 CURVE SMOOTH",
"356 706 OFFCURVE",
"343 696 OFFCURVE",
"331 671 CURVE SMOOTH",
"-10 0 LINE"
);
},
{
closed = 1;
nodes = (
"358 649 LINE",
"433 259 LINE",
"160 259 LINE"
);
},
{
closed = 1;
nodes = (
"391 752 LINE",
"407 752 LINE",
"364 890 LINE",
"320 890 LINE"
);
}
);
width = 583;
}
);
leftKerningGroup = A;
note = Agrave;
rightKerningGroup = A;
unicode = 00C0;
},
{
glyphname = Ahookabove;
layers = (
{
anchors = (
{
name = bottom;
position = "{252, 0}";
},
{
name = ogonek;
position = "{487, 10}";
},
{
name = top;
position = "{405, 917}";
}
);
layerId = "A732778C-A9DB-4576-83EA-D63CA8B0AAB2";
paths = (
{
closed = 1;
nodes = (
"-5 -4 OFFCURVE",
"1 -6 OFFCURVE",
"7 -6 CURVE SMOOTH",
"19 -6 OFFCURVE",
"29 2 OFFCURVE",
"40 23 CURVE SMOOTH",
"144 227 LINE",
"439 227 LINE",
"484 -6 LINE",
"509 -6 OFFCURVE",
"520 7 OFFCURVE",
"515 31 CURVE SMOOTH",
"386 703 LINE",
"382 705 OFFCURVE",
"377 706 OFFCURVE",
"372 706 CURVE SMOOTH",
"356 706 OFFCURVE",
"343 696 OFFCURVE",
"331 671 CURVE SMOOTH",
"-10 0 LINE"
);
},
{
closed = 1;
nodes = (
"358 649 LINE",
"433 259 LINE",
"160 259 LINE"
);
},
{
closed = 1;
nodes = (
"358 883 OFFCURVE",
"371 887 OFFCURVE",
"386 887 CURVE SMOOTH",
"414 887 OFFCURVE",
"425 873 OFFCURVE",
"425 856 CURVE SMOOTH",
"425 831 OFFCURVE",
"398 786 OFFCURVE",
"348 752 CURVE",
"373 752 LINE",
"442 789 OFFCURVE",
"467 831 OFFCURVE",
"467 866 CURVE SMOOTH",
"467 899 OFFCURVE",
"440 917 OFFCURVE",
"404 917 CURVE SMOOTH",
"385 917 OFFCURVE",
"365 912 OFFCURVE",
"347 905 CURVE",
"343 877 LINE"
);
}
);
width = 583;
}
);
leftKerningGroup = A;
note = Ahookabove;
rightKerningGroup = A;
unicode = 1EA2;
},
{
glyphname = Amacron;
layers = (
{
anchors = (
{
name = bottom;
position = "{252, 0}";
},
{
name = ogonek;
position = "{487, 10}";
},
{
name = top;
position = "{377, 790}";
}
);
layerId = "A732778C-A9DB-4576-83EA-D63CA8B0AAB2";
paths = (
{
closed = 1;
nodes = (
"-5 -4 OFFCURVE",
"1 -6 OFFCURVE",
"7 -6 CURVE SMOOTH",
"19 -6 OFFCURVE",
"29 2 OFFCURVE",
"40 23 CURVE SMOOTH",
"144 227 LINE",
"439 227 LINE",
"484 -6 LINE",
"509 -6 OFFCURVE",
"520 7 OFFCURVE",
"515 31 CURVE SMOOTH",
"386 703 LINE",
"382 705 OFFCURVE",
"377 706 OFFCURVE",
"372 706 CURVE SMOOTH",
"356 706 OFFCURVE",
"343 696 OFFCURVE",
"331 671 CURVE SMOOTH",
"-10 0 LINE"
);
},
{
closed = 1;
nodes = (
"358 649 LINE",
"433 259 LINE",
"160 259 LINE"
);
},
{
closed = 1;
nodes = (
"524 760 LINE",
"529 790 LINE",
"225 790 LINE",
"220 760 LINE"
);
}
);
width = 583;
}
);
leftKerningGroup = A;
note = Amacron;
rightKerningGroup = A;
unicode = 0100;
},
{
glyphname = Aogonek;
lastChange = "2018-03-13 07:06:36 +0000";
layers = (
{
anchors = (
{
name = bottom;
position = "{252, 0}";
},
{
name = ogonek;
position = "{487, 10}";
},
{
name = top;
position = "{363, 700}";
}
);
layerId = "A732778C-A9DB-4576-83EA-D63CA8B0AAB2";
paths = (
{
closed = 1;
nodes = (
"-5 -4 OFFCURVE",
"1 -6 OFFCURVE",
"7 -6 CURVE SMOOTH",
"19 -6 OFFCURVE",
"29 2 OFFCURVE",
"40 23 CURVE SMOOTH",
"144 227 LINE",
"439 227 LINE",
"481 10 LINE",
"475 10 LINE",
"403 -24 OFFCURVE",
"360 -69 OFFCURVE",
"360 -108 CURVE SMOOTH",
"360 -135 OFFCURVE",
"381 -155 OFFCURVE",
"421 -155 CURVE SMOOTH",
"441 -155 OFFCURVE",
"461 -150 OFFCURVE",
"479 -143 CURVE",
"483 -115 LINE",
"468 -121 OFFCURVE",
"455 -125 OFFCURVE",
"441 -125 CURVE SMOOTH",
"415 -125 OFFCURVE",
"401 -112 OFFCURVE",
"401 -93 CURVE SMOOTH",
"401 -66 OFFCURVE",
"432 -34 OFFCURVE",
"483 -2 CURVE",
"484 -6 LINE",
"509 -6 OFFCURVE",
"520 7 OFFCURVE",
"515 31 CURVE SMOOTH",
"386 703 LINE",
"382 705 OFFCURVE",
"377 706 OFFCURVE",
"372 706 CURVE SMOOTH",
"356 706 OFFCURVE",
"343 696 OFFCURVE",
"331 671 CURVE SMOOTH",
"-10 0 LINE"
);
},
{
closed = 1;
nodes = (
"358 649 LINE",
"433 259 LINE",
"160 259 LINE"
);
}
);
width = 583;
}
);
leftKerningGroup = A;
note = Aogonek;
rightKerningGroup = A;
unicode = 0104;
},
{
glyphname = Aring;
layers = (
{
anchors = (
{
name = bottom;
position = "{252, 0}";
},
{
name = ogonek;
position = "{487, 10}";
},
{
name = top;
position = "{396, 910}";
}
);
layerId = "A732778C-A9DB-4576-83EA-D63CA8B0AAB2";
paths = (
{
closed = 1;
nodes = (
"-5 -4 OFFCURVE",
"1 -6 OFFCURVE",
"7 -6 CURVE SMOOTH",
"19 -6 OFFCURVE",
"29 2 OFFCURVE",
"40 23 CURVE SMOOTH",
"144 227 LINE",
"439 227 LINE",
"484 -6 LINE",
"509 -6 OFFCURVE",
"520 7 OFFCURVE",
"515 31 CURVE SMOOTH",
"386 703 LINE",
"382 705 OFFCURVE",
"377 706 OFFCURVE",
"372 706 CURVE SMOOTH",
"356 706 OFFCURVE",
"343 696 OFFCURVE",
"331 671 CURVE SMOOTH",
"-10 0 LINE"
);
},
{
closed = 1;
nodes = (
"358 649 LINE",
"433 259 LINE",
"160 259 LINE"
);
},
{
closed = 1;
nodes = (
"294 773 OFFCURVE",
"326 746 OFFCURVE",
"371 746 CURVE SMOOTH",
"428 746 OFFCURVE",
"470 789 OFFCURVE",
"470 840 CURVE SMOOTH",
"470 884 OFFCURVE",
"439 910 OFFCURVE",
"394 910 CURVE SMOOTH",
"337 910 OFFCURVE",
"294 868 OFFCURVE",
"294 817 CURVE SMOOTH"
);
},
{
closed = 1;
nodes = (
"330 854 OFFCURVE",
"357 882 OFFCURVE",
"391 882 CURVE SMOOTH",
"416 882 OFFCURVE",
"434 866 OFFCURVE",
"434 837 CURVE SMOOTH",
"434 802 OFFCURVE",
"409 774 OFFCURVE",
"375 774 CURVE SMOOTH",
"348 774 OFFCURVE",
"330 791 OFFCURVE",
"330 819 CURVE SMOOTH"
);
}
);
width = 583;
}
);
leftKerningGroup = A;
note = Aring;
rightKerningGroup = A;
unicode = 00C5;
},
{
glyphname = Aringacute;
layers = (
{
anchors = (
{
name = bottom;
position = "{252, 0}";
},
{
name = ogonek;
position = "{487, 10}";
},
{
name = top;
position = "{477, 1062}";
}
);
layerId = "A732778C-A9DB-4576-83EA-D63CA8B0AAB2";
paths = (
{
closed = 1;
nodes = (
"-5 -4 OFFCURVE",
"1 -6 OFFCURVE",
"7 -6 CURVE SMOOTH",
"19 -6 OFFCURVE",
"29 2 OFFCURVE",
"40 23 CURVE SMOOTH",
"144 227 LINE",
"439 227 LINE",
"484 -6 LINE",
"509 -6 OFFCURVE",
"520 7 OFFCURVE",
"515 31 CURVE SMOOTH",
"386 703 LINE",
"382 705 OFFCURVE",
"377 706 OFFCURVE",
"372 706 CURVE SMOOTH",
"356 706 OFFCURVE",
"343 696 OFFCURVE",
"331 671 CURVE SMOOTH",
"-10 0 LINE"
);
},
{
closed = 1;
nodes = (
"358 649 LINE",
"433 259 LINE",
"160 259 LINE"
);
},
{
closed = 1;
nodes = (
"294 773 OFFCURVE",
"326 746 OFFCURVE",
"371 746 CURVE SMOOTH",
"428 746 OFFCURVE",
"470 789 OFFCURVE",
"470 840 CURVE SMOOTH",
"470 884 OFFCURVE",
"439 910 OFFCURVE",
"394 910 CURVE SMOOTH",
"337 910 OFFCURVE",
"294 868 OFFCURVE",
"294 817 CURVE SMOOTH"
);
},
{
closed = 1;
nodes = (
"330 854 OFFCURVE",
"357 882 OFFCURVE",
"391 882 CURVE SMOOTH",
"416 882 OFFCURVE",
"434 866 OFFCURVE",
"434 837 CURVE SMOOTH",
"434 802 OFFCURVE",
"409 774 OFFCURVE",
"375 774 CURVE SMOOTH",
"348 774 OFFCURVE",
"330 791 OFFCURVE",
"330 819 CURVE SMOOTH"
);
},
{
closed = 1;
nodes = (
"384 952 LINE",
"499 1062 LINE",
"455 1062 LINE",
"368 952 LINE"
);
}
);
width = 583;
}
);
leftKerningGroup = A;
note = Aringacute;
rightKerningGroup = A;
unicode = 01FA;
},
{
glyphname = Atilde;
layers = (
{
anchors = (
{
name = bottom;
position = "{252, 0}";
},
{
name = ogonek;
position = "{487, 10}";
},
{
name = top;
position = "{388, 858}";
}
);
layerId = "A732778C-A9DB-4576-83EA-D63CA8B0AAB2";
paths = (
{
closed = 1;
nodes = (
"-5 -4 OFFCURVE",
"1 -6 OFFCURVE",
"7 -6 CURVE SMOOTH",
"19 -6 OFFCURVE",
"29 2 OFFCURVE",
"40 23 CURVE SMOOTH",
"144 227 LINE",
"439 227 LINE",
"484 -6 LINE",
"509 -6 OFFCURVE",
"520 7 OFFCURVE",
"515 31 CURVE SMOOTH",
"386 703 LINE",
"382 705 OFFCURVE",
"377 706 OFFCURVE",
"372 706 CURVE SMOOTH",
"356 706 OFFCURVE",
"343 696 OFFCURVE",
"331 671 CURVE SMOOTH",
"-10 0 LINE"
);
},
{
closed = 1;
nodes = (
"358 649 LINE",
"433 259 LINE",
"160 259 LINE"
);
},
{
closed = 1;
nodes = (
"252 752 LINE",
"265 798 OFFCURVE",
"289 824 OFFCURVE",
"315 824 CURVE SMOOTH",
"357 824 OFFCURVE",
"374 752 OFFCURVE",
"436 752 CURVE SMOOTH",
"482 752 OFFCURVE",
"521 793 OFFCURVE",
"535 858 CURVE",
"507 858 LINE",
"494 812 OFFCURVE",
"467 786 OFFCURVE",
"441 786 CURVE SMOOTH",
"399 786 OFFCURVE",
"383 858 OFFCURVE",
"321 858 CURVE SMOOTH",
"275 858 OFFCURVE",
"239 817 OFFCURVE",
"224 752 CURVE"
);
}
);
width = 583;
}
);
leftKerningGroup = A;
note = Atilde;
rightKerningGroup = A;
unicode = 00C3;
},
{
glyphname = AE;
layers = (
{
anchors = (
{
name = bottom;
position = "{357, 0}";
},
{
name = top;
position = "{468, 700}";
}
);
layerId = "A732778C-A9DB-4576-83EA-D63CA8B0AAB2";
paths = (
{
closed = 1;
nodes = (
"-5 -4 OFFCURVE",
"1 -6 OFFCURVE",
"7 -6 CURVE SMOOTH",
"19 -6 OFFCURVE",
"29 2 OFFCURVE",
"40 23 CURVE SMOOTH",
"144 227 LINE",
"379 227 LINE",
"373 188 LINE SMOOTH",
"359 100 OFFCURVE",
"346 54 OFFCURVE",
"319 13 CURVE",
"323 0 LINE",
"690 0 LINE SMOOTH",
"708 0 OFFCURVE",
"720 7 OFFCURVE",
"722 20 CURVE",
"723 24 OFFCURVE",
"722 28 OFFCURVE",
"721 32 CURVE",
"368 32 LINE",
"391 74 OFFCURVE",
"403 136 OFFCURVE",
"411 188 CURVE SMOOTH",
"437 355 LINE",
"698 355 LINE SMOOTH",
"716 355 OFFCURVE",
"728 361 OFFCURVE",
"730 374 CURVE",
"731 378 OFFCURVE",
"731 382 OFFCURVE",
"729 386 CURVE",
"442 386 LINE",
"487 668 LINE",
"780 668 LINE SMOOTH",
"798 668 OFFCURVE",
"810 675 OFFCURVE",
"812 688 CURVE",
"813 692 OFFCURVE",
"812 696 OFFCURVE",
"811 700 CURVE",
"385 700 LINE SMOOTH",
"360 700 OFFCURVE",
"340 686 OFFCURVE",
"327 662 CURVE SMOOTH",
"-10 0 LINE"
);
},
{
closed = 1;
nodes = (
"368 668 LINE",
"449 668 LINE",
"384 259 LINE",
"160 259 LINE"
);
}
);
width = 793;
}
);
leftMetricsKey = A;
note = AE;
rightMetricsKey = E;
unicode = 00C6;
},
{
glyphname = AEacute;
layers = (
{
anchors = (
{
name = bottom;
position = "{357, 0}";
},
{
name = top;
position = "{549, 890}";
}
);
layerId = "A732778C-A9DB-4576-83EA-D63CA8B0AAB2";
paths = (
{
closed = 1;
nodes = (
"-5 -4 OFFCURVE",
"1 -6 OFFCURVE",
"7 -6 CURVE SMOOTH",
"19 -6 OFFCURVE",
"29 2 OFFCURVE",
"40 23 CURVE SMOOTH",
"144 227 LINE",
"379 227 LINE",
"373 188 LINE SMOOTH",
"359 100 OFFCURVE",
"346 54 OFFCURVE",
"319 13 CURVE",
"323 0 LINE",
"690 0 LINE SMOOTH",
"708 0 OFFCURVE",
"720 7 OFFCURVE",
"722 20 CURVE",
"723 24 OFFCURVE",
"722 28 OFFCURVE",
"721 32 CURVE",
"368 32 LINE",
"391 74 OFFCURVE",
"403 136 OFFCURVE",
"411 188 CURVE SMOOTH",
"437 355 LINE",
"698 355 LINE SMOOTH",
"716 355 OFFCURVE",
"728 361 OFFCURVE",
"730 374 CURVE",
"731 378 OFFCURVE",
"731 382 OFFCURVE",
"729 386 CURVE",
"442 386 LINE",
"487 668 LINE",
"780 668 LINE SMOOTH",
"798 668 OFFCURVE",
"810 675 OFFCURVE",
"812 688 CURVE",
"813 692 OFFCURVE",
"812 696 OFFCURVE",
"811 700 CURVE",
"385 700 LINE SMOOTH",
"360 700 OFFCURVE",
"340 686 OFFCURVE",
"327 662 CURVE SMOOTH",
"-10 0 LINE"
);
},
{
closed = 1;
nodes = (
"368 668 LINE",
"449 668 LINE",
"384 259 LINE",
"160 259 LINE"
);
},
{
closed = 1;
nodes = (
"456 752 LINE",
"571 890 LINE",
"527 890 LINE",
"440 752 LINE"
);
}
);
width = 793;
}
);
leftKerningGroup = A;
note = AEacute;
unicode = 01FC;
},
{
glyphname = B;
lastChange = "2018-03-13 07:06:36 +0000";
layers = (
{
anchors = (
{
name = bottom;
position = "{235, 0}";
},
{
name = top;
position = "{346, 700}";
}
);
layerId = "A732778C-A9DB-4576-83EA-D63CA8B0AAB2";
paths = (
{
closed = 1;
nodes = (
"30 -2 LINE",
"85 -2 OFFCURVE",
"148 -10 OFFCURVE",
"212 -10 CURVE SMOOTH",
"370 -10 OFFCURVE",
"497 79 OFFCURVE",
"497 224 CURVE SMOOTH",
"497 296 OFFCURVE",
"455 348 OFFCURVE",
"382 362 CURVE",
"462 383 OFFCURVE",
"515 463 OFFCURVE",
"515 548 CURVE SMOOTH",
"515 648 OFFCURVE",
"439 710 OFFCURVE",
"311 710 CURVE SMOOTH",
"251 710 OFFCURVE",
"198 704 OFFCURVE",
"142 704 CURVE",
"133 691 LINE",
"140 672 OFFCURVE",
"143 651 OFFCURVE",
"143 626 CURVE SMOOTH",
"143 597 OFFCURVE",
"138 561 OFFCURVE",
"131 514 CURVE SMOOTH",
"80 188 LINE SMOOTH",
"66 100 OFFCURVE",
"52 52 OFFCURVE",
"26 11 CURVE"
);
},
{
closed = 1;
nodes = (
"96 70 OFFCURVE",
"109 134 OFFCURVE",
"118 188 CURVE SMOOTH",
"143 345 LINE",
"316 345 LINE SMOOTH",
"405 345 OFFCURVE",
"458 300 OFFCURVE",
"458 226 CURVE SMOOTH",
"458 105 OFFCURVE",
"360 22 OFFCURVE",
"227 22 CURVE SMOOTH",
"184 22 OFFCURVE",
"111 27 OFFCURVE",
"73 28 CURVE"
);
},
{
closed = 1;
nodes = (
"169 514 LINE SMOOTH",
"175 549 OFFCURVE",
"180 588 OFFCURVE",
"180 623 CURVE SMOOTH",
"180 641 OFFCURVE",
"179 657 OFFCURVE",
"175 672 CURVE",
"214 673 OFFCURVE",
"281 678 OFFCURVE",
"322 678 CURVE SMOOTH",
"418 678 OFFCURVE",
"475 627 OFFCURVE",
"475 546 CURVE SMOOTH",
"475 453 OFFCURVE",
"415 376 OFFCURVE",
"316 376 CURVE SMOOTH",
"148 376 LINE"
);
}
);
width = 550;
}
);
leftKerningGroup = E;
leftMetricsKey = E;
note = B;
rightKerningGroup = B;
unicode = 0042;
},
{
glyphname = C;
layers = (
{
anchors = (
{
name = bottom;
position = "{315, 0}";
},
{
name = top;
position = "{434, 700}";
}
);
layerId = "A732778C-A9DB-4576-83EA-D63CA8B0AAB2";
paths = (
{
closed = 1;
nodes = (
"60 102 OFFCURVE",
"153 -10 OFFCURVE",
"322 -10 CURVE SMOOTH",
"443 -10 OFFCURVE",
"547 62 OFFCURVE",
"550 82 CURVE SMOOTH",
"552 94 OFFCURVE",
"546 100 OFFCURVE",
"533 100 CURVE",
"478 50 OFFCURVE",
"406 21 OFFCURVE",
"325 21 CURVE SMOOTH",
"182 21 OFFCURVE",
"100 116 OFFCURVE",
"100 271 CURVE SMOOTH",
"100 484 OFFCURVE",
"224 679 OFFCURVE",
"430 679 CURVE SMOOTH",
"511 679 OFFCURVE",
"573 650 OFFCURVE",
"612 600 CURVE",
"625 600 OFFCURVE",
"635 606 OFFCURVE",
"635 619 CURVE SMOOTH",
"635 641 OFFCURVE",
"555 710 OFFCURVE",
"436 710 CURVE SMOOTH",
"204 710 OFFCURVE",
"60 513 OFFCURVE",
"60 275 CURVE SMOOTH"
);
}
);
width = 627;
}
);
leftKerningGroup = O;
leftMetricsKey = O;
note = C;
rightKerningGroup = C;
unicode = 0043;
},
{
glyphname = Cacute;
layers = (
{
anchors = (
{
name = bottom;
position = "{315, 0}";
},
{
name = top;
position = "{515, 890}";
}
);
layerId = "A732778C-A9DB-4576-83EA-D63CA8B0AAB2";
paths = (
{
closed = 1;
nodes = (
"60 102 OFFCURVE",
"153 -10 OFFCURVE",
"322 -10 CURVE SMOOTH",
"443 -10 OFFCURVE",
"547 62 OFFCURVE",
"550 82 CURVE SMOOTH",
"552 94 OFFCURVE",
"546 100 OFFCURVE",
"533 100 CURVE",
"478 50 OFFCURVE",
"406 21 OFFCURVE",
"325 21 CURVE SMOOTH",
"182 21 OFFCURVE",
"100 116 OFFCURVE",
"100 271 CURVE SMOOTH",
"100 484 OFFCURVE",
"224 679 OFFCURVE",
"430 679 CURVE SMOOTH",
"511 679 OFFCURVE",
"573 650 OFFCURVE",
"612 600 CURVE",
"625 600 OFFCURVE",
"635 606 OFFCURVE",
"635 619 CURVE SMOOTH",
"635 641 OFFCURVE",
"555 710 OFFCURVE",
"436 710 CURVE SMOOTH",
"204 710 OFFCURVE",
"60 513 OFFCURVE",
"60 275 CURVE SMOOTH"
);
},
{
closed = 1;
nodes = (
"422 752 LINE",
"537 890 LINE",
"493 890 LINE",
"406 752 LINE"
);
}
);
width = 627;
}
);
leftKerningGroup = C;
note = Cacute;
unicode = 0106;
},
{
glyphname = Ccaron;
layers = (
{
anchors = (
{
name = bottom;
position = "{315, 0}";
},
{
name = top;
position = "{464, 890}";
}
);
layerId = "A732778C-A9DB-4576-83EA-D63CA8B0AAB2";
paths = (
{
closed = 1;
nodes = (
"60 102 OFFCURVE",
"153 -10 OFFCURVE",
"322 -10 CURVE SMOOTH",
"443 -10 OFFCURVE",
"547 62 OFFCURVE",
"550 82 CURVE SMOOTH",
"552 94 OFFCURVE",
"546 100 OFFCURVE",
"533 100 CURVE",
"478 50 OFFCURVE",
"406 21 OFFCURVE",
"325 21 CURVE SMOOTH",
"182 21 OFFCURVE",
"100 116 OFFCURVE",
"100 271 CURVE SMOOTH",
"100 484 OFFCURVE",
"224 679 OFFCURVE",
"430 679 CURVE SMOOTH",
"511 679 OFFCURVE",
"573 650 OFFCURVE",
"612 600 CURVE",
"625 600 OFFCURVE",
"635 606 OFFCURVE",
"635 619 CURVE SMOOTH",
"635 641 OFFCURVE",
"555 710 OFFCURVE",
"436 710 CURVE SMOOTH",
"204 710 OFFCURVE",
"60 513 OFFCURVE",
"60 275 CURVE SMOOTH"
);
},
{
closed = 1;
nodes = (
"418 752 LINE",
"466 752 LINE",
"594 890 LINE",
"578 890 LINE",
"446 792 LINE",
"350 890 LINE",
"334 890 LINE"
);
}
);
width = 627;
}
);
leftKerningGroup = C;
note = Ccaron;
unicode = 010C;
},
{
glyphname = Ccedilla;
lastChange = "2018-03-13 07:06:36 +0000";
layers = (
{
anchors = (
{
name = bottom;
position = "{260, -175}";
},
{
name = top;
position = "{434, 700}";
}
);
layerId = "A732778C-A9DB-4576-83EA-D63CA8B0AAB2";
paths = (
{
closed = 1;
nodes = (
"60 114 OFFCURVE",
"141 6 OFFCURVE",
"288 -8 CURVE",
"225 -84 LINE",
"229 -92 LINE",
"242 -88 OFFCURVE",
"254 -86 OFFCURVE",
"268 -86 CURVE SMOOTH",
"299 -86 OFFCURVE",
"315 -95 OFFCURVE",
"315 -112 CURVE SMOOTH",
"315 -133 OFFCURVE",
"294 -145 OFFCURVE",
"259 -145 CURVE SMOOTH",
"236 -145 OFFCURVE",
"216 -140 OFFCURVE",
"196 -131 CURVE",
"192 -159 LINE",
"213 -170 OFFCURVE",
"235 -175 OFFCURVE",
"260 -175 CURVE SMOOTH",
"319 -175 OFFCURVE",
"354 -148 OFFCURVE",
"354 -106 CURVE SMOOTH",
"354 -74 OFFCURVE",
"326 -56 OFFCURVE",
"279 -56 CURVE",
"316 -10 LINE",
"322 -10 LINE SMOOTH",
"443 -10 OFFCURVE",
"547 62 OFFCURVE",
"550 82 CURVE SMOOTH",
"552 94 OFFCURVE",
"546 100 OFFCURVE",
"533 100 CURVE",
"478 50 OFFCURVE",
"406 21 OFFCURVE",
"325 21 CURVE SMOOTH",
"182 21 OFFCURVE",
"100 116 OFFCURVE",
"100 271 CURVE SMOOTH",
"100 484 OFFCURVE",
"224 679 OFFCURVE",
"430 679 CURVE SMOOTH",
"511 679 OFFCURVE",
"573 650 OFFCURVE",
"612 600 CURVE",
"625 600 OFFCURVE",
"635 606 OFFCURVE",
"635 619 CURVE SMOOTH",
"635 641 OFFCURVE",
"555 710 OFFCURVE",
"436 710 CURVE SMOOTH",
"204 710 OFFCURVE",
"60 513 OFFCURVE",
"60 275 CURVE SMOOTH"
);
}
);
width = 627;
}
);
leftKerningGroup = C;
note = Ccedilla;
unicode = 00C7;
},
{
glyphname = Ccircumflex;
layers = (
{
anchors = (
{
name = bottom;
position = "{315, 0}";
},
{
name = top;
position = "{464, 890}";
}
);
layerId = "A732778C-A9DB-4576-83EA-D63CA8B0AAB2";
paths = (
{
closed = 1;
nodes = (
"60 102 OFFCURVE",
"153 -10 OFFCURVE",
"322 -10 CURVE SMOOTH",
"443 -10 OFFCURVE",
"547 62 OFFCURVE",
"550 82 CURVE SMOOTH",
"552 94 OFFCURVE",
"546 100 OFFCURVE",
"533 100 CURVE",
"478 50 OFFCURVE",
"406 21 OFFCURVE",
"325 21 CURVE SMOOTH",
"182 21 OFFCURVE",
"100 116 OFFCURVE",
"100 271 CURVE SMOOTH",
"100 484 OFFCURVE",
"224 679 OFFCURVE",
"430 679 CURVE SMOOTH",
"511 679 OFFCURVE",
"573 650 OFFCURVE",
"612 600 CURVE",
"625 600 OFFCURVE",
"635 606 OFFCURVE",
"635 619 CURVE SMOOTH",
"635 641 OFFCURVE",
"555 710 OFFCURVE",
"436 710 CURVE SMOOTH",
"204 710 OFFCURVE",
"60 513 OFFCURVE",
"60 275 CURVE SMOOTH"
);
},
{
closed = 1;
nodes = (
"328 752 LINE",
"460 850 LINE",
"556 752 LINE",
"572 752 LINE",
"488 890 LINE",
"440 890 LINE",
"312 752 LINE"
);
}
);
width = 627;
}
);
leftKerningGroup = C;
note = Ccircumflex;
unicode = 0108;
},
{
glyphname = Cdotaccent;
layers = (
{
anchors = (
{
name = bottom;
position = "{315, 0}";
},
{
name = top;
position = "{457, 843}";
}
);
layerId = "A732778C-A9DB-4576-83EA-D63CA8B0AAB2";
paths = (
{
closed = 1;
nodes = (
"60 102 OFFCURVE",
"153 -10 OFFCURVE",
"322 -10 CURVE SMOOTH",
"443 -10 OFFCURVE",
"547 62 OFFCURVE",
"550 82 CURVE SMOOTH",
"552 94 OFFCURVE",
"546 100 OFFCURVE",
"533 100 CURVE",
"478 50 OFFCURVE",
"406 21 OFFCURVE",
"325 21 CURVE SMOOTH",
"182 21 OFFCURVE",
"100 116 OFFCURVE",
"100 271 CURVE SMOOTH",
"100 484 OFFCURVE",
"224 679 OFFCURVE",
"430 679 CURVE SMOOTH",
"511 679 OFFCURVE",
"573 650 OFFCURVE",
"612 600 CURVE",
"625 600 OFFCURVE",
"635 606 OFFCURVE",
"635 619 CURVE SMOOTH",
"635 641 OFFCURVE",
"555 710 OFFCURVE",
"436 710 CURVE SMOOTH",
"204 710 OFFCURVE",
"60 513 OFFCURVE",
"60 275 CURVE SMOOTH"
);
},
{
closed = 1;
nodes = (
"407 769 OFFCURVE",
"421 755 OFFCURVE",
"443 755 CURVE SMOOTH",
"473 755 OFFCURVE",
"493 775 OFFCURVE",
"493 805 CURVE SMOOTH",
"493 825 OFFCURVE",
"479 839 OFFCURVE",
"457 839 CURVE SMOOTH",
"427 839 OFFCURVE",
"407 819 OFFCURVE",
"407 789 CURVE SMOOTH"
);
}
);
width = 627;
}
);
leftKerningGroup = C;
note = Cdotaccent;
unicode = 010A;
},
{
glyphname = D;
lastChange = "2018-03-13 07:06:36 +0000";
layers = (
{
anchors = (
{
name = bottom;
position = "{270, 0}";
},
{
name = center;
position = "{325, 350}";
},
{
name = top;
position = "{381, 700}";
}
);
layerId = "A732778C-A9DB-4576-83EA-D63CA8B0AAB2";
paths = (
{
closed = 1;
nodes = (
"30 -2 LINE",
"80 -2 OFFCURVE",
"149 -10 OFFCURVE",
"197 -10 CURVE SMOOTH",
"438 -10 OFFCURVE",
"592 182 OFFCURVE",
"592 415 CURVE SMOOTH",
"592 604 OFFCURVE",
"490 710 OFFCURVE",
"309 710 CURVE SMOOTH",
"265 710 OFFCURVE",
"191 704 OFFCURVE",
"142 704 CURVE",
"133 691 LINE",
"140 672 OFFCURVE",
"143 650 OFFCURVE",
"143 626 CURVE SMOOTH",
"143 596 OFFCURVE",
"138 561 OFFCURVE",
"131 514 CURVE SMOOTH",
"80 188 LINE SMOOTH",
"66 100 OFFCURVE",
"52 52 OFFCURVE",
"26 11 CURVE"
);
},
{
closed = 1;
nodes = (
"97 71 OFFCURVE",
"111 142 OFFCURVE",
"118 188 CURVE SMOOTH",
"169 514 LINE SMOOTH",
"175 551 OFFCURVE",
"180 586 OFFCURVE",
"180 622 CURVE SMOOTH",
"180 640 OFFCURVE",
"179 657 OFFCURVE",
"175 672 CURVE",
"212 673 OFFCURVE",
"274 678 OFFCURVE",
"310 678 CURVE SMOOTH",
"464 678 OFFCURVE",
"553 587 OFFCURVE",
"553 418 CURVE SMOOTH",
"553 213 OFFCURVE",
"421 22 OFFCURVE",
"205 22 CURVE SMOOTH",
"171 22 OFFCURVE",
"110 27 OFFCURVE",
"73 28 CURVE"
);
}
);
width = 621;
}
);
leftKerningGroup = E;
leftMetricsKey = E;
note = D;
rightKerningGroup = O;
rightMetricsKey = O;
unicode = 0044;
},
{
glyphname = Eth;
lastChange = "2018-03-13 07:06:36 +0000";
layers = (
{
anchors = (
{
name = bottom;
position = "{270, 0}";
},
{
name = center;
position = "{325, 350}";
},
{
name = top;
position = "{381, 700}";
}
);
layerId = "A732778C-A9DB-4576-83EA-D63CA8B0AAB2";
paths = (
{
closed = 1;
nodes = (
"103 334 LINE",
"80 188 LINE SMOOTH",
"66 100 OFFCURVE",
"52 52 OFFCURVE",
"26 11 CURVE",
"30 -2 LINE",
"80 -2 OFFCURVE",
"149 -10 OFFCURVE",
"197 -10 CURVE SMOOTH",
"438 -10 OFFCURVE",
"592 182 OFFCURVE",
"592 415 CURVE SMOOTH",
"592 604 OFFCURVE",
"490 710 OFFCURVE",
"309 710 CURVE SMOOTH",
"265 710 OFFCURVE",
"191 704 OFFCURVE",
"142 704 CURVE",
"133 691 LINE",
"140 672 OFFCURVE",
"143 650 OFFCURVE",
"143 626 CURVE SMOOTH",
"143 596 OFFCURVE",
"138 561 OFFCURVE",
"131 514 CURVE SMOOTH",
"108 366 LINE",
"18 366 LINE",
"13 334 LINE"
);
},
{
closed = 1;
nodes = (
"97 71 OFFCURVE",
"111 142 OFFCURVE",
"118 188 CURVE SMOOTH",
"141 334 LINE",
"363 334 LINE",
"368 366 LINE",
"146 366 LINE",
"169 514 LINE SMOOTH",
"175 551 OFFCURVE",
"180 586 OFFCURVE",
"180 622 CURVE SMOOTH",
"180 640 OFFCURVE",
"179 657 OFFCURVE",
"175 672 CURVE",
"212 673 OFFCURVE",
"274 678 OFFCURVE",
"310 678 CURVE SMOOTH",
"464 678 OFFCURVE",
"553 587 OFFCURVE",
"553 418 CURVE SMOOTH",
"553 213 OFFCURVE",
"421 22 OFFCURVE",
"205 22 CURVE SMOOTH",
"171 22 OFFCURVE",
"110 27 OFFCURVE",
"73 28 CURVE"
);
}
);
width = 621;
}
);
note = Eth;
rightMetricsKey = D;
unicode = 00D0;
},
{
glyphname = Dcaron;
lastChange = "2018-03-13 07:06:36 +0000";
layers = (
{
anchors = (
{
name = bottom;
position = "{270, 0}";
},
{
name = center;
position = "{325, 350}";
},
{
name = top;
position = "{411, 890}";
}
);
layerId = "A732778C-A9DB-4576-83EA-D63CA8B0AAB2";
paths = (
{
closed = 1;
nodes = (
"30 -2 LINE",
"80 -2 OFFCURVE",
"149 -10 OFFCURVE",
"197 -10 CURVE SMOOTH",
"438 -10 OFFCURVE",
"592 182 OFFCURVE",
"592 415 CURVE SMOOTH",
"592 604 OFFCURVE",
"490 710 OFFCURVE",
"309 710 CURVE SMOOTH",
"265 710 OFFCURVE",
"191 704 OFFCURVE",
"142 704 CURVE",
"133 691 LINE",
"140 672 OFFCURVE",
"143 650 OFFCURVE",
"143 626 CURVE SMOOTH",
"143 596 OFFCURVE",
"138 561 OFFCURVE",
"131 514 CURVE SMOOTH",
"80 188 LINE SMOOTH",
"66 100 OFFCURVE",
"52 52 OFFCURVE",
"26 11 CURVE"
);
},
{
closed = 1;
nodes = (
"97 71 OFFCURVE",
"111 142 OFFCURVE",
"118 188 CURVE SMOOTH",
"169 514 LINE SMOOTH",
"175 551 OFFCURVE",
"180 586 OFFCURVE",
"180 622 CURVE SMOOTH",
"180 640 OFFCURVE",
"179 657 OFFCURVE",
"175 672 CURVE",
"212 673 OFFCURVE",
"274 678 OFFCURVE",
"310 678 CURVE SMOOTH",
"464 678 OFFCURVE",
"553 587 OFFCURVE",
"553 418 CURVE SMOOTH",
"553 213 OFFCURVE",
"421 22 OFFCURVE",
"205 22 CURVE SMOOTH",
"171 22 OFFCURVE",
"110 27 OFFCURVE",
"73 28 CURVE"
);
},
{
closed = 1;
nodes = (
"365 752 LINE",
"413 752 LINE",
"541 890 LINE",
"525 890 LINE",
"393 792 LINE",
"297 890 LINE",
"281 890 LINE"
);
}
);
width = 621;
}
);
note = Dcaron;
rightKerningGroup = D;
unicode = 010E;
},
{
glyphname = Dcroat;
lastChange = "2018-03-13 07:06:36 +0000";
layers = (
{
anchors = (
{
name = bottom;
position = "{270, 0}";
},
{
name = center;
position = "{325, 350}";
},
{
name = top;
position = "{381, 700}";
}
);
layerId = "A732778C-A9DB-4576-83EA-D63CA8B0AAB2";
paths = (
{
closed = 1;
nodes = (
"103 334 LINE",
"80 188 LINE SMOOTH",
"66 100 OFFCURVE",
"52 52 OFFCURVE",
"26 11 CURVE",
"30 -2 LINE",
"80 -2 OFFCURVE",
"149 -10 OFFCURVE",
"197 -10 CURVE SMOOTH",
"438 -10 OFFCURVE",
"592 182 OFFCURVE",
"592 415 CURVE SMOOTH",
"592 604 OFFCURVE",
"490 710 OFFCURVE",
"309 710 CURVE SMOOTH",
"265 710 OFFCURVE",
"191 704 OFFCURVE",
"142 704 CURVE",
"133 691 LINE",
"140 672 OFFCURVE",
"143 650 OFFCURVE",
"143 626 CURVE SMOOTH",
"143 596 OFFCURVE",
"138 561 OFFCURVE",
"131 514 CURVE SMOOTH",
"108 366 LINE",
"18 366 LINE",
"13 334 LINE"
);
},
{
closed = 1;
nodes = (
"97 71 OFFCURVE",
"111 142 OFFCURVE",
"118 188 CURVE SMOOTH",
"141 334 LINE",
"363 334 LINE",
"368 366 LINE",
"146 366 LINE",
"169 514 LINE SMOOTH",
"175 551 OFFCURVE",
"180 586 OFFCURVE",
"180 622 CURVE SMOOTH",
"180 640 OFFCURVE",
"179 657 OFFCURVE",
"175 672 CURVE",
"212 673 OFFCURVE",
"274 678 OFFCURVE",
"310 678 CURVE SMOOTH",
"464 678 OFFCURVE",
"553 587 OFFCURVE",
"553 418 CURVE SMOOTH",
"553 213 OFFCURVE",
"421 22 OFFCURVE",
"205 22 CURVE SMOOTH",
"171 22 OFFCURVE",
"110 27 OFFCURVE",
"73 28 CURVE"
);
}
);
width = 621;
}
);
note = Dcroat;
unicode = 0110;
},
{
glyphname = Ddotbelow;
lastChange = "2018-03-13 07:06:36 +0000";
layers = (
{
anchors = (
{
name = bottom;
position = "{248, -140}";
},
{
name = center;
position = "{325, 350}";
},
{
name = top;
position = "{381, 700}";
}
);
layerId = "A732778C-A9DB-4576-83EA-D63CA8B0AAB2";
paths = (
{
closed = 1;
nodes = (
"30 -2 LINE",
"80 -2 OFFCURVE",
"149 -10 OFFCURVE",
"197 -10 CURVE SMOOTH",
"438 -10 OFFCURVE",
"592 182 OFFCURVE",
"592 415 CURVE SMOOTH",
"592 604 OFFCURVE",
"490 710 OFFCURVE",
"309 710 CURVE SMOOTH",
"265 710 OFFCURVE",
"191 704 OFFCURVE",
"142 704 CURVE",
"133 691 LINE",
"140 672 OFFCURVE",
"143 650 OFFCURVE",
"143 626 CURVE SMOOTH",
"143 596 OFFCURVE",
"138 561 OFFCURVE",
"131 514 CURVE SMOOTH",
"80 188 LINE SMOOTH",
"66 100 OFFCURVE",
"52 52 OFFCURVE",
"26 11 CURVE"
);
},
{
closed = 1;
nodes = (
"97 71 OFFCURVE",
"111 142 OFFCURVE",
"118 188 CURVE SMOOTH",
"169 514 LINE SMOOTH",
"175 551 OFFCURVE",
"180 586 OFFCURVE",
"180 622 CURVE SMOOTH",
"180 640 OFFCURVE",
"179 657 OFFCURVE",
"175 672 CURVE",
"212 673 OFFCURVE",
"274 678 OFFCURVE",
"310 678 CURVE SMOOTH",
"464 678 OFFCURVE",
"553 587 OFFCURVE",
"553 418 CURVE SMOOTH",
"553 213 OFFCURVE",
"421 22 OFFCURVE",
"205 22 CURVE SMOOTH",
"171 22 OFFCURVE",
"110 27 OFFCURVE",
"73 28 CURVE"
);
},
{
closed = 1;
nodes = (
"214 -125 OFFCURVE",
"228 -138 OFFCURVE",
"248 -138 CURVE SMOOTH",
"275 -138 OFFCURVE",
"294 -119 OFFCURVE",
"294 -92 CURVE SMOOTH",
"294 -73 OFFCURVE",
"281 -60 OFFCURVE",
"260 -60 CURVE SMOOTH",
"233 -60 OFFCURVE",
"214 -79 OFFCURVE",
"214 -105 CURVE SMOOTH"
);
}
);
width = 621;
}
);
note = Ddotbelow;
rightKerningGroup = D;
unicode = 1E0C;
},
{
glyphname = Dlinebelow;
lastChange = "2018-03-13 07:06:36 +0000";
layers = (
{
anchors = (
{
name = bottom;
position = "{254, -102}";
},
{
name = center;
position = "{325, 350}";
},
{
name = top;
position = "{381, 700}";
}
);
layerId = "A732778C-A9DB-4576-83EA-D63CA8B0AAB2";
paths = (
{
closed = 1;
nodes = (
"30 -2 LINE",
"80 -2 OFFCURVE",
"149 -10 OFFCURVE",
"197 -10 CURVE SMOOTH",
"438 -10 OFFCURVE",
"592 182 OFFCURVE",
"592 415 CURVE SMOOTH",
"592 604 OFFCURVE",
"490 710 OFFCURVE",
"309 710 CURVE SMOOTH",
"265 710 OFFCURVE",
"191 704 OFFCURVE",
"142 704 CURVE",
"133 691 LINE",
"140 672 OFFCURVE",
"143 650 OFFCURVE",
"143 626 CURVE SMOOTH",
"143 596 OFFCURVE",
"138 561 OFFCURVE",
"131 514 CURVE SMOOTH",
"80 188 LINE SMOOTH",
"66 100 OFFCURVE",
"52 52 OFFCURVE",
"26 11 CURVE"
);
},
{
closed = 1;
nodes = (
"97 71 OFFCURVE",
"111 142 OFFCURVE",
"118 188 CURVE SMOOTH",
"169 514 LINE SMOOTH",
"175 551 OFFCURVE",
"180 586 OFFCURVE",
"180 622 CURVE SMOOTH",
"180 640 OFFCURVE",
"179 657 OFFCURVE",
"175 672 CURVE",
"212 673 OFFCURVE",
"274 678 OFFCURVE",
"310 678 CURVE SMOOTH",
"464 678 OFFCURVE",
"553 587 OFFCURVE",
"553 418 CURVE SMOOTH",
"553 213 OFFCURVE",
"421 22 OFFCURVE",
"205 22 CURVE SMOOTH",
"171 22 OFFCURVE",
"110 27 OFFCURVE",
"73 28 CURVE"
);
},
{
closed = 1;
nodes = (
"406 -102 LINE",
"411 -72 LINE",
"107 -72 LINE",
"102 -102 LINE"
);
}
);
width = 621;
}
);
note = Dlinebelow;
rightKerningGroup = D;
unicode = 1E0E;
},
{
glyphname = E;
lastChange = "2018-03-13 07:06:36 +0000";
layers = (
{
anchors = (
{
name = bottom;
position = "{230, 0}";
},
{
name = ogonek;
position = "{392, 10}";
},
{
name = top;
position = "{321, 700}";
},
{
name = topleft;
position = "{91, 700}";
}
);
layerId = "A732778C-A9DB-4576-83EA-D63CA8B0AAB2";
paths = (
{
closed = 1;
nodes = (
"30 0 LINE",
"397 0 LINE SMOOTH",
"415 0 OFFCURVE",
"427 7 OFFCURVE",
"429 20 CURVE",
"430 24 OFFCURVE",
"429 28 OFFCURVE",
"428 32 CURVE",
"76 32 LINE",
"97 74 OFFCURVE",
"109 136 OFFCURVE",
"118 188 CURVE SMOOTH",
"144 355 LINE",
"405 355 LINE SMOOTH",
"423 355 OFFCURVE",
"435 361 OFFCURVE",
"437 374 CURVE",
"438 378 OFFCURVE",
"438 382 OFFCURVE",
"436 386 CURVE",
"149 386 LINE",
"169 514 LINE SMOOTH",
"178 566 OFFCURVE",
"185 626 OFFCURVE",
"176 668 CURVE",
"487 668 LINE SMOOTH",
"505 668 OFFCURVE",
"517 675 OFFCURVE",
"519 688 CURVE",
"520 692 OFFCURVE",
"519 696 OFFCURVE",
"518 700 CURVE",
"141 700 LINE",
"133 687 LINE",
"146 646 OFFCURVE",
"145 602 OFFCURVE",
"131 514 CURVE SMOOTH",
"80 188 LINE SMOOTH",
"66 100 OFFCURVE",
"53 54 OFFCURVE",
"26 13 CURVE"
);
}
);
width = 500;
}
);
leftKerningGroup = E;
note = E;
rightKerningGroup = E;
unicode = 0045;
},
{
glyphname = Eacute;
lastChange = "2018-03-13 07:06:36 +0000";
layers = (
{
anchors = (
{
name = bottom;
position = "{230, 0}";
},
{
name = ogonek;
position = "{392, 10}";
},
{
name = top;
position = "{402, 890}";
},
{
name = topleft;
position = "{91, 700}";
}
);
layerId = "A732778C-A9DB-4576-83EA-D63CA8B0AAB2";
paths = (
{
closed = 1;
nodes = (
"30 0 LINE",
"397 0 LINE SMOOTH",
"415 0 OFFCURVE",
"427 7 OFFCURVE",
"429 20 CURVE",
"430 24 OFFCURVE",
"429 28 OFFCURVE",
"428 32 CURVE",
"76 32 LINE",
"97 74 OFFCURVE",
"109 136 OFFCURVE",
"118 188 CURVE SMOOTH",
"144 355 LINE",
"405 355 LINE SMOOTH",
"423 355 OFFCURVE",
"435 361 OFFCURVE",
"437 374 CURVE",
"438 378 OFFCURVE",
"438 382 OFFCURVE",
"436 386 CURVE",
"149 386 LINE",
"169 514 LINE SMOOTH",
"178 566 OFFCURVE",
"185 626 OFFCURVE",
"176 668 CURVE",
"487 668 LINE SMOOTH",
"505 668 OFFCURVE",
"517 675 OFFCURVE",
"519 688 CURVE",
"520 692 OFFCURVE",
"519 696 OFFCURVE",
"518 700 CURVE",
"141 700 LINE",
"133 687 LINE",
"146 646 OFFCURVE",
"145 602 OFFCURVE",
"131 514 CURVE SMOOTH",
"80 188 LINE SMOOTH",
"66 100 OFFCURVE",
"53 54 OFFCURVE",
"26 13 CURVE"
);
},
{
closed = 1;
nodes = (
"309 752 LINE",
"424 890 LINE",
"380 890 LINE",
"293 752 LINE"
);
}
);
width = 500;
}
);
note = Eacute;
unicode = 00C9;
},
{
glyphname = Ebreve;
lastChange = "2018-03-13 07:06:36 +0000";
layers = (
{
anchors = (
{
name = bottom;
position = "{230, 0}";
},
{
name = ogonek;
position = "{392, 10}";
},
{
name = top;
position = "{348, 870}";
},
{
name = topleft;
position = "{91, 700}";
}
);
layerId = "A732778C-A9DB-4576-83EA-D63CA8B0AAB2";
paths = (
{
closed = 1;
nodes = (
"30 0 LINE",
"397 0 LINE SMOOTH",
"415 0 OFFCURVE",
"427 7 OFFCURVE",
"429 20 CURVE",
"430 24 OFFCURVE",
"429 28 OFFCURVE",
"428 32 CURVE",
"76 32 LINE",
"97 74 OFFCURVE",
"109 136 OFFCURVE",
"118 188 CURVE SMOOTH",
"144 355 LINE",
"405 355 LINE SMOOTH",
"423 355 OFFCURVE",
"435 361 OFFCURVE",
"437 374 CURVE",
"438 378 OFFCURVE",
"438 382 OFFCURVE",
"436 386 CURVE",
"149 386 LINE",
"169 514 LINE SMOOTH",
"178 566 OFFCURVE",
"185 626 OFFCURVE",
"176 668 CURVE",
"487 668 LINE SMOOTH",
"505 668 OFFCURVE",
"517 675 OFFCURVE",
"519 688 CURVE",
"520 692 OFFCURVE",
"519 696 OFFCURVE",
"518 700 CURVE",
"141 700 LINE",
"133 687 LINE",
"146 646 OFFCURVE",
"145 602 OFFCURVE",
"131 514 CURVE SMOOTH",
"80 188 LINE SMOOTH",
"66 100 OFFCURVE",
"53 54 OFFCURVE",
"26 13 CURVE"
);
},
{
closed = 1;
nodes = (
"209 794 OFFCURVE",
"259 746 OFFCURVE",
"335 746 CURVE SMOOTH",
"411 746 OFFCURVE",
"463 794 OFFCURVE",
"478 870 CURVE",
"454 870 LINE",
"440 817 OFFCURVE",
"394 784 OFFCURVE",
"334 784 CURVE SMOOTH",
"274 784 OFFCURVE",
"238 817 OFFCURVE",
"242 870 CURVE",
"218 870 LINE"
);
}
);
width = 500;
}
);
note = Ebreve;
unicode = 0114;
},
{
glyphname = Ecaron;
lastChange = "2018-03-13 07:06:36 +0000";
layers = (
{
anchors = (
{
name = bottom;
position = "{230, 0}";
},
{
name = ogonek;
position = "{392, 10}";
},
{
name = top;
position = "{351, 890}";
},
{
name = topleft;
position = "{91, 700}";
}
);
layerId = "A732778C-A9DB-4576-83EA-D63CA8B0AAB2";
paths = (
{
closed = 1;
nodes = (
"30 0 LINE",
"397 0 LINE SMOOTH",
"415 0 OFFCURVE",
"427 7 OFFCURVE",
"429 20 CURVE",
"430 24 OFFCURVE",
"429 28 OFFCURVE",
"428 32 CURVE",
"76 32 LINE",
"97 74 OFFCURVE",
"109 136 OFFCURVE",
"118 188 CURVE SMOOTH",
"144 355 LINE",
"405 355 LINE SMOOTH",
"423 355 OFFCURVE",
"435 361 OFFCURVE",
"437 374 CURVE",
"438 378 OFFCURVE",
"438 382 OFFCURVE",
"436 386 CURVE",
"149 386 LINE",
"169 514 LINE SMOOTH",
"178 566 OFFCURVE",
"185 626 OFFCURVE",
"176 668 CURVE",
"487 668 LINE SMOOTH",
"505 668 OFFCURVE",
"517 675 OFFCURVE",
"519 688 CURVE",
"520 692 OFFCURVE",
"519 696 OFFCURVE",
"518 700 CURVE",
"141 700 LINE",
"133 687 LINE",
"146 646 OFFCURVE",
"145 602 OFFCURVE",
"131 514 CURVE SMOOTH",
"80 188 LINE SMOOTH",
"66 100 OFFCURVE",
"53 54 OFFCURVE",
"26 13 CURVE"
);
},
{
closed = 1;
nodes = (
"305 752 LINE",
"353 752 LINE",
"481 890 LINE",
"465 890 LINE",
"333 792 LINE",
"237 890 LINE",
"221 890 LINE"
);
}
);
width = 500;
}
);
note = Ecaron;
unicode = 011A;
},
{
glyphname = Ecircumflex;
lastChange = "2018-03-13 07:06:36 +0000";
layers = (
{
anchors = (
{
name = bottom;
position = "{230, 0}";
},
{
name = ogonek;
position = "{392, 10}";
},
{
name = top;
position = "{351, 890}";
},
{
name = topleft;
position = "{91, 700}";
}
);
layerId = "A732778C-A9DB-4576-83EA-D63CA8B0AAB2";
paths = (
{
closed = 1;
nodes = (
"30 0 LINE",
"397 0 LINE SMOOTH",
"415 0 OFFCURVE",
"427 7 OFFCURVE",
"429 20 CURVE",
"430 24 OFFCURVE",
"429 28 OFFCURVE",
"428 32 CURVE",
"76 32 LINE",
"97 74 OFFCURVE",
"109 136 OFFCURVE",
"118 188 CURVE SMOOTH",
"144 355 LINE",
"405 355 LINE SMOOTH",
"423 355 OFFCURVE",
"435 361 OFFCURVE",
"437 374 CURVE",
"438 378 OFFCURVE",
"438 382 OFFCURVE",
"436 386 CURVE",
"149 386 LINE",
"169 514 LINE SMOOTH",
"178 566 OFFCURVE",
"185 626 OFFCURVE",
"176 668 CURVE",
"487 668 LINE SMOOTH",
"505 668 OFFCURVE",
"517 675 OFFCURVE",
"519 688 CURVE",
"520 692 OFFCURVE",
"519 696 OFFCURVE",
"518 700 CURVE",
"141 700 LINE",
"133 687 LINE",
"146 646 OFFCURVE",
"145 602 OFFCURVE",
"131 514 CURVE SMOOTH",
"80 188 LINE SMOOTH",
"66 100 OFFCURVE",
"53 54 OFFCURVE",
"26 13 CURVE"
);
},
{
closed = 1;
nodes = (
"215 752 LINE",
"347 850 LINE",
"443 752 LINE",
"459 752 LINE",
"375 890 LINE",
"327 890 LINE",
"199 752 LINE"
);
}
);
width = 500;
}
);
note = Ecircumflex;
unicode = 00CA;
},
{
glyphname = Ecircumflexacute;
lastChange = "2018-03-13 07:06:36 +0000";
layers = (
{
anchors = (
{
name = bottom;
position = "{230, 0}";
},
{
name = ogonek;
position = "{392, 10}";
},
{
name = top;
position = "{361, 954}";
},
{
name = topleft;
position = "{91, 700}";
}
);
layerId = "A732778C-A9DB-4576-83EA-D63CA8B0AAB2";
paths = (
{
closed = 1;
nodes = (
"30 0 LINE",
"397 0 LINE SMOOTH",
"415 0 OFFCURVE",
"427 7 OFFCURVE",
"429 20 CURVE",
"430 24 OFFCURVE",
"429 28 OFFCURVE",
"428 32 CURVE",
"76 32 LINE",
"97 74 OFFCURVE",
"109 136 OFFCURVE",
"118 188 CURVE SMOOTH",
"144 355 LINE",
"405 355 LINE SMOOTH",
"423 355 OFFCURVE",
"435 361 OFFCURVE",
"437 374 CURVE",
"438 378 OFFCURVE",
"438 382 OFFCURVE",
"436 386 CURVE",
"149 386 LINE",
"169 514 LINE SMOOTH",
"178 566 OFFCURVE",
"185 626 OFFCURVE",
"176 668 CURVE",
"487 668 LINE SMOOTH",
"505 668 OFFCURVE",
"517 675 OFFCURVE",
"519 688 CURVE",
"520 692 OFFCURVE",
"519 696 OFFCURVE",
"518 700 CURVE",
"141 700 LINE",
"133 687 LINE",
"146 646 OFFCURVE",
"145 602 OFFCURVE",
"131 514 CURVE SMOOTH",
"80 188 LINE SMOOTH",
"66 100 OFFCURVE",
"53 54 OFFCURVE",
"26 13 CURVE"
);
},
{
closed = 1;
nodes = (
"215 752 LINE",
"347 850 LINE",
"443 752 LINE",
"459 752 LINE",
"375 890 LINE",
"327 890 LINE",
"199 752 LINE"
);
},
{
closed = 1;
nodes = (
"444 839 LINE",
"559 949 LINE",
"515 949 LINE",
"428 839 LINE"
);
}
);
width = 500;
}
);
note = Ecircumflexacute;
unicode = 1EBE;
},
{
glyphname = Ecircumflexdotbelow;
lastChange = "2018-03-13 07:06:36 +0000";
layers = (
{
anchors = (
{
name = bottom;
position = "{208, -140}";
},
{
name = ogonek;
position = "{392, 10}";
},
{
name = top;
position = "{351, 890}";
},
{
name = topleft;
position = "{91, 700}";
}
);
layerId = "A732778C-A9DB-4576-83EA-D63CA8B0AAB2";
paths = (
{
closed = 1;
nodes = (
"30 0 LINE",
"397 0 LINE SMOOTH",
"415 0 OFFCURVE",
"427 7 OFFCURVE",
"429 20 CURVE",
"430 24 OFFCURVE",
"429 28 OFFCURVE",
"428 32 CURVE",
"76 32 LINE",
"97 74 OFFCURVE",
"109 136 OFFCURVE",
"118 188 CURVE SMOOTH",
"144 355 LINE",
"405 355 LINE SMOOTH",
"423 355 OFFCURVE",
"435 361 OFFCURVE",
"437 374 CURVE",
"438 378 OFFCURVE",
"438 382 OFFCURVE",
"436 386 CURVE",
"149 386 LINE",
"169 514 LINE SMOOTH",
"178 566 OFFCURVE",
"185 626 OFFCURVE",
"176 668 CURVE",
"487 668 LINE SMOOTH",
"505 668 OFFCURVE",
"517 675 OFFCURVE",
"519 688 CURVE",
"520 692 OFFCURVE",
"519 696 OFFCURVE",
"518 700 CURVE",
"141 700 LINE",
"133 687 LINE",
"146 646 OFFCURVE",
"145 602 OFFCURVE",
"131 514 CURVE SMOOTH",
"80 188 LINE SMOOTH",
"66 100 OFFCURVE",
"53 54 OFFCURVE",
"26 13 CURVE"
);
},
{
closed = 1;
nodes = (
"174 -125 OFFCURVE",
"188 -138 OFFCURVE",
"208 -138 CURVE SMOOTH",
"235 -138 OFFCURVE",
"254 -119 OFFCURVE",
"254 -92 CURVE SMOOTH",
"254 -73 OFFCURVE",
"241 -60 OFFCURVE",
"220 -60 CURVE SMOOTH",
"193 -60 OFFCURVE",
"174 -79 OFFCURVE",
"174 -105 CURVE SMOOTH"
);
},
{
closed = 1;
nodes = (
"215 752 LINE",
"347 850 LINE",
"443 752 LINE",
"459 752 LINE",
"375 890 LINE",
"327 890 LINE",
"199 752 LINE"
);
}
);
width = 500;
}
);
note = Ecircumflexdotbelow;
unicode = 1EC6;
},
{
glyphname = Ecircumflexgrave;
lastChange = "2018-03-13 07:06:36 +0000";
layers = (
{
anchors = (
{
name = bottom;
position = "{230, 0}";
},
{
name = ogonek;
position = "{392, 10}";
},
{
name = top;
position = "{361, 954}";
},
{
name = topleft;
position = "{91, 700}";
}
);
layerId = "A732778C-A9DB-4576-83EA-D63CA8B0AAB2";
paths = (
{
closed = 1;
nodes = (
"30 0 LINE",
"397 0 LINE SMOOTH",
"415 0 OFFCURVE",
"427 7 OFFCURVE",
"429 20 CURVE",
"430 24 OFFCURVE",
"429 28 OFFCURVE",
"428 32 CURVE",
"76 32 LINE",
"97 74 OFFCURVE",
"109 136 OFFCURVE",
"118 188 CURVE SMOOTH",
"144 355 LINE",
"405 355 LINE SMOOTH",
"423 355 OFFCURVE",
"435 361 OFFCURVE",
"437 374 CURVE",
"438 378 OFFCURVE",
"438 382 OFFCURVE",
"436 386 CURVE",
"149 386 LINE",
"169 514 LINE SMOOTH",
"178 566 OFFCURVE",
"185 626 OFFCURVE",
"176 668 CURVE",
"487 668 LINE SMOOTH",
"505 668 OFFCURVE",
"517 675 OFFCURVE",
"519 688 CURVE",
"520 692 OFFCURVE",
"519 696 OFFCURVE",
"518 700 CURVE",
"141 700 LINE",
"133 687 LINE",
"146 646 OFFCURVE",
"145 602 OFFCURVE",
"131 514 CURVE SMOOTH",
"80 188 LINE SMOOTH",
"66 100 OFFCURVE",
"53 54 OFFCURVE",
"26 13 CURVE"
);
},
{
closed = 1;
nodes = (
"215 752 LINE",
"347 850 LINE",
"443 752 LINE",
"459 752 LINE",
"375 890 LINE",
"327 890 LINE",
"199 752 LINE"
);
},
{
closed = 1;
nodes = (
"458 839 LINE",
"474 839 LINE",
"431 949 LINE",
"387 949 LINE"
);
}
);
width = 500;
}
);
note = Ecircumflexgrave;
unicode = 1EC0;
},
{
glyphname = Ecircumflexhookabove;
lastChange = "2018-03-13 07:06:36 +0000";
layers = (
{
anchors = (
{
name = bottom;
position = "{230, 0}";
},
{
name = ogonek;
position = "{392, 10}";
},
{
name = top;
position = "{363, 966}";
},
{
name = topleft;
position = "{91, 700}";
}
);
layerId = "A732778C-A9DB-4576-83EA-D63CA8B0AAB2";
paths = (
{
closed = 1;
nodes = (
"30 0 LINE",
"397 0 LINE SMOOTH",
"415 0 OFFCURVE",
"427 7 OFFCURVE",
"429 20 CURVE",
"430 24 OFFCURVE",
"429 28 OFFCURVE",
"428 32 CURVE",
"76 32 LINE",
"97 74 OFFCURVE",
"109 136 OFFCURVE",
"118 188 CURVE SMOOTH",
"144 355 LINE",
"405 355 LINE SMOOTH",
"423 355 OFFCURVE",
"435 361 OFFCURVE",
"437 374 CURVE",
"438 378 OFFCURVE",
"438 382 OFFCURVE",
"436 386 CURVE",
"149 386 LINE",
"169 514 LINE SMOOTH",
"178 566 OFFCURVE",
"185 626 OFFCURVE",
"176 668 CURVE",
"487 668 LINE SMOOTH",
"505 668 OFFCURVE",
"517 675 OFFCURVE",
"519 688 CURVE",
"520 692 OFFCURVE",
"519 696 OFFCURVE",
"518 700 CURVE",
"141 700 LINE",
"133 687 LINE",
"146 646 OFFCURVE",
"145 602 OFFCURVE",
"131 514 CURVE SMOOTH",
"80 188 LINE SMOOTH",
"66 100 OFFCURVE",
"53 54 OFFCURVE",
"26 13 CURVE"
);
},
{
closed = 1;
nodes = (
"215 752 LINE",
"347 850 LINE",
"443 752 LINE",
"459 752 LINE",
"375 890 LINE",
"327 890 LINE",
"199 752 LINE"
);
},
{
closed = 1;
nodes = (
"438 944 OFFCURVE",
"449 948 OFFCURVE",
"461 948 CURVE SMOOTH",
"483 948 OFFCURVE",
"492 936 OFFCURVE",
"492 923 CURVE SMOOTH",
"492 903 OFFCURVE",
"470 867 OFFCURVE",
"430 840 CURVE",
"450 840 LINE",
"505 869 OFFCURVE",
"525 903 OFFCURVE",
"525 931 CURVE SMOOTH",
"525 957 OFFCURVE",
"504 972 OFFCURVE",
"475 972 CURVE SMOOTH",
"460 972 OFFCURVE",
"444 968 OFFCURVE",
"429 962 CURVE",
"426 940 LINE"
);
}
);
width = 500;
}
);
note = Ecircumflexhookabove;
unicode = 1EC2;
},
{
glyphname = Ecircumflextilde;
lastChange = "2018-03-13 07:06:36 +0000";
layers = (
{
anchors = (
{
name = bottom;
position = "{230, 0}";
},
{
name = ogonek;
position = "{392, 10}";
},
{
name = top;
position = "{370, 1013}";
},
{
name = topleft;
position = "{91, 700}";
}
);
layerId = "A732778C-A9DB-4576-83EA-D63CA8B0AAB2";
paths = (
{
closed = 1;
nodes = (
"30 0 LINE",
"397 0 LINE SMOOTH",
"415 0 OFFCURVE",
"427 7 OFFCURVE",
"429 20 CURVE",
"430 24 OFFCURVE",
"429 28 OFFCURVE",
"428 32 CURVE",
"76 32 LINE",
"97 74 OFFCURVE",
"109 136 OFFCURVE",
"118 188 CURVE SMOOTH",
"144 355 LINE",
"405 355 LINE SMOOTH",
"423 355 OFFCURVE",
"435 361 OFFCURVE",
"437 374 CURVE",
"438 378 OFFCURVE",
"438 382 OFFCURVE",
"436 386 CURVE",
"149 386 LINE",
"169 514 LINE SMOOTH",
"178 566 OFFCURVE",
"185 626 OFFCURVE",
"176 668 CURVE",
"487 668 LINE SMOOTH",
"505 668 OFFCURVE",
"517 675 OFFCURVE",
"519 688 CURVE",
"520 692 OFFCURVE",
"519 696 OFFCURVE",
"518 700 CURVE",
"141 700 LINE",
"133 687 LINE",
"146 646 OFFCURVE",
"145 602 OFFCURVE",
"131 514 CURVE SMOOTH",
"80 188 LINE SMOOTH",
"66 100 OFFCURVE",
"53 54 OFFCURVE",
"26 13 CURVE"
);
},
{
closed = 1;
nodes = (
"215 752 LINE",
"347 850 LINE",
"443 752 LINE",
"459 752 LINE",
"375 890 LINE",
"327 890 LINE",
"199 752 LINE"
);
},
{
closed = 1;
nodes = (
"263 926 LINE",
"273 959 OFFCURVE",
"292 977 OFFCURVE",
"313 977 CURVE SMOOTH",
"347 977 OFFCURVE",
"360 926 OFFCURVE",
"410 926 CURVE SMOOTH",
"447 926 OFFCURVE",
"478 955 OFFCURVE",
"489 1001 CURVE",
"467 1001 LINE",
"456 968 OFFCURVE",
"435 950 OFFCURVE",
"414 950 CURVE SMOOTH",
"380 950 OFFCURVE",
"367 1001 OFFCURVE",
"318 1001 CURVE SMOOTH",
"281 1001 OFFCURVE",
"252 972 OFFCURVE",
"240 926 CURVE"
);
}
);
width = 500;
}
);
note = Ecircumflextilde;
unicode = 1EC4;
},
{
glyphname = Edieresis;
lastChange = "2018-03-13 07:06:36 +0000";
layers = (
{
anchors = (
{
name = bottom;
position = "{230, 0}";
},
{
name = ogonek;
position = "{392, 10}";
},
{
name = top;
position = "{342, 834}";
},
{
name = topleft;
position = "{91, 700}";
}
);
layerId = "A732778C-A9DB-4576-83EA-D63CA8B0AAB2";
paths = (
{
closed = 1;
nodes = (
"30 0 LINE",
"397 0 LINE SMOOTH",
"415 0 OFFCURVE",
"427 7 OFFCURVE",
"429 20 CURVE",
"430 24 OFFCURVE",
"429 28 OFFCURVE",
"428 32 CURVE",
"76 32 LINE",
"97 74 OFFCURVE",
"109 136 OFFCURVE",
"118 188 CURVE SMOOTH",
"144 355 LINE",
"405 355 LINE SMOOTH",
"423 355 OFFCURVE",
"435 361 OFFCURVE",
"437 374 CURVE",
"438 378 OFFCURVE",
"438 382 OFFCURVE",
"436 386 CURVE",
"149 386 LINE",
"169 514 LINE SMOOTH",
"178 566 OFFCURVE",
"185 626 OFFCURVE",
"176 668 CURVE",
"487 668 LINE SMOOTH",
"505 668 OFFCURVE",
"517 675 OFFCURVE",
"519 688 CURVE",
"520 692 OFFCURVE",
"519 696 OFFCURVE",
"518 700 CURVE",
"141 700 LINE",
"133 687 LINE",
"146 646 OFFCURVE",
"145 602 OFFCURVE",
"131 514 CURVE SMOOTH",
"80 188 LINE SMOOTH",
"66 100 OFFCURVE",
"53 54 OFFCURVE",
"26 13 CURVE"
);
},
{
closed = 1;
nodes = (
"224 765 OFFCURVE",
"238 752 OFFCURVE",
"258 752 CURVE SMOOTH",
"285 752 OFFCURVE",
"304 771 OFFCURVE",
"304 798 CURVE SMOOTH",
"304 817 OFFCURVE",
"291 830 OFFCURVE",
"270 830 CURVE SMOOTH",
"243 830 OFFCURVE",
"224 811 OFFCURVE",
"224 785 CURVE SMOOTH"
);
},
{
closed = 1;
nodes = (
"365 765 OFFCURVE",
"379 752 OFFCURVE",
"399 752 CURVE SMOOTH",
"426 752 OFFCURVE",
"445 771 OFFCURVE",
"445 798 CURVE SMOOTH",
"445 817 OFFCURVE",
"432 830 OFFCURVE",
"411 830 CURVE SMOOTH",
"384 830 OFFCURVE",
"365 811 OFFCURVE",
"365 785 CURVE SMOOTH"
);
}
);
width = 500;
}
);
note = Edieresis;
unicode = 00CB;
},
{
glyphname = Edotaccent;
lastChange = "2018-03-13 07:06:36 +0000";
layers = (
{
anchors = (
{
name = bottom;
position = "{230, 0}";
},
{
name = ogonek;
position = "{392, 10}";
},
{
name = top;
position = "{344, 843}";
},
{
name = topleft;
position = "{91, 700}";
}
);
layerId = "A732778C-A9DB-4576-83EA-D63CA8B0AAB2";
paths = (
{
closed = 1;
nodes = (
"30 0 LINE",
"397 0 LINE SMOOTH",
"415 0 OFFCURVE",
"427 7 OFFCURVE",
"429 20 CURVE",
"430 24 OFFCURVE",
"429 28 OFFCURVE",
"428 32 CURVE",
"76 32 LINE",
"97 74 OFFCURVE",
"109 136 OFFCURVE",
"118 188 CURVE SMOOTH",
"144 355 LINE",
"405 355 LINE SMOOTH",
"423 355 OFFCURVE",
"435 361 OFFCURVE",
"437 374 CURVE",
"438 378 OFFCURVE",
"438 382 OFFCURVE",
"436 386 CURVE",
"149 386 LINE",
"169 514 LINE SMOOTH",
"178 566 OFFCURVE",
"185 626 OFFCURVE",
"176 668 CURVE",
"487 668 LINE SMOOTH",
"505 668 OFFCURVE",
"517 675 OFFCURVE",
"519 688 CURVE",
"520 692 OFFCURVE",
"519 696 OFFCURVE",
"518 700 CURVE",
"141 700 LINE",
"133 687 LINE",
"146 646 OFFCURVE",
"145 602 OFFCURVE",
"131 514 CURVE SMOOTH",
"80 188 LINE SMOOTH",
"66 100 OFFCURVE",
"53 54 OFFCURVE",
"26 13 CURVE"
);
},
{
closed = 1;
nodes = (
"294 769 OFFCURVE",
"308 755 OFFCURVE",
"330 755 CURVE SMOOTH",
"360 755 OFFCURVE",
"380 775 OFFCURVE",
"380 805 CURVE SMOOTH",
"380 825 OFFCURVE",
"366 839 OFFCURVE",
"344 839 CURVE SMOOTH",
"314 839 OFFCURVE",
"294 819 OFFCURVE",
"294 789 CURVE SMOOTH"
);
}
);
width = 500;
}
);
note = Edotaccent;
unicode = 0116;
},
{
glyphname = Edotbelow;
lastChange = "2018-03-13 07:06:36 +0000";
layers = (
{
anchors = (
{
name = bottom;
position = "{208, -140}";
},
{
name = ogonek;
position = "{392, 10}";
},
{
name = top;
position = "{321, 700}";
},
{
name = topleft;
position = "{91, 700}";
}
);
layerId = "A732778C-A9DB-4576-83EA-D63CA8B0AAB2";
paths = (
{
closed = 1;
nodes = (
"30 0 LINE",
"397 0 LINE SMOOTH",
"415 0 OFFCURVE",
"427 7 OFFCURVE",
"429 20 CURVE",
"430 24 OFFCURVE",
"429 28 OFFCURVE",
"428 32 CURVE",
"76 32 LINE",
"97 74 OFFCURVE",
"109 136 OFFCURVE",
"118 188 CURVE SMOOTH",
"144 355 LINE",
"405 355 LINE SMOOTH",
"423 355 OFFCURVE",
"435 361 OFFCURVE",
"437 374 CURVE",
"438 378 OFFCURVE",
"438 382 OFFCURVE",
"436 386 CURVE",
"149 386 LINE",
"169 514 LINE SMOOTH",
"178 566 OFFCURVE",
"185 626 OFFCURVE",
"176 668 CURVE",
"487 668 LINE SMOOTH",
"505 668 OFFCURVE",
"517 675 OFFCURVE",
"519 688 CURVE",
"520 692 OFFCURVE",
"519 696 OFFCURVE",
"518 700 CURVE",
"141 700 LINE",
"133 687 LINE",
"146 646 OFFCURVE",
"145 602 OFFCURVE",
"131 514 CURVE SMOOTH",
"80 188 LINE SMOOTH",
"66 100 OFFCURVE",
"53 54 OFFCURVE",
"26 13 CURVE"
);
},
{
closed = 1;
nodes = (
"174 -125 OFFCURVE",
"188 -138 OFFCURVE",
"208 -138 CURVE SMOOTH",
"235 -138 OFFCURVE",
"254 -119 OFFCURVE",
"254 -92 CURVE SMOOTH",
"254 -73 OFFCURVE",
"241 -60 OFFCURVE",
"220 -60 CURVE SMOOTH",
"193 -60 OFFCURVE",
"174 -79 OFFCURVE",
"174 -105 CURVE SMOOTH"
);
}
);
width = 500;
}
);
note = Edotbelow;
unicode = 1EB8;
},
{
glyphname = Egrave;
lastChange = "2018-03-13 07:06:36 +0000";
layers = (
{
anchors = (
{
name = bottom;
position = "{230, 0}";
},
{
name = ogonek;
position = "{392, 10}";
},
{
name = top;
position = "{300, 890}";
},
{
name = topleft;
position = "{91, 700}";
}
);
layerId = "A732778C-A9DB-4576-83EA-D63CA8B0AAB2";
paths = (
{
closed = 1;
nodes = (
"30 0 LINE",
"397 0 LINE SMOOTH",
"415 0 OFFCURVE",
"427 7 OFFCURVE",
"429 20 CURVE",
"430 24 OFFCURVE",
"429 28 OFFCURVE",
"428 32 CURVE",
"76 32 LINE",
"97 74 OFFCURVE",
"109 136 OFFCURVE",
"118 188 CURVE SMOOTH",
"144 355 LINE",
"405 355 LINE SMOOTH",
"423 355 OFFCURVE",
"435 361 OFFCURVE",
"437 374 CURVE",
"438 378 OFFCURVE",
"438 382 OFFCURVE",
"436 386 CURVE",
"149 386 LINE",
"169 514 LINE SMOOTH",
"178 566 OFFCURVE",
"185 626 OFFCURVE",
"176 668 CURVE",
"487 668 LINE SMOOTH",
"505 668 OFFCURVE",
"517 675 OFFCURVE",
"519 688 CURVE",
"520 692 OFFCURVE",
"519 696 OFFCURVE",
"518 700 CURVE",
"141 700 LINE",
"133 687 LINE",
"146 646 OFFCURVE",
"145 602 OFFCURVE",
"131 514 CURVE SMOOTH",
"80 188 LINE SMOOTH",
"66 100 OFFCURVE",
"53 54 OFFCURVE",
"26 13 CURVE"
);
},
{
closed = 1;
nodes = (
"349 752 LINE",
"365 752 LINE",
"322 890 LINE",
"278 890 LINE"
);
}
);
width = 500;
}
);
note = Egrave;
unicode = 00C8;
},
{
glyphname = Ehookabove;
lastChange = "2018-03-13 07:06:36 +0000";
layers = (
{
anchors = (
{
name = bottom;
position = "{230, 0}";
},
{
name = ogonek;
position = "{392, 10}";
},
{
name = top;
position = "{363, 917}";
},
{
name = topleft;
position = "{91, 700}";
}
);
layerId = "A732778C-A9DB-4576-83EA-D63CA8B0AAB2";
paths = (
{
closed = 1;
nodes = (
"30 0 LINE",
"397 0 LINE SMOOTH",
"415 0 OFFCURVE",
"427 7 OFFCURVE",
"429 20 CURVE",
"430 24 OFFCURVE",
"429 28 OFFCURVE",
"428 32 CURVE",
"76 32 LINE",
"97 74 OFFCURVE",
"109 136 OFFCURVE",
"118 188 CURVE SMOOTH",
"144 355 LINE",
"405 355 LINE SMOOTH",
"423 355 OFFCURVE",
"435 361 OFFCURVE",
"437 374 CURVE",
"438 378 OFFCURVE",
"438 382 OFFCURVE",
"436 386 CURVE",
"149 386 LINE",
"169 514 LINE SMOOTH",
"178 566 OFFCURVE",
"185 626 OFFCURVE",
"176 668 CURVE",
"487 668 LINE SMOOTH",
"505 668 OFFCURVE",
"517 675 OFFCURVE",
"519 688 CURVE",
"520 692 OFFCURVE",
"519 696 OFFCURVE",
"518 700 CURVE",
"141 700 LINE",
"133 687 LINE",
"146 646 OFFCURVE",
"145 602 OFFCURVE",
"131 514 CURVE SMOOTH",
"80 188 LINE SMOOTH",
"66 100 OFFCURVE",
"53 54 OFFCURVE",
"26 13 CURVE"
);
},
{
closed = 1;
nodes = (
"316 883 OFFCURVE",
"329 887 OFFCURVE",
"344 887 CURVE SMOOTH",
"372 887 OFFCURVE",
"383 873 OFFCURVE",
"383 856 CURVE SMOOTH",
"383 831 OFFCURVE",
"356 786 OFFCURVE",
"306 752 CURVE",
"331 752 LINE",
"400 789 OFFCURVE",
"425 831 OFFCURVE",
"425 866 CURVE SMOOTH",
"425 899 OFFCURVE",
"398 917 OFFCURVE",
"362 917 CURVE SMOOTH",
"343 917 OFFCURVE",
"323 912 OFFCURVE",
"305 905 CURVE",
"301 877 LINE"
);
}
);
width = 500;
}
);
note = Ehookabove;
unicode = 1EBA;
},
{
glyphname = Emacron;
lastChange = "2018-03-13 07:06:36 +0000";
layers = (
{
anchors = (
{
name = bottom;
position = "{230, 0}";
},
{
name = ogonek;
position = "{392, 10}";
},
{
name = top;
position = "{335, 790}";
},
{
name = topleft;
position = "{91, 700}";
}
);
layerId = "A732778C-A9DB-4576-83EA-D63CA8B0AAB2";
paths = (
{
closed = 1;
nodes = (
"30 0 LINE",
"397 0 LINE SMOOTH",
"415 0 OFFCURVE",
"427 7 OFFCURVE",
"429 20 CURVE",
"430 24 OFFCURVE",
"429 28 OFFCURVE",
"428 32 CURVE",
"76 32 LINE",
"97 74 OFFCURVE",
"109 136 OFFCURVE",
"118 188 CURVE SMOOTH",
"144 355 LINE",
"405 355 LINE SMOOTH",
"423 355 OFFCURVE",
"435 361 OFFCURVE",
"437 374 CURVE",
"438 378 OFFCURVE",
"438 382 OFFCURVE",
"436 386 CURVE",
"149 386 LINE",
"169 514 LINE SMOOTH",
"178 566 OFFCURVE",
"185 626 OFFCURVE",
"176 668 CURVE",
"487 668 LINE SMOOTH",
"505 668 OFFCURVE",
"517 675 OFFCURVE",
"519 688 CURVE",
"520 692 OFFCURVE",
"519 696 OFFCURVE",
"518 700 CURVE",
"141 700 LINE",
"133 687 LINE",
"146 646 OFFCURVE",
"145 602 OFFCURVE",
"131 514 CURVE SMOOTH",
"80 188 LINE SMOOTH",
"66 100 OFFCURVE",
"53 54 OFFCURVE",
"26 13 CURVE"
);
},
{
closed = 1;
nodes = (
"482 760 LINE",
"487 790 LINE",
"183 790 LINE",
"178 760 LINE"
);
}
);
width = 500;
}
);
note = Emacron;
unicode = 0112;
},
{
glyphname = Eogonek;
lastChange = "2018-03-13 07:06:36 +0000";
layers = (
{
anchors = (
{
name = bottom;
position = "{230, 0}";
},
{
name = ogonek;
position = "{392, 10}";
},
{
name = top;
position = "{321, 700}";
},
{
name = topleft;
position = "{91, 700}";
}
);
layerId = "A732778C-A9DB-4576-83EA-D63CA8B0AAB2";
paths = (
{
closed = 1;
nodes = (
"30 0 LINE",
"360 0 LINE",
"300 -33 OFFCURVE",
"265 -73 OFFCURVE",
"265 -108 CURVE SMOOTH",
"265 -135 OFFCURVE",
"286 -155 OFFCURVE",
"326 -155 CURVE SMOOTH",
"346 -155 OFFCURVE",
"366 -150 OFFCURVE",
"384 -143 CURVE",
"388 -115 LINE",
"373 -121 OFFCURVE",
"360 -125 OFFCURVE",
"346 -125 CURVE SMOOTH",
"320 -125 OFFCURVE",
"306 -112 OFFCURVE",
"306 -93 CURVE SMOOTH",
"306 -65 OFFCURVE",
"338 -32 OFFCURVE",
"391 0 CURVE",
"397 0 LINE SMOOTH",
"415 0 OFFCURVE",
"427 7 OFFCURVE",
"429 20 CURVE",
"430 24 OFFCURVE",
"429 28 OFFCURVE",
"428 32 CURVE",
"76 32 LINE",
"97 74 OFFCURVE",
"109 136 OFFCURVE",
"118 188 CURVE SMOOTH",
"144 355 LINE",
"405 355 LINE SMOOTH",
"423 355 OFFCURVE",
"435 361 OFFCURVE",
"437 374 CURVE",
"438 378 OFFCURVE",
"438 382 OFFCURVE",
"436 386 CURVE",
"149 386 LINE",
"169 514 LINE SMOOTH",
"178 566 OFFCURVE",
"185 626 OFFCURVE",
"176 668 CURVE",
"487 668 LINE SMOOTH",
"505 668 OFFCURVE",
"517 675 OFFCURVE",
"519 688 CURVE",
"520 692 OFFCURVE",
"519 696 OFFCURVE",
"518 700 CURVE",
"141 700 LINE",
"133 687 LINE",
"146 646 OFFCURVE",
"145 602 OFFCURVE",
"131 514 CURVE SMOOTH",
"80 188 LINE SMOOTH",
"66 100 OFFCURVE",
"53 54 OFFCURVE",
"26 13 CURVE"
);
}
);
width = 500;
}
);
note = Eogonek;
unicode = 0118;
},
{
glyphname = Etilde;
lastChange = "2018-03-13 07:06:36 +0000";
layers = (
{
anchors = (
{
name = bottom;
position = "{230, 0}";
},
{
name = ogonek;
position = "{392, 10}";
},
{
name = top;
position = "{346, 858}";
},
{
name = topleft;
position = "{91, 700}";
}
);
layerId = "A732778C-A9DB-4576-83EA-D63CA8B0AAB2";
paths = (
{
closed = 1;
nodes = (
"30 0 LINE",
"397 0 LINE SMOOTH",
"415 0 OFFCURVE",
"427 7 OFFCURVE",
"429 20 CURVE",
"430 24 OFFCURVE",
"429 28 OFFCURVE",
"428 32 CURVE",
"76 32 LINE",
"97 74 OFFCURVE",
"109 136 OFFCURVE",
"118 188 CURVE SMOOTH",
"144 355 LINE",
"405 355 LINE SMOOTH",
"423 355 OFFCURVE",
"435 361 OFFCURVE",
"437 374 CURVE",
"438 378 OFFCURVE",
"438 382 OFFCURVE",
"436 386 CURVE",
"149 386 LINE",
"169 514 LINE SMOOTH",
"178 566 OFFCURVE",
"185 626 OFFCURVE",
"176 668 CURVE",
"487 668 LINE SMOOTH",
"505 668 OFFCURVE",
"517 675 OFFCURVE",
"519 688 CURVE",
"520 692 OFFCURVE",
"519 696 OFFCURVE",
"518 700 CURVE",
"141 700 LINE",
"133 687 LINE",
"146 646 OFFCURVE",
"145 602 OFFCURVE",
"131 514 CURVE SMOOTH",
"80 188 LINE SMOOTH",
"66 100 OFFCURVE",
"53 54 OFFCURVE",
"26 13 CURVE"
);
},
{
closed = 1;
nodes = (
"210 752 LINE",
"223 798 OFFCURVE",
"247 824 OFFCURVE",
"273 824 CURVE SMOOTH",
"315 824 OFFCURVE",
"332 752 OFFCURVE",
"394 752 CURVE SMOOTH",
"440 752 OFFCURVE",
"479 793 OFFCURVE",
"493 858 CURVE",
"465 858 LINE",
"452 812 OFFCURVE",
"425 786 OFFCURVE",
"399 786 CURVE SMOOTH",
"357 786 OFFCURVE",
"341 858 OFFCURVE",
"279 858 CURVE SMOOTH",
"233 858 OFFCURVE",
"197 817 OFFCURVE",
"182 752 CURVE"
);
}
);
width = 500;
}
);
note = Etilde;
unicode = 1EBC;
},
{
glyphname = F;
lastChange = "2018-03-13 07:06:36 +0000";
layers = (
{
anchors = (
{
name = bottom;
position = "{199, 0}";
},
{
name = top;
position = "{310, 700}";
}
);
layerId = "A732778C-A9DB-4576-83EA-D63CA8B0AAB2";
paths = (
{
closed = 1;
nodes = (
"53 -3 OFFCURVE",
"56 -4 OFFCURVE",
"60 -4 CURVE SMOOTH",
"77 -4 OFFCURVE",
"87 9 OFFCURVE",
"91 31 CURVE SMOOTH",
"141 345 LINE",
"386 345 LINE SMOOTH",
"404 345 OFFCURVE",
"416 351 OFFCURVE",
"418 364 CURVE",
"418 368 OFFCURVE",
"418 372 OFFCURVE",
"417 376 CURVE",
"146 376 LINE",
"167 514 LINE SMOOTH",
"176 566 OFFCURVE",
"183 626 OFFCURVE",
"174 668 CURVE",
"485 668 LINE SMOOTH",
"503 668 OFFCURVE",
"515 675 OFFCURVE",
"517 688 CURVE",
"518 692 OFFCURVE",
"517 696 OFFCURVE",
"516 700 CURVE",
"139 700 LINE",
"131 687 LINE",
"144 646 OFFCURVE",
"143 602 OFFCURVE",
"129 514 CURVE SMOOTH",
"48 0 LINE"
);
}
);
width = 478;
}
);
leftKerningGroup = F;
note = F;
rightKerningGroup = F;
unicode = 0046;
},
{
glyphname = G;
layers = (
{
anchors = (
{
name = bottom;
position = "{297, 0}";
},
{
name = top;
position = "{436, 700}";
}
);
layerId = "A732778C-A9DB-4576-83EA-D63CA8B0AAB2";
paths = (
{
closed = 1;
nodes = (
"61 103 OFFCURVE",
"159 -10 OFFCURVE",
"321 -10 CURVE SMOOTH",
"507 -10 OFFCURVE",
"607 126 OFFCURVE",
"631 328 CURVE SMOOTH",
"632 335 OFFCURVE",
"632 340 OFFCURVE",
"631 346 CURVE",
"405 346 LINE SMOOTH",
"385 346 OFFCURVE",
"373 339 OFFCURVE",
"373 323 CURVE SMOOTH",
"373 321 OFFCURVE",
"373 318 OFFCURVE",
"374 315 CURVE",
"591 315 LINE",
"560 117 OFFCURVE",
"468 21 OFFCURVE",
"326 21 CURVE SMOOTH",
"183 21 OFFCURVE",
"101 116 OFFCURVE",
"101 271 CURVE SMOOTH",
"101 488 OFFCURVE",
"227 679 OFFCURVE",
"437 679 CURVE SMOOTH",
"522 679 OFFCURVE",
"594 647 OFFCURVE",
"626 597 CURVE",
"639 598 OFFCURVE",
"646 608 OFFCURVE",
"646 619 CURVE SMOOTH",
"646 641 OFFCURVE",
"565 710 OFFCURVE",
"437 710 CURVE SMOOTH",
"201 710 OFFCURVE",
"61 518 OFFCURVE",
"61 276 CURVE SMOOTH"
);
}
);
width = 670;
}
);
leftKerningGroup = O;
leftMetricsKey = O;
note = G;
rightKerningGroup = G;
unicode = 0047;
},
{
glyphname = Gbreve;
layers = (
{
anchors = (
{
name = bottom;
position = "{297, 0}";
},
{
name = top;
position = "{463, 870}";
}
);
layerId = "A732778C-A9DB-4576-83EA-D63CA8B0AAB2";
paths = (
{
closed = 1;
nodes = (
"61 103 OFFCURVE",
"159 -10 OFFCURVE",
"321 -10 CURVE SMOOTH",
"507 -10 OFFCURVE",
"607 126 OFFCURVE",
"631 328 CURVE SMOOTH",
"632 335 OFFCURVE",
"632 340 OFFCURVE",
"631 346 CURVE",
"405 346 LINE SMOOTH",
"385 346 OFFCURVE",
"373 339 OFFCURVE",
"373 323 CURVE SMOOTH",
"373 321 OFFCURVE",
"373 318 OFFCURVE",
"374 315 CURVE",
"591 315 LINE",
"560 117 OFFCURVE",
"468 21 OFFCURVE",
"326 21 CURVE SMOOTH",
"183 21 OFFCURVE",
"101 116 OFFCURVE",
"101 271 CURVE SMOOTH",
"101 488 OFFCURVE",
"227 679 OFFCURVE",
"437 679 CURVE SMOOTH",
"522 679 OFFCURVE",
"594 647 OFFCURVE",
"626 597 CURVE",
"639 598 OFFCURVE",
"646 608 OFFCURVE",
"646 619 CURVE SMOOTH",
"646 641 OFFCURVE",
"565 710 OFFCURVE",
"437 710 CURVE SMOOTH",
"201 710 OFFCURVE",
"61 518 OFFCURVE",
"61 276 CURVE SMOOTH"
);
},
{
closed = 1;
nodes = (
"324 794 OFFCURVE",
"374 746 OFFCURVE",
"450 746 CURVE SMOOTH",
"526 746 OFFCURVE",
"578 794 OFFCURVE",
"593 870 CURVE",
"569 870 LINE",
"555 817 OFFCURVE",
"509 784 OFFCURVE",
"449 784 CURVE SMOOTH",
"389 784 OFFCURVE",
"353 817 OFFCURVE",
"357 870 CURVE",
"333 870 LINE"
);
}
);
width = 670;
}
);
leftKerningGroup = G;
note = Gbreve;
unicode = 011E;
},
{
glyphname = Gcaron;
layers = (
{
anchors = (
{
name = bottom;
position = "{297, 0}";
},
{
name = top;
position = "{466, 890}";
}
);
layerId = "A732778C-A9DB-4576-83EA-D63CA8B0AAB2";
paths = (
{
closed = 1;
nodes = (
"61 103 OFFCURVE",
"159 -10 OFFCURVE",
"321 -10 CURVE SMOOTH",
"507 -10 OFFCURVE",
"607 126 OFFCURVE",
"631 328 CURVE SMOOTH",
"632 335 OFFCURVE",
"632 340 OFFCURVE",
"631 346 CURVE",
"405 346 LINE SMOOTH",
"385 346 OFFCURVE",
"373 339 OFFCURVE",
"373 323 CURVE SMOOTH",
"373 321 OFFCURVE",
"373 318 OFFCURVE",
"374 315 CURVE",
"591 315 LINE",
"560 117 OFFCURVE",
"468 21 OFFCURVE",
"326 21 CURVE SMOOTH",
"183 21 OFFCURVE",
"101 116 OFFCURVE",
"101 271 CURVE SMOOTH",
"101 488 OFFCURVE",
"227 679 OFFCURVE",
"437 679 CURVE SMOOTH",
"522 679 OFFCURVE",
"594 647 OFFCURVE",
"626 597 CURVE",
"639 598 OFFCURVE",
"646 608 OFFCURVE",
"646 619 CURVE SMOOTH",
"646 641 OFFCURVE",
"565 710 OFFCURVE",
"437 710 CURVE SMOOTH",
"201 710 OFFCURVE",
"61 518 OFFCURVE",
"61 276 CURVE SMOOTH"
);
},
{
closed = 1;
nodes = (
"420 752 LINE",
"468 752 LINE",
"596 890 LINE",
"580 890 LINE",
"448 792 LINE",
"352 890 LINE",
"336 890 LINE"
);
}
);
width = 670;
}
);
leftKerningGroup = G;
note = Gcaron;
unicode = 01E6;
},
{
glyphname = Gcircumflex;
layers = (
{
anchors = (
{
name = bottom;
position = "{297, 0}";
},
{
name = top;
position = "{466, 890}";
}
);
layerId = "A732778C-A9DB-4576-83EA-D63CA8B0AAB2";
paths = (
{
closed = 1;
nodes = (
"61 103 OFFCURVE",
"159 -10 OFFCURVE",
"321 -10 CURVE SMOOTH",
"507 -10 OFFCURVE",
"607 126 OFFCURVE",
"631 328 CURVE SMOOTH",
"632 335 OFFCURVE",
"632 340 OFFCURVE",
"631 346 CURVE",
"405 346 LINE SMOOTH",
"385 346 OFFCURVE",
"373 339 OFFCURVE",
"373 323 CURVE SMOOTH",
"373 321 OFFCURVE",
"373 318 OFFCURVE",
"374 315 CURVE",
"591 315 LINE",
"560 117 OFFCURVE",
"468 21 OFFCURVE",
"326 21 CURVE SMOOTH",
"183 21 OFFCURVE",
"101 116 OFFCURVE",
"101 271 CURVE SMOOTH",
"101 488 OFFCURVE",
"227 679 OFFCURVE",
"437 679 CURVE SMOOTH",
"522 679 OFFCURVE",
"594 647 OFFCURVE",
"626 597 CURVE",
"639 598 OFFCURVE",
"646 608 OFFCURVE",
"646 619 CURVE SMOOTH",
"646 641 OFFCURVE",
"565 710 OFFCURVE",
"437 710 CURVE SMOOTH",
"201 710 OFFCURVE",
"61 518 OFFCURVE",
"61 276 CURVE SMOOTH"
);
},
{
closed = 1;
nodes = (
"330 752 LINE",
"462 850 LINE",
"558 752 LINE",
"574 752 LINE",
"490 890 LINE",
"442 890 LINE",
"314 752 LINE"
);
}
);
width = 670;
}
);
leftKerningGroup = G;
note = Gcircumflex;
unicode = 011C;
},
{
glyphname = Gcommaaccent;
layers = (
{
anchors = (
{
name = bottom;
position = "{250, -299}";
},
{
name = top;
position = "{436, 700}";
}
);
layerId = "A732778C-A9DB-4576-83EA-D63CA8B0AAB2";
paths = (
{
closed = 1;
nodes = (
"61 103 OFFCURVE",
"159 -10 OFFCURVE",
"321 -10 CURVE SMOOTH",
"507 -10 OFFCURVE",
"607 126 OFFCURVE",
"631 328 CURVE SMOOTH",
"632 335 OFFCURVE",
"632 340 OFFCURVE",
"631 346 CURVE",
"405 346 LINE SMOOTH",
"385 346 OFFCURVE",
"373 339 OFFCURVE",
"373 323 CURVE SMOOTH",
"373 321 OFFCURVE",
"373 318 OFFCURVE",
"374 315 CURVE",
"591 315 LINE",
"560 117 OFFCURVE",
"468 21 OFFCURVE",
"326 21 CURVE SMOOTH",
"183 21 OFFCURVE",
"101 116 OFFCURVE",
"101 271 CURVE SMOOTH",
"101 488 OFFCURVE",
"227 679 OFFCURVE",
"437 679 CURVE SMOOTH",
"522 679 OFFCURVE",
"594 647 OFFCURVE",
"626 597 CURVE",
"639 598 OFFCURVE",
"646 608 OFFCURVE",
"646 619 CURVE SMOOTH",
"646 641 OFFCURVE",
"565 710 OFFCURVE",
"437 710 CURVE SMOOTH",
"201 710 OFFCURVE",
"61 518 OFFCURVE",
"61 276 CURVE SMOOTH"
);
},
{
closed = 1;
nodes = (
"241 -227 LINE",
"279 -204 OFFCURVE",
"323 -148 OFFCURVE",
"323 -101 CURVE SMOOTH",
"323 -73 OFFCURVE",
"304 -60 OFFCURVE",
"283 -60 CURVE SMOOTH",
"258 -60 OFFCURVE",
"241 -80 OFFCURVE",
"241 -105 CURVE SMOOTH",
"241 -125 OFFCURVE",
"254 -140 OFFCURVE",
"275 -140 CURVE",
"274 -163 OFFCURVE",
"250 -190 OFFCURVE",
"229 -205 CURVE"
);
}
);
width = 670;
}
);
leftKerningGroup = G;
note = Gcommaaccent;
unicode = 0122;
},
{
glyphname = Gdotaccent;
layers = (
{
anchors = (
{
name = bottom;
position = "{297, 0}";
},
{
name = top;
position = "{459, 843}";
}
);
layerId = "A732778C-A9DB-4576-83EA-D63CA8B0AAB2";
paths = (
{
closed = 1;
nodes = (
"61 103 OFFCURVE",
"159 -10 OFFCURVE",
"321 -10 CURVE SMOOTH",
"507 -10 OFFCURVE",
"607 126 OFFCURVE",
"631 328 CURVE SMOOTH",
"632 335 OFFCURVE",
"632 340 OFFCURVE",
"631 346 CURVE",
"405 346 LINE SMOOTH",
"385 346 OFFCURVE",
"373 339 OFFCURVE",
"373 323 CURVE SMOOTH",
"373 321 OFFCURVE",
"373 318 OFFCURVE",
"374 315 CURVE",
"591 315 LINE",
"560 117 OFFCURVE",
"468 21 OFFCURVE",
"326 21 CURVE SMOOTH",
"183 21 OFFCURVE",
"101 116 OFFCURVE",
"101 271 CURVE SMOOTH",
"101 488 OFFCURVE",
"227 679 OFFCURVE",
"437 679 CURVE SMOOTH",
"522 679 OFFCURVE",
"594 647 OFFCURVE",
"626 597 CURVE",
"639 598 OFFCURVE",
"646 608 OFFCURVE",
"646 619 CURVE SMOOTH",
"646 641 OFFCURVE",
"565 710 OFFCURVE",
"437 710 CURVE SMOOTH",
"201 710 OFFCURVE",
"61 518 OFFCURVE",
"61 276 CURVE SMOOTH"
);
},
{
closed = 1;
nodes = (
"409 769 OFFCURVE",
"423 755 OFFCURVE",
"445 755 CURVE SMOOTH",
"475 755 OFFCURVE",
"495 775 OFFCURVE",
"495 805 CURVE SMOOTH",
"495 825 OFFCURVE",
"481 839 OFFCURVE",
"459 839 CURVE SMOOTH",
"429 839 OFFCURVE",
"409 819 OFFCURVE",
"409 789 CURVE SMOOTH"
);
}
);
width = 670;
}
);
leftKerningGroup = G;
note = Gdotaccent;
unicode = 0120;
},
{
glyphname = Gmacron;
layers = (
{
anchors = (
{
name = bottom;
position = "{297, 0}";
},
{
name = top;
position = "{450, 790}";
}
);
layerId = "A732778C-A9DB-4576-83EA-D63CA8B0AAB2";
paths = (
{
closed = 1;
nodes = (
"61 103 OFFCURVE",
"159 -10 OFFCURVE",
"321 -10 CURVE SMOOTH",
"507 -10 OFFCURVE",
"607 126 OFFCURVE",
"631 328 CURVE SMOOTH",
"632 335 OFFCURVE",
"632 340 OFFCURVE",
"631 346 CURVE",
"405 346 LINE SMOOTH",
"385 346 OFFCURVE",
"373 339 OFFCURVE",
"373 323 CURVE SMOOTH",
"373 321 OFFCURVE",
"373 318 OFFCURVE",
"374 315 CURVE",
"591 315 LINE",
"560 117 OFFCURVE",
"468 21 OFFCURVE",
"326 21 CURVE SMOOTH",
"183 21 OFFCURVE",
"101 116 OFFCURVE",
"101 271 CURVE SMOOTH",
"101 488 OFFCURVE",
"227 679 OFFCURVE",
"437 679 CURVE SMOOTH",
"522 679 OFFCURVE",
"594 647 OFFCURVE",
"626 597 CURVE",
"639 598 OFFCURVE",
"646 608 OFFCURVE",
"646 619 CURVE SMOOTH",
"646 641 OFFCURVE",
"565 710 OFFCURVE",
"437 710 CURVE SMOOTH",
"201 710 OFFCURVE",
"61 518 OFFCURVE",
"61 276 CURVE SMOOTH"
);
},
{
closed = 1;
nodes = (
"597 760 LINE",
"602 790 LINE",
"298 790 LINE",
"293 760 LINE"
);
}
);
width = 670;
}
);
leftKerningGroup = G;
note = Gmacron;
unicode = 1E20;
},
{
glyphname = H;
lastChange = "2018-03-13 07:06:36 +0000";
layers = (
{
anchors = (
{
name = bottom;
position = "{288, 0}";
},
{
name = center;
position = "{338, 350}";
},
{
name = top;
position = "{394, 700}";
},
{
name = topleft;
position = "{90, 700}";
}
);
layerId = "A732778C-A9DB-4576-83EA-D63CA8B0AAB2";
paths = (
{
closed = 1;
nodes = (
"48 -3 OFFCURVE",
"51 -4 OFFCURVE",
"55 -4 CURVE SMOOTH",
"72 -4 OFFCURVE",
"82 9 OFFCURVE",
"86 31 CURVE SMOOTH",
"135 340 LINE",
"539 340 LINE",
"485 0 LINE",
"490 -3 OFFCURVE",
"493 -4 OFFCURVE",
"497 -4 CURVE SMOOTH",
"514 -4 OFFCURVE",
"524 9 OFFCURVE",
"528 31 CURVE SMOOTH",
"634 700 LINE",
"629 703 OFFCURVE",
"626 704 OFFCURVE",
"622 704 CURVE SMOOTH",
"605 704 OFFCURVE",
"594 691 OFFCURVE",
"591 669 CURVE SMOOTH",
"544 372 LINE",
"140 372 LINE",
"192 700 LINE",
"187 703 OFFCURVE",
"184 704 OFFCURVE",
"180 704 CURVE SMOOTH",
"163 704 OFFCURVE",
"152 691 OFFCURVE",
"149 669 CURVE SMOOTH",
"43 0 LINE"
);
}
);
width = 647;
}
);
leftKerningGroup = H;
leftMetricsKey = "=|";
note = H;
rightKerningGroup = H;
unicode = 0048;
},
{
glyphname = Hbar;
lastChange = "2018-03-13 07:06:36 +0000";
layers = (
{
anchors = (
{
name = bottom;
position = "{288, 0}";
},
{
name = center;
position = "{338, 350}";
},
{
name = top;
position = "{394, 700}";
},
{
name = topleft;
position = "{90, 700}";
}
);
layerId = "A732778C-A9DB-4576-83EA-D63CA8B0AAB2";
paths = (
{
closed = 1;
nodes = (
"48 -3 OFFCURVE",
"51 -4 OFFCURVE",
"55 -4 CURVE SMOOTH",
"72 -4 OFFCURVE",
"82 9 OFFCURVE",
"86 31 CURVE SMOOTH",
"135 340 LINE",
"539 340 LINE",
"485 0 LINE",
"490 -3 OFFCURVE",
"493 -4 OFFCURVE",
"497 -4 CURVE SMOOTH",
"514 -4 OFFCURVE",
"524 9 OFFCURVE",
"528 31 CURVE SMOOTH",
"606 522 LINE",
"671 522 LINE",
"676 554 LINE",
"611 554 LINE",
"634 700 LINE",
"629 703 OFFCURVE",
"626 704 OFFCURVE",
"622 704 CURVE SMOOTH",
"605 704 OFFCURVE",
"594 691 OFFCURVE",
"591 669 CURVE SMOOTH",
"573 554 LINE",
"169 554 LINE",
"192 700 LINE",
"187 703 OFFCURVE",
"184 704 OFFCURVE",
"180 704 CURVE SMOOTH",
"163 704 OFFCURVE",
"152 691 OFFCURVE",
"149 669 CURVE SMOOTH",
"131 554 LINE",
"68 554 LINE",
"63 522 LINE",
"126 522 LINE",
"43 0 LINE"
);
},
{
closed = 1;
nodes = (
"164 522 LINE",
"568 522 LINE",
"544 372 LINE",
"140 372 LINE"
);
}
);
width = 648;
}
);
note = Hbar;
unicode = 0126;
},
{
glyphname = Hbrevebelow;
lastChange = "2018-03-13 07:06:36 +0000";
layers = (
{
anchors = (
{
name = bottom;
position = "{259, -184}";
},
{
name = center;
position = "{338, 350}";
},
{
name = top;
position = "{394, 700}";
},
{
name = topleft;
position = "{90, 700}";
}
);
layerId = "A732778C-A9DB-4576-83EA-D63CA8B0AAB2";
paths = (
{
closed = 1;
nodes = (
"48 -3 OFFCURVE",
"51 -4 OFFCURVE",
"55 -4 CURVE SMOOTH",
"72 -4 OFFCURVE",
"82 9 OFFCURVE",
"86 31 CURVE SMOOTH",
"135 340 LINE",
"539 340 LINE",
"485 0 LINE",
"490 -3 OFFCURVE",
"493 -4 OFFCURVE",
"497 -4 CURVE SMOOTH",
"514 -4 OFFCURVE",
"524 9 OFFCURVE",
"528 31 CURVE SMOOTH",
"634 700 LINE",
"629 703 OFFCURVE",
"626 704 OFFCURVE",
"622 704 CURVE SMOOTH",
"605 704 OFFCURVE",
"594 691 OFFCURVE",
"591 669 CURVE SMOOTH",
"544 372 LINE",
"140 372 LINE",
"192 700 LINE",
"187 703 OFFCURVE",
"184 704 OFFCURVE",
"180 704 CURVE SMOOTH",
"163 704 OFFCURVE",
"152 691 OFFCURVE",
"149 669 CURVE SMOOTH",
"43 0 LINE"
);
},
{
closed = 1;
nodes = (
"139 -136 OFFCURVE",
"186 -184 OFFCURVE",
"262 -184 CURVE SMOOTH",
"338 -184 OFFCURVE",
"393 -136 OFFCURVE",
"408 -60 CURVE",
"384 -60 LINE",
"371 -113 OFFCURVE",
"325 -146 OFFCURVE",
"265 -146 CURVE SMOOTH",
"205 -146 OFFCURVE",
"169 -113 OFFCURVE",
"172 -60 CURVE",
"148 -60 LINE"
);
}
);
width = 647;
}
);
note = Hbrevebelow;
unicode = 1E2A;
},
{
glyphname = Hcircumflex;
lastChange = "2018-03-13 07:06:36 +0000";
layers = (
{
anchors = (
{
name = bottom;
position = "{288, 0}";
},
{
name = center;
position = "{338, 350}";
},
{
name = top;
position = "{424, 890}";
},
{
name = topleft;
position = "{90, 700}";
}
);
layerId = "A732778C-A9DB-4576-83EA-D63CA8B0AAB2";
paths = (
{
closed = 1;
nodes = (
"48 -3 OFFCURVE",
"51 -4 OFFCURVE",
"55 -4 CURVE SMOOTH",
"72 -4 OFFCURVE",
"82 9 OFFCURVE",
"86 31 CURVE SMOOTH",
"135 340 LINE",
"539 340 LINE",
"485 0 LINE",
"490 -3 OFFCURVE",
"493 -4 OFFCURVE",
"497 -4 CURVE SMOOTH",
"514 -4 OFFCURVE",
"524 9 OFFCURVE",
"528 31 CURVE SMOOTH",
"634 700 LINE",
"629 703 OFFCURVE",
"626 704 OFFCURVE",
"622 704 CURVE SMOOTH",
"605 704 OFFCURVE",
"594 691 OFFCURVE",
"591 669 CURVE SMOOTH",
"544 372 LINE",
"140 372 LINE",
"192 700 LINE",
"187 703 OFFCURVE",
"184 704 OFFCURVE",
"180 704 CURVE SMOOTH",
"163 704 OFFCURVE",
"152 691 OFFCURVE",
"149 669 CURVE SMOOTH",
"43 0 LINE"
);
},
{
closed = 1;
nodes = (
"288 752 LINE",
"420 850 LINE",
"516 752 LINE",
"532 752 LINE",
"448 890 LINE",
"400 890 LINE",
"272 752 LINE"
);
}
);
width = 647;
}
);
note = Hcircumflex;
unicode = 0124;
},
{
glyphname = Hdotbelow;
lastChange = "2018-03-13 07:06:36 +0000";
layers = (
{
anchors = (
{
name = bottom;
position = "{266, -140}";
},
{
name = center;
position = "{338, 350}";
},
{
name = top;
position = "{394, 700}";
},
{
name = topleft;
position = "{90, 700}";
}
);
layerId = "A732778C-A9DB-4576-83EA-D63CA8B0AAB2";
paths = (
{
closed = 1;
nodes = (
"48 -3 OFFCURVE",
"51 -4 OFFCURVE",
"55 -4 CURVE SMOOTH",
"72 -4 OFFCURVE",
"82 9 OFFCURVE",
"86 31 CURVE SMOOTH",
"135 340 LINE",
"539 340 LINE",
"485 0 LINE",
"490 -3 OFFCURVE",
"493 -4 OFFCURVE",
"497 -4 CURVE SMOOTH",
"514 -4 OFFCURVE",
"524 9 OFFCURVE",
"528 31 CURVE SMOOTH",
"634 700 LINE",
"629 703 OFFCURVE",
"626 704 OFFCURVE",
"622 704 CURVE SMOOTH",
"605 704 OFFCURVE",
"594 691 OFFCURVE",
"591 669 CURVE SMOOTH",
"544 372 LINE",
"140 372 LINE",
"192 700 LINE",
"187 703 OFFCURVE",
"184 704 OFFCURVE",
"180 704 CURVE SMOOTH",
"163 704 OFFCURVE",
"152 691 OFFCURVE",
"149 669 CURVE SMOOTH",
"43 0 LINE"
);
},
{
closed = 1;
nodes = (
"232 -125 OFFCURVE",
"246 -138 OFFCURVE",
"266 -138 CURVE SMOOTH",
"293 -138 OFFCURVE",
"312 -119 OFFCURVE",
"312 -92 CURVE SMOOTH",
"312 -73 OFFCURVE",
"299 -60 OFFCURVE",
"278 -60 CURVE SMOOTH",
"251 -60 OFFCURVE",
"232 -79 OFFCURVE",
"232 -105 CURVE SMOOTH"
);
}
);
width = 647;
}
);
note = Hdotbelow;
unicode = 1E24;
},
{
glyphname = I;
layers = (
{
anchors = (
{
name = bottom;
position = "{68, 0}";
},
{
name = ogonek;
position = "{66, 5}";
},
{
name = top;
position = "{179, 700}";
},
{
name = topleft;
position = "{90, 700}";
}
);
layerId = "A732778C-A9DB-4576-83EA-D63CA8B0AAB2";
paths = (
{
closed = 1;
nodes = (
"54 -3 OFFCURVE",
"57 -4 OFFCURVE",
"61 -4 CURVE SMOOTH",
"78 -4 OFFCURVE",
"88 9 OFFCURVE",
"92 31 CURVE SMOOTH",
"198 700 LINE",
"193 703 OFFCURVE",
"190 704 OFFCURVE",
"186 704 CURVE SMOOTH",
"169 704 OFFCURVE",
"158 691 OFFCURVE",
"155 669 CURVE SMOOTH",
"49 0 LINE"
);
}
);
width = 217;
}
);
leftKerningGroup = I;
leftMetricsKey = "=|";
note = I;
rightKerningGroup = I;
unicode = 0049;
},
{
glyphname = IJ;
layers = (
{
anchors = (
{
name = bottom;
position = "{356, 0}";
},
{
name = ogonek;
position = "{66, 5}";
},
{
name = top;
position = "{551, 700}";
},
{
name = topleft;
position = "{90, 700}";
}
);
layerId = "A732778C-A9DB-4576-83EA-D63CA8B0AAB2";
paths = (
{
closed = 1;
nodes = (
"54 -3 OFFCURVE",
"57 -4 OFFCURVE",
"61 -4 CURVE SMOOTH",
"78 -4 OFFCURVE",
"88 9 OFFCURVE",
"92 31 CURVE SMOOTH",
"198 700 LINE",
"193 703 OFFCURVE",
"190 704 OFFCURVE",
"186 704 CURVE SMOOTH",
"169 704 OFFCURVE",
"158 691 OFFCURVE",
"155 669 CURVE SMOOTH",
"49 0 LINE"
);
},
{
closed = 1;
nodes = (
"212 16 OFFCURVE",
"254 -10 OFFCURVE",
"314 -10 CURVE SMOOTH",
"402 -10 OFFCURVE",
"462 46 OFFCURVE",
"478 147 CURVE SMOOTH",
"566 700 LINE",
"561 703 OFFCURVE",
"558 704 OFFCURVE",
"554 704 CURVE SMOOTH",
"537 704 OFFCURVE",
"526 691 OFFCURVE",
"523 669 CURVE SMOOTH",
"440 147 LINE SMOOTH",
"427 66 OFFCURVE",
"385 21 OFFCURVE",
"320 21 CURVE SMOOTH",
"279 21 OFFCURVE",
"254 39 OFFCURVE",
"236 57 CURVE",
"224 57 OFFCURVE",
"217 50 OFFCURVE",
"215 37 CURVE SMOOTH"
);
}
);
width = 575;
}
);
note = IJ;
rightKerningGroup = J;
unicode = 0132;
},
{
glyphname = Iacute;
layers = (
{
anchors = (
{
name = bottom;
position = "{68, 0}";
},
{
name = ogonek;
position = "{66, 5}";
},
{
name = top;
position = "{260, 890}";
},
{
name = topleft;
position = "{90, 700}";
}
);
layerId = "A732778C-A9DB-4576-83EA-D63CA8B0AAB2";
paths = (
{
closed = 1;
nodes = (
"54 -3 OFFCURVE",
"57 -4 OFFCURVE",
"61 -4 CURVE SMOOTH",
"78 -4 OFFCURVE",
"88 9 OFFCURVE",
"92 31 CURVE SMOOTH",
"198 700 LINE",
"193 703 OFFCURVE",
"190 704 OFFCURVE",
"186 704 CURVE SMOOTH",
"169 704 OFFCURVE",
"158 691 OFFCURVE",
"155 669 CURVE SMOOTH",
"49 0 LINE"
);
},
{
closed = 1;
nodes = (
"167 752 LINE",
"282 890 LINE",
"238 890 LINE",
"151 752 LINE"
);
}
);
width = 217;
}
);
note = Iacute;
unicode = 00CD;
},
{
glyphname = Ibreve;
layers = (
{
anchors = (
{
name = bottom;
position = "{68, 0}";
},
{
name = ogonek;
position = "{66, 5}";
},
{
name = top;
position = "{206, 870}";
},
{
name = topleft;
position = "{90, 700}";
}
);
layerId = "A732778C-A9DB-4576-83EA-D63CA8B0AAB2";
paths = (
{
closed = 1;
nodes = (
"54 -3 OFFCURVE",
"57 -4 OFFCURVE",
"61 -4 CURVE SMOOTH",
"78 -4 OFFCURVE",
"88 9 OFFCURVE",
"92 31 CURVE SMOOTH",
"198 700 LINE",
"193 703 OFFCURVE",
"190 704 OFFCURVE",
"186 704 CURVE SMOOTH",
"169 704 OFFCURVE",
"158 691 OFFCURVE",
"155 669 CURVE SMOOTH",
"49 0 LINE"
);
},
{
closed = 1;
nodes = (
"67 794 OFFCURVE",
"117 746 OFFCURVE",
"193 746 CURVE SMOOTH",
"269 746 OFFCURVE",
"321 794 OFFCURVE",
"336 870 CURVE",
"312 870 LINE",
"298 817 OFFCURVE",
"252 784 OFFCURVE",
"192 784 CURVE SMOOTH",
"132 784 OFFCURVE",
"96 817 OFFCURVE",
"100 870 CURVE",
"76 870 LINE"
);
}
);
width = 217;
}
);
note = Ibreve;
unicode = 012C;
},
{
glyphname = Icaron;
layers = (
{
anchors = (
{
name = bottom;
position = "{68, 0}";
},
{
name = ogonek;
position = "{66, 5}";
},
{
name = top;
position = "{209, 890}";
},
{
name = topleft;
position = "{90, 700}";
}
);
layerId = "A732778C-A9DB-4576-83EA-D63CA8B0AAB2";
paths = (
{
closed = 1;
nodes = (
"54 -3 OFFCURVE",
"57 -4 OFFCURVE",
"61 -4 CURVE SMOOTH",
"78 -4 OFFCURVE",
"88 9 OFFCURVE",
"92 31 CURVE SMOOTH",
"198 700 LINE",
"193 703 OFFCURVE",
"190 704 OFFCURVE",
"186 704 CURVE SMOOTH",
"169 704 OFFCURVE",
"158 691 OFFCURVE",
"155 669 CURVE SMOOTH",
"49 0 LINE"
);
},
{
closed = 1;
nodes = (
"163 752 LINE",
"211 752 LINE",
"339 890 LINE",
"323 890 LINE",
"191 792 LINE",
"95 890 LINE",
"79 890 LINE"
);
}
);
width = 217;
}
);
note = Icaron;
unicode = 01CF;
},
{
glyphname = Icircumflex;
layers = (
{
anchors = (
{
name = bottom;
position = "{68, 0}";
},
{
name = ogonek;
position = "{66, 5}";
},
{
name = top;
position = "{209, 890}";
},
{
name = topleft;
position = "{90, 700}";
}
);
layerId = "A732778C-A9DB-4576-83EA-D63CA8B0AAB2";
paths = (
{
closed = 1;
nodes = (
"54 -3 OFFCURVE",
"57 -4 OFFCURVE",
"61 -4 CURVE SMOOTH",
"78 -4 OFFCURVE",
"88 9 OFFCURVE",
"92 31 CURVE SMOOTH",
"198 700 LINE",
"193 703 OFFCURVE",
"190 704 OFFCURVE",
"186 704 CURVE SMOOTH",
"169 704 OFFCURVE",
"158 691 OFFCURVE",
"155 669 CURVE SMOOTH",
"49 0 LINE"
);
},
{
closed = 1;
nodes = (
"73 752 LINE",
"205 850 LINE",
"301 752 LINE",
"317 752 LINE",
"233 890 LINE",
"185 890 LINE",
"57 752 LINE"
);
}
);
width = 217;
}
);
note = Icircumflex;
unicode = 00CE;
},
{
glyphname = Idieresis;
layers = (
{
anchors = (
{
name = bottom;
position = "{68, 0}";
},
{
name = ogonek;
position = "{66, 5}";
},
{
name = top;
position = "{200, 834}";
},
{
name = topleft;
position = "{90, 700}";
}
);
layerId = "A732778C-A9DB-4576-83EA-D63CA8B0AAB2";
paths = (
{
closed = 1;
nodes = (
"54 -3 OFFCURVE",
"57 -4 OFFCURVE",
"61 -4 CURVE SMOOTH",
"78 -4 OFFCURVE",
"88 9 OFFCURVE",
"92 31 CURVE SMOOTH",
"198 700 LINE",
"193 703 OFFCURVE",
"190 704 OFFCURVE",
"186 704 CURVE SMOOTH",
"169 704 OFFCURVE",
"158 691 OFFCURVE",
"155 669 CURVE SMOOTH",
"49 0 LINE"
);
},
{
closed = 1;
nodes = (
"82 765 OFFCURVE",
"96 752 OFFCURVE",
"116 752 CURVE SMOOTH",
"143 752 OFFCURVE",
"162 771 OFFCURVE",
"162 798 CURVE SMOOTH",
"162 817 OFFCURVE",
"149 830 OFFCURVE",
"128 830 CURVE SMOOTH",
"101 830 OFFCURVE",
"82 811 OFFCURVE",
"82 785 CURVE SMOOTH"
);
},
{
closed = 1;
nodes = (
"223 765 OFFCURVE",
"237 752 OFFCURVE",
"257 752 CURVE SMOOTH",
"284 752 OFFCURVE",
"303 771 OFFCURVE",
"303 798 CURVE SMOOTH",
"303 817 OFFCURVE",
"290 830 OFFCURVE",
"269 830 CURVE SMOOTH",
"242 830 OFFCURVE",
"223 811 OFFCURVE",
"223 785 CURVE SMOOTH"
);
}
);
width = 217;
}
);
note = Idieresis;
unicode = 00CF;
},
{
glyphname = Idotaccent;
layers = (
{
anchors = (
{
name = bottom;
position = "{68, 0}";
},
{
name = ogonek;
position = "{66, 5}";
},
{
name = top;
position = "{202, 843}";
},
{
name = topleft;
position = "{90, 700}";
}
);
layerId = "A732778C-A9DB-4576-83EA-D63CA8B0AAB2";
paths = (
{
closed = 1;
nodes = (
"54 -3 OFFCURVE",
"57 -4 OFFCURVE",
"61 -4 CURVE SMOOTH",
"78 -4 OFFCURVE",
"88 9 OFFCURVE",
"92 31 CURVE SMOOTH",
"198 700 LINE",
"193 703 OFFCURVE",
"190 704 OFFCURVE",
"186 704 CURVE SMOOTH",
"169 704 OFFCURVE",
"158 691 OFFCURVE",
"155 669 CURVE SMOOTH",
"49 0 LINE"
);
},
{
closed = 1;
nodes = (
"152 769 OFFCURVE",
"166 755 OFFCURVE",
"188 755 CURVE SMOOTH",
"218 755 OFFCURVE",
"238 775 OFFCURVE",
"238 805 CURVE SMOOTH",
"238 825 OFFCURVE",
"224 839 OFFCURVE",
"202 839 CURVE SMOOTH",
"172 839 OFFCURVE",
"152 819 OFFCURVE",
"152 789 CURVE SMOOTH"
);
}
);
width = 217;
}
);
note = Idotaccent;
unicode = 0130;
},
{
glyphname = Idotbelow;
layers = (
{
anchors = (
{
name = bottom;
position = "{46, -140}";
},
{
name = ogonek;
position = "{66, 5}";
},
{
name = top;
position = "{179, 700}";
},
{
name = topleft;
position = "{90, 700}";
}
);
layerId = "A732778C-A9DB-4576-83EA-D63CA8B0AAB2";
paths = (
{
closed = 1;
nodes = (
"12 -125 OFFCURVE",
"26 -138 OFFCURVE",
"46 -138 CURVE SMOOTH",
"73 -138 OFFCURVE",
"92 -119 OFFCURVE",
"92 -92 CURVE SMOOTH",
"92 -73 OFFCURVE",
"79 -60 OFFCURVE",
"58 -60 CURVE SMOOTH",
"31 -60 OFFCURVE",
"12 -79 OFFCURVE",
"12 -105 CURVE SMOOTH"
);
},
{
closed = 1;
nodes = (
"54 -3 OFFCURVE",
"57 -4 OFFCURVE",
"61 -4 CURVE SMOOTH",
"78 -4 OFFCURVE",
"88 9 OFFCURVE",
"92 31 CURVE SMOOTH",
"198 700 LINE",
"193 703 OFFCURVE",
"190 704 OFFCURVE",
"186 704 CURVE SMOOTH",
"169 704 OFFCURVE",
"158 691 OFFCURVE",
"155 669 CURVE SMOOTH",
"49 0 LINE"
);
}
);
width = 217;
}
);
note = Idotbelow;
unicode = 1ECA;
},
{
glyphname = Igrave;
layers = (
{
anchors = (
{
name = bottom;
position = "{68, 0}";
},
{
name = ogonek;
position = "{66, 5}";
},
{
name = top;
position = "{158, 890}";
},
{
name = topleft;
position = "{90, 700}";
}
);
layerId = "A732778C-A9DB-4576-83EA-D63CA8B0AAB2";
paths = (
{
closed = 1;
nodes = (
"54 -3 OFFCURVE",
"57 -4 OFFCURVE",
"61 -4 CURVE SMOOTH",
"78 -4 OFFCURVE",
"88 9 OFFCURVE",
"92 31 CURVE SMOOTH",
"198 700 LINE",
"193 703 OFFCURVE",
"190 704 OFFCURVE",
"186 704 CURVE SMOOTH",
"169 704 OFFCURVE",
"158 691 OFFCURVE",
"155 669 CURVE SMOOTH",
"49 0 LINE"
);
},
{
closed = 1;
nodes = (
"207 752 LINE",
"223 752 LINE",
"180 890 LINE",
"136 890 LINE"
);
}
);
width = 217;
}
);
note = Igrave;
unicode = 00CC;
},
{
glyphname = Ihookabove;
layers = (
{
anchors = (
{
name = bottom;
position = "{68, 0}";
},
{
name = ogonek;
position = "{66, 5}";
},
{
name = top;
position = "{221, 917}";
},
{
name = topleft;
position = "{90, 700}";
}
);
layerId = "A732778C-A9DB-4576-83EA-D63CA8B0AAB2";
paths = (
{
closed = 1;
nodes = (
"54 -3 OFFCURVE",
"57 -4 OFFCURVE",
"61 -4 CURVE SMOOTH",
"78 -4 OFFCURVE",
"88 9 OFFCURVE",
"92 31 CURVE SMOOTH",
"198 700 LINE",
"193 703 OFFCURVE",
"190 704 OFFCURVE",
"186 704 CURVE SMOOTH",
"169 704 OFFCURVE",
"158 691 OFFCURVE",
"155 669 CURVE SMOOTH",
"49 0 LINE"
);
},
{
closed = 1;
nodes = (
"174 883 OFFCURVE",
"187 887 OFFCURVE",
"202 887 CURVE SMOOTH",
"230 887 OFFCURVE",
"241 873 OFFCURVE",
"241 856 CURVE SMOOTH",
"241 831 OFFCURVE",
"214 786 OFFCURVE",
"164 752 CURVE",
"189 752 LINE",
"258 789 OFFCURVE",
"283 831 OFFCURVE",
"283 866 CURVE SMOOTH",
"283 899 OFFCURVE",
"256 917 OFFCURVE",
"220 917 CURVE SMOOTH",
"201 917 OFFCURVE",
"181 912 OFFCURVE",
"163 905 CURVE",
"159 877 LINE"
);
}
);
width = 217;
}
);
note = Ihookabove;
unicode = 1EC8;
},
{
glyphname = Imacron;
layers = (
{
anchors = (
{
name = bottom;
position = "{68, 0}";
},
{
name = ogonek;
position = "{66, 5}";
},
{
name = top;
position = "{193, 790}";
},
{
name = topleft;
position = "{90, 700}";
}
);
layerId = "A732778C-A9DB-4576-83EA-D63CA8B0AAB2";
paths = (
{
closed = 1;
nodes = (
"340 760 LINE",
"345 790 LINE",
"41 790 LINE",
"36 760 LINE"
);
},
{
closed = 1;
nodes = (
"54 -3 OFFCURVE",
"57 -4 OFFCURVE",
"61 -4 CURVE SMOOTH",
"78 -4 OFFCURVE",
"88 9 OFFCURVE",
"92 31 CURVE SMOOTH",
"198 700 LINE",
"193 703 OFFCURVE",
"190 704 OFFCURVE",
"186 704 CURVE SMOOTH",
"169 704 OFFCURVE",
"158 691 OFFCURVE",
"155 669 CURVE SMOOTH",
"49 0 LINE"
);
}
);
width = 217;
}
);
note = Imacron;
unicode = 012A;
},
{
glyphname = Iogonek;
lastChange = "2018-03-13 07:06:36 +0000";
layers = (
{
anchors = (
{
name = bottom;
position = "{68, 0}";
},
{
name = ogonek;
position = "{66, 5}";
},
{
name = top;
position = "{179, 700}";
},
{
name = topleft;
position = "{90, 700}";
}
);
layerId = "A732778C-A9DB-4576-83EA-D63CA8B0AAB2";
paths = (
{
closed = 1;
nodes = (
"-61 -140 OFFCURVE",
"-40 -160 OFFCURVE",
"0 -160 CURVE SMOOTH",
"20 -160 OFFCURVE",
"40 -155 OFFCURVE",
"58 -148 CURVE",
"62 -120 LINE",
"47 -126 OFFCURVE",
"34 -130 OFFCURVE",
"20 -130 CURVE SMOOTH",
"-6 -130 OFFCURVE",
"-20 -117 OFFCURVE",
"-20 -98 CURVE SMOOTH",
"-20 -70 OFFCURVE",
"14 -36 OFFCURVE",
"69 -3 CURVE",
"81 1 OFFCURVE",
"89 13 OFFCURVE",
"92 31 CURVE SMOOTH",
"198 700 LINE",
"193 703 OFFCURVE",
"190 704 OFFCURVE",
"186 704 CURVE SMOOTH",
"169 704 OFFCURVE",
"158 691 OFFCURVE",
"155 669 CURVE SMOOTH",
"49 3 LINE",
"-20 -31 OFFCURVE",
"-61 -75 OFFCURVE",
"-61 -113 CURVE SMOOTH"
);
}
);
width = 217;
}
);
note = Iogonek;
unicode = 012E;
},
{
glyphname = Itilde;
layers = (
{
anchors = (
{
name = bottom;
position = "{68, 0}";
},
{
name = ogonek;
position = "{66, 5}";
},
{
name = top;
position = "{204, 858}";
},
{
name = topleft;
position = "{90, 700}";
}
);
layerId = "A732778C-A9DB-4576-83EA-D63CA8B0AAB2";
paths = (
{
closed = 1;
nodes = (
"68 752 LINE",
"81 798 OFFCURVE",
"105 824 OFFCURVE",
"131 824 CURVE SMOOTH",
"173 824 OFFCURVE",
"190 752 OFFCURVE",
"252 752 CURVE SMOOTH",
"298 752 OFFCURVE",
"337 793 OFFCURVE",
"351 858 CURVE",
"323 858 LINE",
"310 812 OFFCURVE",
"283 786 OFFCURVE",
"257 786 CURVE SMOOTH",
"215 786 OFFCURVE",
"199 858 OFFCURVE",
"137 858 CURVE SMOOTH",
"91 858 OFFCURVE",
"55 817 OFFCURVE",
"40 752 CURVE"
);
},
{
closed = 1;
nodes = (
"54 -3 OFFCURVE",
"57 -4 OFFCURVE",
"61 -4 CURVE SMOOTH",
"78 -4 OFFCURVE",
"88 9 OFFCURVE",
"92 31 CURVE SMOOTH",
"198 700 LINE",
"193 703 OFFCURVE",
"190 704 OFFCURVE",
"186 704 CURVE SMOOTH",
"169 704 OFFCURVE",
"158 691 OFFCURVE",
"155 669 CURVE SMOOTH",
"49 0 LINE"
);
}
);
width = 217;
}
);
note = Itilde;
unicode = 0128;
},
{
glyphname = J;
layers = (
{
anchors = (
{
name = bottom;
position = "{139, 0}";
},
{
name = top;
position = "{334, 700}";
}
);
layerId = "A732778C-A9DB-4576-83EA-D63CA8B0AAB2";
paths = (
{
closed = 1;
nodes = (
"-5 16 OFFCURVE",
"37 -10 OFFCURVE",
"97 -10 CURVE SMOOTH",
"185 -10 OFFCURVE",
"245 46 OFFCURVE",
"261 147 CURVE SMOOTH",
"349 700 LINE",
"344 703 OFFCURVE",
"341 704 OFFCURVE",
"337 704 CURVE SMOOTH",
"320 704 OFFCURVE",
"309 691 OFFCURVE",
"306 669 CURVE SMOOTH",
"223 147 LINE SMOOTH",
"210 66 OFFCURVE",
"168 21 OFFCURVE",
"103 21 CURVE SMOOTH",
"62 21 OFFCURVE",
"37 39 OFFCURVE",
"19 57 CURVE",
"7 57 OFFCURVE",
"0 50 OFFCURVE",
"-2 37 CURVE SMOOTH"
);
}
);
width = 358;
}
);
leftKerningGroup = J;
note = J;
rightKerningGroup = J;
unicode = 004A;
},
{
glyphname = Jcircumflex;
layers = (
{
anchors = (
{
name = bottom;
position = "{139, 0}";
},
{
name = top;
position = "{364, 890}";
}
);
layerId = "A732778C-A9DB-4576-83EA-D63CA8B0AAB2";
paths = (
{
closed = 1;
nodes = (
"-5 16 OFFCURVE",
"37 -10 OFFCURVE",
"97 -10 CURVE SMOOTH",
"185 -10 OFFCURVE",
"245 46 OFFCURVE",
"261 147 CURVE SMOOTH",
"349 700 LINE",
"344 703 OFFCURVE",
"341 704 OFFCURVE",
"337 704 CURVE SMOOTH",
"320 704 OFFCURVE",
"309 691 OFFCURVE",
"306 669 CURVE SMOOTH",
"223 147 LINE SMOOTH",
"210 66 OFFCURVE",
"168 21 OFFCURVE",
"103 21 CURVE SMOOTH",
"62 21 OFFCURVE",
"37 39 OFFCURVE",
"19 57 CURVE",
"7 57 OFFCURVE",
"0 50 OFFCURVE",
"-2 37 CURVE SMOOTH"
);
},
{
closed = 1;
nodes = (
"228 752 LINE",
"360 850 LINE",
"456 752 LINE",
"472 752 LINE",
"388 890 LINE",
"340 890 LINE",
"212 752 LINE"
);
}
);
width = 358;
}
);
leftKerningGroup = J;
note = Jcircumflex;
rightKerningGroup = J;
unicode = 0134;
},
{
glyphname = K;
lastChange = "2018-03-13 07:06:36 +0000";
layers = (
{
anchors = (
{
name = bottom;
position = "{224, 0}";
},
{
name = top;
position = "{335, 700}";
}
);
layerId = "A732778C-A9DB-4576-83EA-D63CA8B0AAB2";
paths = (
{
closed = 1;
nodes = (
"48 -3 OFFCURVE",
"51 -4 OFFCURVE",
"55 -4 CURVE SMOOTH",
"72 -4 OFFCURVE",
"82 9 OFFCURVE",
"86 31 CURVE SMOOTH",
"119 242 LINE",
"228 352 LINE",
"426 12 LINE",
"431 2 OFFCURVE",
"438 -4 OFFCURVE",
"454 -4 CURVE SMOOTH",
"461 -4 OFFCURVE",
"469 -3 OFFCURVE",
"476 0 CURVE",
"477 6 LINE",
"469 9 OFFCURVE",
"463 19 OFFCURVE",
"453 38 CURVE SMOOTH",
"281 339 LINE",
"271 355 OFFCURVE",
"262 363 OFFCURVE",
"248 363 CURVE SMOOTH",
"245 363 OFFCURVE",
"241 363 OFFCURVE",
"238 362 CURVE",
"571 700 LINE",
"565 702 OFFCURVE",
"559 703 OFFCURVE",
"552 703 CURVE SMOOTH",
"534 703 OFFCURVE",
"522 696 OFFCURVE",
"510 684 CURVE SMOOTH",
"128 295 LINE",
"192 700 LINE",
"187 703 OFFCURVE",
"184 704 OFFCURVE",
"180 704 CURVE SMOOTH",
"163 704 OFFCURVE",
"152 691 OFFCURVE",
"149 669 CURVE SMOOTH",
"43 0 LINE"
);
}
);
width = 528;
}
);
leftKerningGroup = H;
leftMetricsKey = H;
note = K;
rightKerningGroup = K;
unicode = 004B;
},
{
glyphname = Kcommaaccent;
lastChange = "2018-03-13 07:06:36 +0000";
layers = (
{
anchors = (
{
name = bottom;
position = "{177, -299}";
},
{
name = top;
position = "{335, 700}";
}
);
layerId = "A732778C-A9DB-4576-83EA-D63CA8B0AAB2";
paths = (
{
closed = 1;
nodes = (
"48 -3 OFFCURVE",
"51 -4 OFFCURVE",
"55 -4 CURVE SMOOTH",
"72 -4 OFFCURVE",
"82 9 OFFCURVE",
"86 31 CURVE SMOOTH",
"119 242 LINE",
"228 352 LINE",
"426 12 LINE",
"431 2 OFFCURVE",
"438 -4 OFFCURVE",
"454 -4 CURVE SMOOTH",
"461 -4 OFFCURVE",
"469 -3 OFFCURVE",
"476 0 CURVE",
"477 6 LINE",
"469 9 OFFCURVE",
"463 19 OFFCURVE",
"453 38 CURVE SMOOTH",
"281 339 LINE",
"271 355 OFFCURVE",
"262 363 OFFCURVE",
"248 363 CURVE SMOOTH",
"245 363 OFFCURVE",
"241 363 OFFCURVE",
"238 362 CURVE",
"571 700 LINE",
"565 702 OFFCURVE",
"559 703 OFFCURVE",
"552 703 CURVE SMOOTH",
"534 703 OFFCURVE",
"522 696 OFFCURVE",
"510 684 CURVE SMOOTH",
"128 295 LINE",
"192 700 LINE",
"187 703 OFFCURVE",
"184 704 OFFCURVE",
"180 704 CURVE SMOOTH",
"163 704 OFFCURVE",
"152 691 OFFCURVE",
"149 669 CURVE SMOOTH",
"43 0 LINE"
);
},
{
closed = 1;
nodes = (
"168 -227 LINE",
"206 -204 OFFCURVE",
"250 -148 OFFCURVE",
"250 -101 CURVE SMOOTH",
"250 -73 OFFCURVE",
"231 -60 OFFCURVE",
"210 -60 CURVE SMOOTH",
"185 -60 OFFCURVE",
"168 -80 OFFCURVE",
"168 -105 CURVE SMOOTH",
"168 -125 OFFCURVE",
"181 -140 OFFCURVE",
"202 -140 CURVE",
"201 -163 OFFCURVE",
"177 -190 OFFCURVE",
"156 -205 CURVE"
);
}
);
width = 528;
}
);
note = Kcommaaccent;
rightKerningGroup = K;
unicode = 0136;
},
{
glyphname = L;
lastChange = "2018-03-13 07:06:36 +0000";
layers = (
{
anchors = (
{
name = bottom;
position = "{218, 0}";
},
{
name = center;
position = "{303, 350}";
},
{
name = top;
position = "{181, 700}";
},
{
name = topright;
position = "{526, 700}";
}
);
layerId = "A732778C-A9DB-4576-83EA-D63CA8B0AAB2";
paths = (
{
closed = 1;
nodes = (
"29 0 LINE",
"380 0 LINE SMOOTH",
"398 0 OFFCURVE",
"410 7 OFFCURVE",
"412 20 CURVE",
"413 24 OFFCURVE",
"412 28 OFFCURVE",
"411 32 CURVE",
"75 32 LINE",
"96 74 OFFCURVE",
"108 136 OFFCURVE",
"117 188 CURVE SMOOTH",
"198 700 LINE",
"193 703 OFFCURVE",
"190 704 OFFCURVE",
"186 704 CURVE SMOOTH",
"169 704 OFFCURVE",
"158 691 OFFCURVE",
"155 669 CURVE SMOOTH",
"79 188 LINE SMOOTH",
"65 100 OFFCURVE",
"52 54 OFFCURVE",
"25 13 CURVE"
);
}
);
width = 475;
}
);
leftKerningGroup = F;
leftMetricsKey = F;
note = L;
rightKerningGroup = L;
unicode = 004C;
},
{
glyphname = Lacute;
lastChange = "2018-03-13 07:06:36 +0000";
layers = (
{
anchors = (
{
name = bottom;
position = "{218, 0}";
},
{
name = center;
position = "{303, 350}";
},
{
name = top;
position = "{262, 890}";
},
{
name = topright;
position = "{526, 700}";
}
);
layerId = "A732778C-A9DB-4576-83EA-D63CA8B0AAB2";
paths = (
{
closed = 1;
nodes = (
"29 0 LINE",
"380 0 LINE SMOOTH",
"398 0 OFFCURVE",
"410 7 OFFCURVE",
"412 20 CURVE",
"413 24 OFFCURVE",
"412 28 OFFCURVE",
"411 32 CURVE",
"75 32 LINE",
"96 74 OFFCURVE",
"108 136 OFFCURVE",
"117 188 CURVE SMOOTH",
"198 700 LINE",
"193 703 OFFCURVE",
"190 704 OFFCURVE",
"186 704 CURVE SMOOTH",
"169 704 OFFCURVE",
"158 691 OFFCURVE",
"155 669 CURVE SMOOTH",
"79 188 LINE SMOOTH",
"65 100 OFFCURVE",
"52 54 OFFCURVE",
"25 13 CURVE"
);
},
{
closed = 1;
nodes = (
"169 752 LINE",
"284 890 LINE",
"240 890 LINE",
"153 752 LINE"
);
}
);
width = 475;
}
);
note = Lacute;
rightKerningGroup = L;
unicode = 0139;
},
{
glyphname = Lcaron;
lastChange = "2018-03-13 07:06:36 +0000";
layers = (
{
anchors = (
{
name = bottom;
position = "{218, 0}";
},
{
name = center;
position = "{303, 350}";
},
{
name = top;
position = "{181, 700}";
},
{
name = topright;
position = "{526, 700}";
}
);
layerId = "A732778C-A9DB-4576-83EA-D63CA8B0AAB2";
paths = (
{
closed = 1;
nodes = (
"29 0 LINE",
"380 0 LINE SMOOTH",
"398 0 OFFCURVE",
"410 7 OFFCURVE",
"412 20 CURVE",
"413 24 OFFCURVE",
"412 28 OFFCURVE",
"411 32 CURVE",
"75 32 LINE",
"96 74 OFFCURVE",
"108 136 OFFCURVE",
"117 188 CURVE SMOOTH",
"198 700 LINE",
"193 703 OFFCURVE",
"190 704 OFFCURVE",
"186 704 CURVE SMOOTH",
"169 704 OFFCURVE",
"158 691 OFFCURVE",
"155 669 CURVE SMOOTH",
"79 188 LINE SMOOTH",
"65 100 OFFCURVE",
"52 54 OFFCURVE",
"25 13 CURVE"
);
},
{
closed = 1;
nodes = (
"375 553 LINE",
"414 577 OFFCURVE",
"456 631 OFFCURVE",
"456 680 CURVE SMOOTH",
"456 708 OFFCURVE",
"440 720 OFFCURVE",
"419 720 CURVE SMOOTH",
"393 720 OFFCURVE",
"374 699 OFFCURVE",
"374 673 CURVE SMOOTH",
"374 654 OFFCURVE",
"388 640 OFFCURVE",
"408 640 CURVE",
"408 617 OFFCURVE",
"383 590 OFFCURVE",
"362 575 CURVE"
);
}
);
width = 475;
}
);
note = Lcaron;
rightKerningGroup = L;
unicode = 013D;
},
{
glyphname = Lcommaaccent;
lastChange = "2018-03-13 07:06:36 +0000";
layers = (
{
anchors = (
{
name = bottom;
position = "{171, -299}";
},
{
name = center;
position = "{303, 350}";
},
{
name = top;
position = "{181, 700}";
},
{
name = topright;
position = "{526, 700}";
}
);
layerId = "A732778C-A9DB-4576-83EA-D63CA8B0AAB2";
paths = (
{
closed = 1;
nodes = (
"29 0 LINE",
"380 0 LINE SMOOTH",
"398 0 OFFCURVE",
"410 7 OFFCURVE",
"412 20 CURVE",
"413 24 OFFCURVE",
"412 28 OFFCURVE",
"411 32 CURVE",
"75 32 LINE",
"96 74 OFFCURVE",
"108 136 OFFCURVE",
"117 188 CURVE SMOOTH",
"198 700 LINE",
"193 703 OFFCURVE",
"190 704 OFFCURVE",
"186 704 CURVE SMOOTH",
"169 704 OFFCURVE",
"158 691 OFFCURVE",
"155 669 CURVE SMOOTH",
"79 188 LINE SMOOTH",
"65 100 OFFCURVE",
"52 54 OFFCURVE",
"25 13 CURVE"
);
},
{
closed = 1;
nodes = (
"162 -227 LINE",
"200 -204 OFFCURVE",
"244 -148 OFFCURVE",
"244 -101 CURVE SMOOTH",
"244 -73 OFFCURVE",
"225 -60 OFFCURVE",
"204 -60 CURVE SMOOTH",
"179 -60 OFFCURVE",
"162 -80 OFFCURVE",
"162 -105 CURVE SMOOTH",
"162 -125 OFFCURVE",
"175 -140 OFFCURVE",
"196 -140 CURVE",
"195 -163 OFFCURVE",
"171 -190 OFFCURVE",
"150 -205 CURVE"
);
}
);
width = 475;
}
);
note = Lcommaaccent;
rightKerningGroup = L;
unicode = 013B;
},
{
glyphname = Ldot;
lastChange = "2018-03-13 07:06:36 +0000";
layers = (
{
anchors = (
{
name = bottom;
position = "{218, 0}";
},
{
name = center;
position = "{303, 350}";
},
{
name = top;
position = "{181, 700}";
},
{
name = topright;
position = "{526, 700}";
}
);
layerId = "A732778C-A9DB-4576-83EA-D63CA8B0AAB2";
paths = (
{
closed = 1;
nodes = (
"29 0 LINE",
"380 0 LINE SMOOTH",
"398 0 OFFCURVE",
"410 7 OFFCURVE",
"412 20 CURVE",
"413 24 OFFCURVE",
"412 28 OFFCURVE",
"411 32 CURVE",
"75 32 LINE",
"96 74 OFFCURVE",
"108 136 OFFCURVE",
"117 188 CURVE SMOOTH",
"198 700 LINE",
"193 703 OFFCURVE",
"190 704 OFFCURVE",
"186 704 CURVE SMOOTH",
"169 704 OFFCURVE",
"158 691 OFFCURVE",
"155 669 CURVE SMOOTH",
"79 188 LINE SMOOTH",
"65 100 OFFCURVE",
"52 54 OFFCURVE",
"25 13 CURVE"
);
},
{
closed = 1;
nodes = (
"266 325 OFFCURVE",
"280 312 OFFCURVE",
"300 312 CURVE SMOOTH",
"325 312 OFFCURVE",
"345 332 OFFCURVE",
"345 357 CURVE SMOOTH",
"345 376 OFFCURVE",
"333 390 OFFCURVE",
"312 390 CURVE SMOOTH",
"287 390 OFFCURVE",
"266 369 OFFCURVE",
"266 344 CURVE SMOOTH"
);
}
);
width = 475;
}
);
note = Ldot;
rightKerningGroup = L;
unicode = 013F;
},
{
glyphname = Ldotbelow;
lastChange = "2018-03-13 07:06:36 +0000";
layers = (
{
anchors = (
{
name = bottom;
position = "{196, -140}";
},
{
name = center;
position = "{303, 350}";
},
{
name = top;
position = "{181, 700}";
},
{
name = topright;
position = "{526, 700}";
}
);
layerId = "A732778C-A9DB-4576-83EA-D63CA8B0AAB2";
paths = (
{
closed = 1;
nodes = (
"29 0 LINE",
"380 0 LINE SMOOTH",
"398 0 OFFCURVE",
"410 7 OFFCURVE",
"412 20 CURVE",
"413 24 OFFCURVE",
"412 28 OFFCURVE",
"411 32 CURVE",
"75 32 LINE",
"96 74 OFFCURVE",
"108 136 OFFCURVE",
"117 188 CURVE SMOOTH",
"198 700 LINE",
"193 703 OFFCURVE",
"190 704 OFFCURVE",
"186 704 CURVE SMOOTH",
"169 704 OFFCURVE",
"158 691 OFFCURVE",
"155 669 CURVE SMOOTH",
"79 188 LINE SMOOTH",
"65 100 OFFCURVE",
"52 54 OFFCURVE",
"25 13 CURVE"
);
},
{
closed = 1;
nodes = (
"162 -125 OFFCURVE",
"176 -138 OFFCURVE",
"196 -138 CURVE SMOOTH",
"223 -138 OFFCURVE",
"242 -119 OFFCURVE",
"242 -92 CURVE SMOOTH",
"242 -73 OFFCURVE",
"229 -60 OFFCURVE",
"208 -60 CURVE SMOOTH",
"181 -60 OFFCURVE",
"162 -79 OFFCURVE",
"162 -105 CURVE SMOOTH"
);
}
);
width = 475;
}
);
note = Ldotbelow;
rightKerningGroup = L;
unicode = 1E36;
},
{
glyphname = Ldotbelowmacron;
lastChange = "2018-03-13 07:06:36 +0000";
layers = (
{
anchors = (
{
name = bottom;
position = "{196, -140}";
},
{
name = center;
position = "{303, 350}";
},
{
name = top;
position = "{345, 790}";
},
{
name = topright;
position = "{526, 700}";
}
);
layerId = "A732778C-A9DB-4576-83EA-D63CA8B0AAB2";
paths = (
{
closed = 1;
nodes = (
"29 0 LINE",
"380 0 LINE SMOOTH",
"398 0 OFFCURVE",
"410 7 OFFCURVE",
"412 20 CURVE",
"413 24 OFFCURVE",
"412 28 OFFCURVE",
"411 32 CURVE",
"75 32 LINE",
"96 74 OFFCURVE",
"108 136 OFFCURVE",
"117 188 CURVE SMOOTH",
"198 700 LINE",
"193 703 OFFCURVE",
"190 704 OFFCURVE",
"186 704 CURVE SMOOTH",
"169 704 OFFCURVE",
"158 691 OFFCURVE",
"155 669 CURVE SMOOTH",
"79 188 LINE SMOOTH",
"65 100 OFFCURVE",
"52 54 OFFCURVE",
"25 13 CURVE"
);
},
{
closed = 1;
nodes = (
"162 -125 OFFCURVE",
"176 -138 OFFCURVE",
"196 -138 CURVE SMOOTH",
"223 -138 OFFCURVE",
"242 -119 OFFCURVE",
"242 -92 CURVE SMOOTH",
"242 -73 OFFCURVE",
"229 -60 OFFCURVE",
"208 -60 CURVE SMOOTH",
"181 -60 OFFCURVE",
"162 -79 OFFCURVE",
"162 -105 CURVE SMOOTH"
);
},
{
closed = 1;
nodes = (
"492 760 LINE",
"497 790 LINE",
"193 790 LINE",
"188 760 LINE"
);
}
);
width = 475;
}
);
note = Ldotbelowmacron;
rightKerningGroup = L;
unicode = 1E38;
},
{
glyphname = Llinebelow;
lastChange = "2018-03-13 07:06:36 +0000";
layers = (
{
anchors = (
{
name = bottom;
position = "{202, -102}";
},
{
name = center;
position = "{303, 350}";
},
{
name = top;
position = "{181, 700}";
},
{
name = topright;
position = "{526, 700}";
}
);
layerId = "A732778C-A9DB-4576-83EA-D63CA8B0AAB2";
paths = (
{
closed = 1;
nodes = (
"29 0 LINE",
"380 0 LINE SMOOTH",
"398 0 OFFCURVE",
"410 7 OFFCURVE",
"412 20 CURVE",
"413 24 OFFCURVE",
"412 28 OFFCURVE",
"411 32 CURVE",
"75 32 LINE",
"96 74 OFFCURVE",
"108 136 OFFCURVE",
"117 188 CURVE SMOOTH",
"198 700 LINE",
"193 703 OFFCURVE",
"190 704 OFFCURVE",
"186 704 CURVE SMOOTH",
"169 704 OFFCURVE",
"158 691 OFFCURVE",
"155 669 CURVE SMOOTH",
"79 188 LINE SMOOTH",
"65 100 OFFCURVE",
"52 54 OFFCURVE",
"25 13 CURVE"
);
},
{
closed = 1;
nodes = (
"354 -102 LINE",
"359 -72 LINE",
"55 -72 LINE",
"50 -102 LINE"
);
}
);
width = 475;
}
);
note = Llinebelow;
rightKerningGroup = L;
unicode = 1E3A;
},
{
glyphname = Lslash;
lastChange = "2018-03-13 07:06:36 +0000";
layers = (
{
anchors = (
{
name = bottom;
position = "{218, 0}";
},
{
name = center;
position = "{303, 350}";
},
{
name = top;
position = "{181, 700}";
},
{
name = topright;
position = "{526, 700}";
}
);
layerId = "A732778C-A9DB-4576-83EA-D63CA8B0AAB2";
paths = (
{
closed = 1;
nodes = (
"106 360 LINE",
"79 188 LINE SMOOTH",
"65 100 OFFCURVE",
"52 54 OFFCURVE",
"25 13 CURVE",
"29 0 LINE",
"380 0 LINE SMOOTH",
"398 0 OFFCURVE",
"410 7 OFFCURVE",
"412 20 CURVE",
"413 24 OFFCURVE",
"412 28 OFFCURVE",
"411 32 CURVE",
"75 32 LINE",
"96 74 OFFCURVE",
"108 136 OFFCURVE",
"117 188 CURVE SMOOTH",
"147 375 LINE",
"383 464 LINE",
"389 496 LINE",
"152 407 LINE",
"198 700 LINE",
"193 703 OFFCURVE",
"190 704 OFFCURVE",
"186 704 CURVE SMOOTH",
"169 704 OFFCURVE",
"158 691 OFFCURVE",
"155 669 CURVE SMOOTH",
"111 392 LINE",
"16 356 LINE",
"11 324 LINE"
);
}
);
width = 475;
}
);
note = Lslash;
rightMetricsKey = L;
unicode = 0141;
},
{
glyphname = M;
lastChange = "2018-03-13 07:06:36 +0000";
layers = (
{
anchors = (
{
name = bottom;
position = "{347, 0}";
},
{
name = top;
position = "{458, 700}";
}
);
layerId = "A732778C-A9DB-4576-83EA-D63CA8B0AAB2";
paths = (
{
closed = 1;
nodes = (
"48 -3 OFFCURVE",
"51 -4 OFFCURVE",
"55 -4 CURVE SMOOTH",
"72 -4 OFFCURVE",
"82 9 OFFCURVE",
"86 31 CURVE SMOOTH",
"182 640 LINE",
"350 70 LINE",
"366 70 LINE",
"677 578 LINE",
"696 611 OFFCURVE",
"708 633 OFFCURVE",
"718 648 CURVE",
"713 629 OFFCURVE",
"709 607 OFFCURVE",
"705 581 CURVE SMOOTH",
"613 0 LINE",
"618 -3 OFFCURVE",
"621 -4 OFFCURVE",
"625 -4 CURVE SMOOTH",
"642 -4 OFFCURVE",
"652 9 OFFCURVE",
"656 31 CURVE SMOOTH",
"743 581 LINE SMOOTH",
"752 637 OFFCURVE",
"761 660 OFFCURVE",
"782 687 CURVE",
"778 700 LINE",
"767 700 OFFCURVE",
"752 704 OFFCURVE",
"742 704 CURVE SMOOTH",
"721 704 OFFCURVE",
"709 696 OFFCURVE",
"691 666 CURVE SMOOTH",
"368 134 LINE",
"204 700 LINE",
"198 703 OFFCURVE",
"192 704 OFFCURVE",
"188 704 CURVE SMOOTH",
"166 704 OFFCURVE",
"152 690 OFFCURVE",
"148 664 CURVE SMOOTH",
"43 0 LINE"
);
}
);
width = 775;
}
);
leftKerningGroup = H;
leftMetricsKey = H;
note = M;
rightKerningGroup = M;
unicode = 004D;
},
{
glyphname = Mdotbelow;
lastChange = "2018-03-13 07:06:36 +0000";
layers = (
{
anchors = (
{
name = bottom;
position = "{325, -140}";
},
{
name = top;
position = "{458, 700}";
}
);
layerId = "A732778C-A9DB-4576-83EA-D63CA8B0AAB2";
paths = (
{
closed = 1;
nodes = (
"48 -3 OFFCURVE",
"51 -4 OFFCURVE",
"55 -4 CURVE SMOOTH",
"72 -4 OFFCURVE",
"82 9 OFFCURVE",
"86 31 CURVE SMOOTH",
"182 640 LINE",
"350 70 LINE",
"366 70 LINE",
"677 578 LINE",
"696 611 OFFCURVE",
"708 633 OFFCURVE",
"718 648 CURVE",
"713 629 OFFCURVE",
"709 607 OFFCURVE",
"705 581 CURVE SMOOTH",
"613 0 LINE",
"618 -3 OFFCURVE",
"621 -4 OFFCURVE",
"625 -4 CURVE SMOOTH",
"642 -4 OFFCURVE",
"652 9 OFFCURVE",
"656 31 CURVE SMOOTH",
"743 581 LINE SMOOTH",
"752 637 OFFCURVE",
"761 660 OFFCURVE",
"782 687 CURVE",
"778 700 LINE",
"767 700 OFFCURVE",
"752 704 OFFCURVE",
"742 704 CURVE SMOOTH",
"721 704 OFFCURVE",
"709 696 OFFCURVE",
"691 666 CURVE SMOOTH",
"368 134 LINE",
"204 700 LINE",
"198 703 OFFCURVE",
"192 704 OFFCURVE",
"188 704 CURVE SMOOTH",
"166 704 OFFCURVE",
"152 690 OFFCURVE",
"148 664 CURVE SMOOTH",
"43 0 LINE"
);
},
{
closed = 1;
nodes = (
"291 -125 OFFCURVE",
"305 -138 OFFCURVE",
"325 -138 CURVE SMOOTH",
"352 -138 OFFCURVE",
"371 -119 OFFCURVE",
"371 -92 CURVE SMOOTH",
"371 -73 OFFCURVE",
"358 -60 OFFCURVE",
"337 -60 CURVE SMOOTH",
"310 -60 OFFCURVE",
"291 -79 OFFCURVE",
"291 -105 CURVE SMOOTH"
);
}
);
width = 775;
}
);
note = Mdotbelow;
unicode = 1E42;
},
{
glyphname = N;
layers = (
{
anchors = (
{
name = bottom;
position = "{279, 0}";
},
{
name = top;
position = "{390, 700}";
}
);
layerId = "A732778C-A9DB-4576-83EA-D63CA8B0AAB2";
paths = (
{
closed = 1;
nodes = (
"48 -3 OFFCURVE",
"51 -4 OFFCURVE",
"55 -4 CURVE SMOOTH",
"72 -4 OFFCURVE",
"82 9 OFFCURVE",
"86 31 CURVE SMOOTH",
"183 647 LINE",
"465 0 LINE",
"471 -3 OFFCURVE",
"477 -4 OFFCURVE",
"481 -4 CURVE SMOOTH",
"503 -4 OFFCURVE",
"517 10 OFFCURVE",
"521 36 CURVE SMOOTH",
"626 700 LINE",
"621 703 OFFCURVE",
"618 704 OFFCURVE",
"614 704 CURVE SMOOTH",
"597 704 OFFCURVE",
"586 691 OFFCURVE",
"583 669 CURVE SMOOTH",
"485 53 LINE",
"204 700 LINE",
"198 703 OFFCURVE",
"192 704 OFFCURVE",
"188 704 CURVE SMOOTH",
"166 704 OFFCURVE",
"152 690 OFFCURVE",
"148 664 CURVE SMOOTH",
"43 0 LINE"
);
}
);
width = 639;
}
);
leftKerningGroup = H;
leftMetricsKey = "=|";
note = N;
rightKerningGroup = H;
rightMetricsKey = H;
unicode = 004E;
},
{
glyphname = Nacute;
layers = (
{
anchors = (
{
name = bottom;
position = "{279, 0}";
},
{
name = top;
position = "{471, 890}";
}
);
layerId = "A732778C-A9DB-4576-83EA-D63CA8B0AAB2";
paths = (
{
closed = 1;
nodes = (
"48 -3 OFFCURVE",
"51 -4 OFFCURVE",
"55 -4 CURVE SMOOTH",
"72 -4 OFFCURVE",
"82 9 OFFCURVE",
"86 31 CURVE SMOOTH",
"183 647 LINE",
"465 0 LINE",
"471 -3 OFFCURVE",
"477 -4 OFFCURVE",
"481 -4 CURVE SMOOTH",
"503 -4 OFFCURVE",
"517 10 OFFCURVE",
"521 36 CURVE SMOOTH",
"626 700 LINE",
"621 703 OFFCURVE",
"618 704 OFFCURVE",
"614 704 CURVE SMOOTH",
"597 704 OFFCURVE",
"586 691 OFFCURVE",
"583 669 CURVE SMOOTH",
"485 53 LINE",
"204 700 LINE",
"198 703 OFFCURVE",
"192 704 OFFCURVE",
"188 704 CURVE SMOOTH",
"166 704 OFFCURVE",
"152 690 OFFCURVE",
"148 664 CURVE SMOOTH",
"43 0 LINE"
);
},
{
closed = 1;
nodes = (
"378 752 LINE",
"493 890 LINE",
"449 890 LINE",
"362 752 LINE"
);
}
);
width = 639;
}
);
note = Nacute;
unicode = 0143;
},
{
glyphname = Ncaron;
layers = (
{
anchors = (
{
name = bottom;
position = "{279, 0}";
},
{
name = top;
position = "{420, 890}";
}
);
layerId = "A732778C-A9DB-4576-83EA-D63CA8B0AAB2";
paths = (
{
closed = 1;
nodes = (
"48 -3 OFFCURVE",
"51 -4 OFFCURVE",
"55 -4 CURVE SMOOTH",
"72 -4 OFFCURVE",
"82 9 OFFCURVE",
"86 31 CURVE SMOOTH",
"183 647 LINE",
"465 0 LINE",
"471 -3 OFFCURVE",
"477 -4 OFFCURVE",
"481 -4 CURVE SMOOTH",
"503 -4 OFFCURVE",
"517 10 OFFCURVE",
"521 36 CURVE SMOOTH",
"626 700 LINE",
"621 703 OFFCURVE",
"618 704 OFFCURVE",
"614 704 CURVE SMOOTH",
"597 704 OFFCURVE",
"586 691 OFFCURVE",
"583 669 CURVE SMOOTH",
"485 53 LINE",
"204 700 LINE",
"198 703 OFFCURVE",
"192 704 OFFCURVE",
"188 704 CURVE SMOOTH",
"166 704 OFFCURVE",
"152 690 OFFCURVE",
"148 664 CURVE SMOOTH",
"43 0 LINE"
);
},
{
closed = 1;
nodes = (
"374 752 LINE",
"422 752 LINE",
"550 890 LINE",
"534 890 LINE",
"402 792 LINE",
"306 890 LINE",
"290 890 LINE"
);
}
);
width = 639;
}
);
note = Ncaron;
unicode = 0147;
},
{
glyphname = Ncommaaccent;
layers = (
{
anchors = (
{
name = bottom;
position = "{232, -299}";
},
{
name = top;
position = "{390, 700}";
}
);
layerId = "A732778C-A9DB-4576-83EA-D63CA8B0AAB2";
paths = (
{
closed = 1;
nodes = (
"48 -3 OFFCURVE",
"51 -4 OFFCURVE",
"55 -4 CURVE SMOOTH",
"72 -4 OFFCURVE",
"82 9 OFFCURVE",
"86 31 CURVE SMOOTH",
"183 647 LINE",
"465 0 LINE",
"471 -3 OFFCURVE",
"477 -4 OFFCURVE",
"481 -4 CURVE SMOOTH",
"503 -4 OFFCURVE",
"517 10 OFFCURVE",
"521 36 CURVE SMOOTH",
"626 700 LINE",
"621 703 OFFCURVE",
"618 704 OFFCURVE",
"614 704 CURVE SMOOTH",
"597 704 OFFCURVE",
"586 691 OFFCURVE",
"583 669 CURVE SMOOTH",
"485 53 LINE",
"204 700 LINE",
"198 703 OFFCURVE",
"192 704 OFFCURVE",
"188 704 CURVE SMOOTH",
"166 704 OFFCURVE",
"152 690 OFFCURVE",
"148 664 CURVE SMOOTH",
"43 0 LINE"
);
},
{
closed = 1;
nodes = (
"223 -227 LINE",
"261 -204 OFFCURVE",
"305 -148 OFFCURVE",
"305 -101 CURVE SMOOTH",
"305 -73 OFFCURVE",
"286 -60 OFFCURVE",
"265 -60 CURVE SMOOTH",
"240 -60 OFFCURVE",
"223 -80 OFFCURVE",
"223 -105 CURVE SMOOTH",
"223 -125 OFFCURVE",
"236 -140 OFFCURVE",
"257 -140 CURVE",
"256 -163 OFFCURVE",
"232 -190 OFFCURVE",
"211 -205 CURVE"
);
}
);
width = 639;
}
);
note = Ncommaaccent;
unicode = 0145;
},
{
glyphname = Ndotaccent;
layers = (
{
anchors = (
{
name = bottom;
position = "{279, 0}";
},
{
name = top;
position = "{413, 843}";
}
);
layerId = "A732778C-A9DB-4576-83EA-D63CA8B0AAB2";
paths = (
{
closed = 1;
nodes = (
"48 -3 OFFCURVE",
"51 -4 OFFCURVE",
"55 -4 CURVE SMOOTH",
"72 -4 OFFCURVE",
"82 9 OFFCURVE",
"86 31 CURVE SMOOTH",
"183 647 LINE",
"465 0 LINE",
"471 -3 OFFCURVE",
"477 -4 OFFCURVE",
"481 -4 CURVE SMOOTH",
"503 -4 OFFCURVE",
"517 10 OFFCURVE",
"521 36 CURVE SMOOTH",
"626 700 LINE",
"621 703 OFFCURVE",
"618 704 OFFCURVE",
"614 704 CURVE SMOOTH",
"597 704 OFFCURVE",
"586 691 OFFCURVE",
"583 669 CURVE SMOOTH",
"485 53 LINE",
"204 700 LINE",
"198 703 OFFCURVE",
"192 704 OFFCURVE",
"188 704 CURVE SMOOTH",
"166 704 OFFCURVE",
"152 690 OFFCURVE",
"148 664 CURVE SMOOTH",
"43 0 LINE"
);
},
{
closed = 1;
nodes = (
"363 769 OFFCURVE",
"377 755 OFFCURVE",
"399 755 CURVE SMOOTH",
"429 755 OFFCURVE",
"449 775 OFFCURVE",
"449 805 CURVE SMOOTH",
"449 825 OFFCURVE",
"435 839 OFFCURVE",
"413 839 CURVE SMOOTH",
"383 839 OFFCURVE",
"363 819 OFFCURVE",
"363 789 CURVE SMOOTH"
);
}
);
width = 639;
}
);
note = Ndotaccent;
unicode = 1E44;
},
{
glyphname = Ndotbelow;
layers = (
{
anchors = (
{
name = bottom;
position = "{257, -140}";
},
{
name = top;
position = "{390, 700}";
}
);
layerId = "A732778C-A9DB-4576-83EA-D63CA8B0AAB2";
paths = (
{
closed = 1;
nodes = (
"48 -3 OFFCURVE",
"51 -4 OFFCURVE",
"55 -4 CURVE SMOOTH",
"72 -4 OFFCURVE",
"82 9 OFFCURVE",
"86 31 CURVE SMOOTH",
"183 647 LINE",
"465 0 LINE",
"471 -3 OFFCURVE",
"477 -4 OFFCURVE",
"481 -4 CURVE SMOOTH",
"503 -4 OFFCURVE",
"517 10 OFFCURVE",
"521 36 CURVE SMOOTH",
"626 700 LINE",
"621 703 OFFCURVE",
"618 704 OFFCURVE",
"614 704 CURVE SMOOTH",
"597 704 OFFCURVE",
"586 691 OFFCURVE",
"583 669 CURVE SMOOTH",
"485 53 LINE",
"204 700 LINE",
"198 703 OFFCURVE",
"192 704 OFFCURVE",
"188 704 CURVE SMOOTH",
"166 704 OFFCURVE",
"152 690 OFFCURVE",
"148 664 CURVE SMOOTH",
"43 0 LINE"
);
},
{
closed = 1;
nodes = (
"223 -125 OFFCURVE",
"237 -138 OFFCURVE",
"257 -138 CURVE SMOOTH",
"284 -138 OFFCURVE",
"303 -119 OFFCURVE",
"303 -92 CURVE SMOOTH",
"303 -73 OFFCURVE",
"290 -60 OFFCURVE",
"269 -60 CURVE SMOOTH",
"242 -60 OFFCURVE",
"223 -79 OFFCURVE",
"223 -105 CURVE SMOOTH"
);
}
);
width = 639;
}
);
note = uni1E46;
unicode = 1E46;
},
{
glyphname = Eng;
layers = (
{
anchors = (
{
name = bottom;
position = "{279, 0}";
},
{
name = top;
position = "{390, 700}";
}
);
layerId = "A732778C-A9DB-4576-83EA-D63CA8B0AAB2";
paths = (
{
closed = 1;
nodes = (
"48 -3 OFFCURVE",
"51 -4 OFFCURVE",
"55 -4 CURVE SMOOTH",
"72 -4 OFFCURVE",
"82 9 OFFCURVE",
"86 31 CURVE SMOOTH",
"183 647 LINE",
"465 0 LINE",
"469 -2 OFFCURVE",
"473 -3 OFFCURVE",
"476 -4 CURVE",
"475 -13 LINE",
"463 -94 OFFCURVE",
"420 -139 OFFCURVE",
"355 -139 CURVE SMOOTH",
"314 -139 OFFCURVE",
"289 -121 OFFCURVE",
"271 -103 CURVE",
"259 -103 OFFCURVE",
"252 -110 OFFCURVE",
"250 -123 CURVE SMOOTH",
"247 -144 OFFCURVE",
"289 -170 OFFCURVE",
"349 -170 CURVE SMOOTH",
"437 -170 OFFCURVE",
"498 -114 OFFCURVE",
"514 -13 CURVE SMOOTH",
"626 700 LINE",
"621 703 OFFCURVE",
"618 704 OFFCURVE",
"614 704 CURVE SMOOTH",
"597 704 OFFCURVE",
"586 691 OFFCURVE",
"583 669 CURVE SMOOTH",
"485 53 LINE",
"204 700 LINE",
"198 703 OFFCURVE",
"192 704 OFFCURVE",
"188 704 CURVE SMOOTH",
"166 704 OFFCURVE",
"152 690 OFFCURVE",
"148 664 CURVE SMOOTH",
"43 0 LINE"
);
}
);
width = 639;
}
);
leftMetricsKey = N;
note = Eng;
rightMetricsKey = N;
unicode = 014A;
},
{
glyphname = Nlinebelow;
layers = (
{
anchors = (
{
name = bottom;
position = "{263, -102}";
},
{
name = top;
position = "{390, 700}";
}
);
layerId = "A732778C-A9DB-4576-83EA-D63CA8B0AAB2";
paths = (
{
closed = 1;
nodes = (
"48 -3 OFFCURVE",
"51 -4 OFFCURVE",
"55 -4 CURVE SMOOTH",
"72 -4 OFFCURVE",
"82 9 OFFCURVE",
"86 31 CURVE SMOOTH",
"183 647 LINE",
"465 0 LINE",
"471 -3 OFFCURVE",
"477 -4 OFFCURVE",
"481 -4 CURVE SMOOTH",
"503 -4 OFFCURVE",
"517 10 OFFCURVE",
"521 36 CURVE SMOOTH",
"626 700 LINE",
"621 703 OFFCURVE",
"618 704 OFFCURVE",
"614 704 CURVE SMOOTH",
"597 704 OFFCURVE",
"586 691 OFFCURVE",
"583 669 CURVE SMOOTH",
"485 53 LINE",
"204 700 LINE",
"198 703 OFFCURVE",
"192 704 OFFCURVE",
"188 704 CURVE SMOOTH",
"166 704 OFFCURVE",
"152 690 OFFCURVE",
"148 664 CURVE SMOOTH",
"43 0 LINE"
);
},
{
closed = 1;
nodes = (
"415 -102 LINE",
"420 -72 LINE",
"116 -72 LINE",
"111 -102 LINE"
);
}
);
width = 639;
}
);
note = Nlinebelow;
unicode = 1E48;
},
{
glyphname = Ntilde;
layers = (
{
anchors = (
{
name = bottom;
position = "{279, 0}";
},
{
name = top;
position = "{415, 858}";
}
);
layerId = "A732778C-A9DB-4576-83EA-D63CA8B0AAB2";
paths = (
{
closed = 1;
nodes = (
"48 -3 OFFCURVE",
"51 -4 OFFCURVE",
"55 -4 CURVE SMOOTH",
"72 -4 OFFCURVE",
"82 9 OFFCURVE",
"86 31 CURVE SMOOTH",
"183 647 LINE",
"465 0 LINE",
"471 -3 OFFCURVE",
"477 -4 OFFCURVE",
"481 -4 CURVE SMOOTH",
"503 -4 OFFCURVE",
"517 10 OFFCURVE",
"521 36 CURVE SMOOTH",
"626 700 LINE",
"621 703 OFFCURVE",
"618 704 OFFCURVE",
"614 704 CURVE SMOOTH",
"597 704 OFFCURVE",
"586 691 OFFCURVE",
"583 669 CURVE SMOOTH",
"485 53 LINE",
"204 700 LINE",
"198 703 OFFCURVE",
"192 704 OFFCURVE",
"188 704 CURVE SMOOTH",
"166 704 OFFCURVE",
"152 690 OFFCURVE",
"148 664 CURVE SMOOTH",
"43 0 LINE"
);
},
{
closed = 1;
nodes = (
"279 752 LINE",
"292 798 OFFCURVE",
"316 824 OFFCURVE",
"342 824 CURVE SMOOTH",
"384 824 OFFCURVE",
"401 752 OFFCURVE",
"463 752 CURVE SMOOTH",
"509 752 OFFCURVE",
"548 793 OFFCURVE",
"562 858 CURVE",
"534 858 LINE",
"521 812 OFFCURVE",
"494 786 OFFCURVE",
"468 786 CURVE SMOOTH",
"426 786 OFFCURVE",
"410 858 OFFCURVE",
"348 858 CURVE SMOOTH",
"302 858 OFFCURVE",
"266 817 OFFCURVE",
"251 752 CURVE"
);
}
);
width = 639;
}
);
note = Ntilde;
unicode = 00D1;
},
{
glyphname = O;
layers = (
{
anchors = (
{
name = bottom;
position = "{321, 0}";
},
{
name = center;
position = "{376, 350}";
},
{
name = ogonek;
position = "{612, 10}";
},
{
name = top;
position = "{432, 700}";
},
{
name = topleft;
position = "{91, 700}";
},
{
name = topright;
position = "{664, 510}";
}
);
layerId = "A732778C-A9DB-4576-83EA-D63CA8B0AAB2";
paths = (
{
closed = 1;
nodes = (
"59 95 OFFCURVE",
"159 -10 OFFCURVE",
"323 -10 CURVE SMOOTH",
"553 -10 OFFCURVE",
"695 196 OFFCURVE",
"695 433 CURVE SMOOTH",
"695 605 OFFCURVE",
"594 710 OFFCURVE",
"428 710 CURVE SMOOTH",
"197 710 OFFCURVE",
"59 505 OFFCURVE",
"59 266 CURVE SMOOTH"
);
},
{
closed = 1;
nodes = (
"98 482 OFFCURVE",
"221 679 OFFCURVE",
"428 679 CURVE SMOOTH",
"572 679 OFFCURVE",
"655 584 OFFCURVE",
"655 429 CURVE SMOOTH",
"655 215 OFFCURVE",
"530 21 OFFCURVE",
"323 21 CURVE SMOOTH",
"180 21 OFFCURVE",
"98 115 OFFCURVE",
"98 270 CURVE SMOOTH"
);
}
);
width = 722;
}
);
leftKerningGroup = O;
note = O;
rightKerningGroup = O;
unicode = 004F;
},
{
glyphname = Oacute;
layers = (
{
anchors = (
{
name = bottom;
position = "{321, 0}";
},
{
name = center;
position = "{376, 350}";
},
{
name = ogonek;
position = "{612, 10}";
},
{
name = top;
position = "{513, 890}";
},
{
name = topleft;
position = "{91, 700}";
},
{
name = topright;
position = "{664, 510}";
}
);
layerId = "A732778C-A9DB-4576-83EA-D63CA8B0AAB2";
paths = (
{
closed = 1;
nodes = (
"59 95 OFFCURVE",
"159 -10 OFFCURVE",
"323 -10 CURVE SMOOTH",
"553 -10 OFFCURVE",
"695 196 OFFCURVE",
"695 433 CURVE SMOOTH",
"695 605 OFFCURVE",
"594 710 OFFCURVE",
"428 710 CURVE SMOOTH",
"197 710 OFFCURVE",
"59 505 OFFCURVE",
"59 266 CURVE SMOOTH"
);
},
{
closed = 1;
nodes = (
"98 482 OFFCURVE",
"221 679 OFFCURVE",
"428 679 CURVE SMOOTH",
"572 679 OFFCURVE",
"655 584 OFFCURVE",
"655 429 CURVE SMOOTH",
"655 215 OFFCURVE",
"530 21 OFFCURVE",
"323 21 CURVE SMOOTH",
"180 21 OFFCURVE",
"98 115 OFFCURVE",
"98 270 CURVE SMOOTH"
);
},
{
closed = 1;
nodes = (
"420 752 LINE",
"535 890 LINE",
"491 890 LINE",
"404 752 LINE"
);
}
);
width = 722;
}
);
leftKerningGroup = O;
note = Oacute;
rightKerningGroup = O;
unicode = 00D3;
},
{
glyphname = Obreve;
layers = (
{
anchors = (
{
name = bottom;
position = "{321, 0}";
},
{
name = center;
position = "{376, 350}";
},
{
name = ogonek;
position = "{612, 10}";
},
{
name = top;
position = "{459, 870}";
},
{
name = topleft;
position = "{91, 700}";
},
{
name = topright;
position = "{664, 510}";
}
);
layerId = "A732778C-A9DB-4576-83EA-D63CA8B0AAB2";
paths = (
{
closed = 1;
nodes = (
"59 95 OFFCURVE",
"159 -10 OFFCURVE",
"323 -10 CURVE SMOOTH",
"553 -10 OFFCURVE",
"695 196 OFFCURVE",
"695 433 CURVE SMOOTH",
"695 605 OFFCURVE",
"594 710 OFFCURVE",
"428 710 CURVE SMOOTH",
"197 710 OFFCURVE",
"59 505 OFFCURVE",
"59 266 CURVE SMOOTH"
);
},
{
closed = 1;
nodes = (
"98 482 OFFCURVE",
"221 679 OFFCURVE",
"428 679 CURVE SMOOTH",
"572 679 OFFCURVE",
"655 584 OFFCURVE",
"655 429 CURVE SMOOTH",
"655 215 OFFCURVE",
"530 21 OFFCURVE",
"323 21 CURVE SMOOTH",
"180 21 OFFCURVE",
"98 115 OFFCURVE",
"98 270 CURVE SMOOTH"
);
},
{
closed = 1;
nodes = (
"320 794 OFFCURVE",
"370 746 OFFCURVE",
"446 746 CURVE SMOOTH",
"522 746 OFFCURVE",
"574 794 OFFCURVE",
"589 870 CURVE",
"565 870 LINE",
"551 817 OFFCURVE",
"505 784 OFFCURVE",
"445 784 CURVE SMOOTH",
"385 784 OFFCURVE",
"349 817 OFFCURVE",
"353 870 CURVE",
"329 870 LINE"
);
}
);
width = 722;
}
);
leftKerningGroup = O;
note = Obreve;
rightKerningGroup = O;
unicode = 014E;
},
{
glyphname = Ocaron;
layers = (
{
anchors = (
{
name = bottom;
position = "{321, 0}";
},
{
name = center;
position = "{376, 350}";
},
{
name = ogonek;
position = "{612, 10}";
},
{
name = top;
position = "{462, 890}";
},
{
name = topleft;
position = "{91, 700}";
},
{
name = topright;
position = "{664, 510}";
}
);
layerId = "A732778C-A9DB-4576-83EA-D63CA8B0AAB2";
paths = (
{
closed = 1;
nodes = (
"59 95 OFFCURVE",
"159 -10 OFFCURVE",
"323 -10 CURVE SMOOTH",
"553 -10 OFFCURVE",
"695 196 OFFCURVE",
"695 433 CURVE SMOOTH",
"695 605 OFFCURVE",
"594 710 OFFCURVE",
"428 710 CURVE SMOOTH",
"197 710 OFFCURVE",
"59 505 OFFCURVE",
"59 266 CURVE SMOOTH"
);
},
{
closed = 1;
nodes = (
"98 482 OFFCURVE",
"221 679 OFFCURVE",
"428 679 CURVE SMOOTH",
"572 679 OFFCURVE",
"655 584 OFFCURVE",
"655 429 CURVE SMOOTH",
"655 215 OFFCURVE",
"530 21 OFFCURVE",
"323 21 CURVE SMOOTH",
"180 21 OFFCURVE",
"98 115 OFFCURVE",
"98 270 CURVE SMOOTH"
);
},
{
closed = 1;
nodes = (
"416 752 LINE",
"464 752 LINE",
"592 890 LINE",
"576 890 LINE",
"444 792 LINE",
"348 890 LINE",
"332 890 LINE"
);
}
);
width = 722;
}
);
leftKerningGroup = O;
note = Ocaron;
rightKerningGroup = O;
unicode = 01D1;
},
{
glyphname = Ocircumflex;
layers = (
{
anchors = (
{
name = bottom;
position = "{321, 0}";
},
{
name = center;
position = "{376, 350}";
},
{
name = ogonek;
position = "{612, 10}";
},
{
name = top;
position = "{462, 890}";
},
{
name = topleft;
position = "{91, 700}";
},
{
name = topright;
position = "{664, 510}";
}
);
layerId = "A732778C-A9DB-4576-83EA-D63CA8B0AAB2";
paths = (
{
closed = 1;
nodes = (
"59 95 OFFCURVE",
"159 -10 OFFCURVE",
"323 -10 CURVE SMOOTH",
"553 -10 OFFCURVE",
"695 196 OFFCURVE",
"695 433 CURVE SMOOTH",
"695 605 OFFCURVE",
"594 710 OFFCURVE",
"428 710 CURVE SMOOTH",
"197 710 OFFCURVE",
"59 505 OFFCURVE",
"59 266 CURVE SMOOTH"
);
},
{
closed = 1;
nodes = (
"98 482 OFFCURVE",
"221 679 OFFCURVE",
"428 679 CURVE SMOOTH",
"572 679 OFFCURVE",
"655 584 OFFCURVE",
"655 429 CURVE SMOOTH",
"655 215 OFFCURVE",
"530 21 OFFCURVE",
"323 21 CURVE SMOOTH",
"180 21 OFFCURVE",
"98 115 OFFCURVE",
"98 270 CURVE SMOOTH"
);
},
{
closed = 1;
nodes = (
"326 752 LINE",
"458 850 LINE",
"554 752 LINE",
"570 752 LINE",
"486 890 LINE",
"438 890 LINE",
"310 752 LINE"
);
}
);
width = 722;
}
);
leftKerningGroup = O;
note = Ocircumflex;
rightKerningGroup = O;
unicode = 00D4;
},
{
glyphname = Ocircumflexacute;
layers = (
{
anchors = (
{
name = bottom;
position = "{321, 0}";
},
{
name = center;
position = "{376, 350}";
},
{
name = ogonek;
position = "{612, 10}";
},
{
name = top;
position = "{472, 954}";
},
{
name = topleft;
position = "{91, 700}";
},
{
name = topright;
position = "{664, 510}";
}
);
layerId = "A732778C-A9DB-4576-83EA-D63CA8B0AAB2";
paths = (
{
closed = 1;
nodes = (
"59 95 OFFCURVE",
"159 -10 OFFCURVE",
"323 -10 CURVE SMOOTH",
"553 -10 OFFCURVE",
"695 196 OFFCURVE",
"695 433 CURVE SMOOTH",
"695 605 OFFCURVE",
"594 710 OFFCURVE",
"428 710 CURVE SMOOTH",
"197 710 OFFCURVE",
"59 505 OFFCURVE",
"59 266 CURVE SMOOTH"
);
},
{
closed = 1;
nodes = (
"98 482 OFFCURVE",
"221 679 OFFCURVE",
"428 679 CURVE SMOOTH",
"572 679 OFFCURVE",
"655 584 OFFCURVE",
"655 429 CURVE SMOOTH",
"655 215 OFFCURVE",
"530 21 OFFCURVE",
"323 21 CURVE SMOOTH",
"180 21 OFFCURVE",
"98 115 OFFCURVE",
"98 270 CURVE SMOOTH"
);
},
{
closed = 1;
nodes = (
"326 752 LINE",
"458 850 LINE",
"554 752 LINE",
"570 752 LINE",
"486 890 LINE",
"438 890 LINE",
"310 752 LINE"
);
},
{
closed = 1;
nodes = (
"555 839 LINE",
"670 949 LINE",
"626 949 LINE",
"539 839 LINE"
);
}
);
width = 722;
}
);
leftKerningGroup = O;
note = Ocircumflexacute;
rightKerningGroup = O;
unicode = 1ED0;
},
{
glyphname = Ocircumflexdotbelow;
layers = (
{
anchors = (
{
name = bottom;
position = "{299, -140}";
},
{
name = center;
position = "{376, 350}";
},
{
name = ogonek;
position = "{612, 10}";
},
{
name = top;
position = "{462, 890}";
},
{
name = topleft;
position = "{91, 700}";
},
{
name = topright;
position = "{664, 510}";
}
);
layerId = "A732778C-A9DB-4576-83EA-D63CA8B0AAB2";
paths = (
{
closed = 1;
nodes = (
"59 95 OFFCURVE",
"159 -10 OFFCURVE",
"323 -10 CURVE SMOOTH",
"553 -10 OFFCURVE",
"695 196 OFFCURVE",
"695 433 CURVE SMOOTH",
"695 605 OFFCURVE",
"594 710 OFFCURVE",
"428 710 CURVE SMOOTH",
"197 710 OFFCURVE",
"59 505 OFFCURVE",
"59 266 CURVE SMOOTH"
);
},
{
closed = 1;
nodes = (
"98 482 OFFCURVE",
"221 679 OFFCURVE",
"428 679 CURVE SMOOTH",
"572 679 OFFCURVE",
"655 584 OFFCURVE",
"655 429 CURVE SMOOTH",
"655 215 OFFCURVE",
"530 21 OFFCURVE",
"323 21 CURVE SMOOTH",
"180 21 OFFCURVE",
"98 115 OFFCURVE",
"98 270 CURVE SMOOTH"
);
},
{
closed = 1;
nodes = (
"265 -125 OFFCURVE",
"279 -138 OFFCURVE",
"299 -138 CURVE SMOOTH",
"326 -138 OFFCURVE",
"345 -119 OFFCURVE",
"345 -92 CURVE SMOOTH",
"345 -73 OFFCURVE",
"332 -60 OFFCURVE",
"311 -60 CURVE SMOOTH",
"284 -60 OFFCURVE",
"265 -79 OFFCURVE",
"265 -105 CURVE SMOOTH"
);
},
{
closed = 1;
nodes = (
"326 752 LINE",
"458 850 LINE",
"554 752 LINE",
"570 752 LINE",
"486 890 LINE",
"438 890 LINE",
"310 752 LINE"
);
}
);
width = 722;
}
);
leftKerningGroup = O;
note = Ocircumflexdotbelow;
rightKerningGroup = O;
unicode = 1ED8;
},
{
glyphname = Ocircumflexgrave;
layers = (
{
anchors = (
{
name = bottom;
position = "{321, 0}";
},
{
name = center;
position = "{376, 350}";
},
{
name = ogonek;
position = "{612, 10}";
},
{
name = top;
position = "{472, 954}";
},
{
name = topleft;
position = "{91, 700}";
},
{
name = topright;
position = "{664, 510}";
}
);
layerId = "A732778C-A9DB-4576-83EA-D63CA8B0AAB2";
paths = (
{
closed = 1;
nodes = (
"59 95 OFFCURVE",
"159 -10 OFFCURVE",
"323 -10 CURVE SMOOTH",
"553 -10 OFFCURVE",
"695 196 OFFCURVE",
"695 433 CURVE SMOOTH",
"695 605 OFFCURVE",
"594 710 OFFCURVE",
"428 710 CURVE SMOOTH",
"197 710 OFFCURVE",
"59 505 OFFCURVE",
"59 266 CURVE SMOOTH"
);
},
{
closed = 1;
nodes = (
"98 482 OFFCURVE",
"221 679 OFFCURVE",
"428 679 CURVE SMOOTH",
"572 679 OFFCURVE",
"655 584 OFFCURVE",
"655 429 CURVE SMOOTH",
"655 215 OFFCURVE",
"530 21 OFFCURVE",
"323 21 CURVE SMOOTH",
"180 21 OFFCURVE",
"98 115 OFFCURVE",
"98 270 CURVE SMOOTH"
);
},
{
closed = 1;
nodes = (
"326 752 LINE",
"458 850 LINE",
"554 752 LINE",
"570 752 LINE",
"486 890 LINE",
"438 890 LINE",
"310 752 LINE"
);
},
{
closed = 1;
nodes = (
"569 839 LINE",
"585 839 LINE",
"542 949 LINE",
"498 949 LINE"
);
}
);
width = 722;
}
);
leftKerningGroup = O;
note = Ocircumflexgrave;
rightKerningGroup = O;
unicode = 1ED2;
},
{
glyphname = Ocircumflexhookabove;
layers = (
{
anchors = (
{
name = bottom;
position = "{321, 0}";
},
{
name = center;
position = "{376, 350}";
},
{
name = ogonek;
position = "{612, 10}";
},
{
name = top;
position = "{474, 966}";
},
{
name = topleft;
position = "{91, 700}";
},
{
name = topright;
position = "{664, 510}";
}
);
layerId = "A732778C-A9DB-4576-83EA-D63CA8B0AAB2";
paths = (
{
closed = 1;
nodes = (
"59 95 OFFCURVE",
"159 -10 OFFCURVE",
"323 -10 CURVE SMOOTH",
"553 -10 OFFCURVE",
"695 196 OFFCURVE",
"695 433 CURVE SMOOTH",
"695 605 OFFCURVE",
"594 710 OFFCURVE",
"428 710 CURVE SMOOTH",
"197 710 OFFCURVE",
"59 505 OFFCURVE",
"59 266 CURVE SMOOTH"
);
},
{
closed = 1;
nodes = (
"98 482 OFFCURVE",
"221 679 OFFCURVE",
"428 679 CURVE SMOOTH",
"572 679 OFFCURVE",
"655 584 OFFCURVE",
"655 429 CURVE SMOOTH",
"655 215 OFFCURVE",
"530 21 OFFCURVE",
"323 21 CURVE SMOOTH",
"180 21 OFFCURVE",
"98 115 OFFCURVE",
"98 270 CURVE SMOOTH"
);
},
{
closed = 1;
nodes = (
"326 752 LINE",
"458 850 LINE",
"554 752 LINE",
"570 752 LINE",
"486 890 LINE",
"438 890 LINE",
"310 752 LINE"
);
},
{
closed = 1;
nodes = (
"549 944 OFFCURVE",
"560 948 OFFCURVE",
"572 948 CURVE SMOOTH",
"594 948 OFFCURVE",
"603 936 OFFCURVE",
"603 923 CURVE SMOOTH",
"603 903 OFFCURVE",
"581 867 OFFCURVE",
"541 840 CURVE",
"561 840 LINE",
"616 869 OFFCURVE",
"636 903 OFFCURVE",
"636 931 CURVE SMOOTH",
"636 957 OFFCURVE",
"615 972 OFFCURVE",
"586 972 CURVE SMOOTH",
"571 972 OFFCURVE",
"555 968 OFFCURVE",
"540 962 CURVE",
"537 940 LINE"
);
}
);
width = 722;
}
);
leftKerningGroup = O;
note = Ocircumflexhookabove;
rightKerningGroup = O;
unicode = 1ED4;
},
{
glyphname = Ocircumflextilde;
layers = (
{
anchors = (
{
name = bottom;
position = "{321, 0}";
},
{
name = center;
position = "{376, 350}";
},
{
name = ogonek;
position = "{612, 10}";
},
{
name = top;
position = "{481, 1013}";
},
{
name = topleft;
position = "{91, 700}";
},
{
name = topright;
position = "{664, 510}";
}
);
layerId = "A732778C-A9DB-4576-83EA-D63CA8B0AAB2";
paths = (
{
closed = 1;
nodes = (
"59 95 OFFCURVE",
"159 -10 OFFCURVE",
"323 -10 CURVE SMOOTH",
"553 -10 OFFCURVE",
"695 196 OFFCURVE",
"695 433 CURVE SMOOTH",
"695 605 OFFCURVE",
"594 710 OFFCURVE",
"428 710 CURVE SMOOTH",
"197 710 OFFCURVE",
"59 505 OFFCURVE",
"59 266 CURVE SMOOTH"
);
},
{
closed = 1;
nodes = (
"98 482 OFFCURVE",
"221 679 OFFCURVE",
"428 679 CURVE SMOOTH",
"572 679 OFFCURVE",
"655 584 OFFCURVE",
"655 429 CURVE SMOOTH",
"655 215 OFFCURVE",
"530 21 OFFCURVE",
"323 21 CURVE SMOOTH",
"180 21 OFFCURVE",
"98 115 OFFCURVE",
"98 270 CURVE SMOOTH"
);
},
{
closed = 1;
nodes = (
"326 752 LINE",
"458 850 LINE",
"554 752 LINE",
"570 752 LINE",
"486 890 LINE",
"438 890 LINE",
"310 752 LINE"
);
},
{
closed = 1;
nodes = (
"374 926 LINE",
"384 959 OFFCURVE",
"403 977 OFFCURVE",
"424 977 CURVE SMOOTH",
"458 977 OFFCURVE",
"471 926 OFFCURVE",
"521 926 CURVE SMOOTH",
"558 926 OFFCURVE",
"589 955 OFFCURVE",
"600 1001 CURVE",
"578 1001 LINE",
"567 968 OFFCURVE",
"546 950 OFFCURVE",
"525 950 CURVE SMOOTH",
"491 950 OFFCURVE",
"478 1001 OFFCURVE",
"429 1001 CURVE SMOOTH",
"392 1001 OFFCURVE",
"363 972 OFFCURVE",
"351 926 CURVE"
);
}
);
width = 722;
}
);
leftKerningGroup = O;
note = Ocircumflextilde;
rightKerningGroup = O;
unicode = 1ED6;
},
{
glyphname = Odieresis;
layers = (
{
anchors = (
{
name = bottom;
position = "{321, 0}";
},
{
name = center;
position = "{376, 350}";
},
{
name = ogonek;
position = "{612, 10}";
},
{
name = top;
position = "{453, 834}";
},
{
name = topleft;
position = "{91, 700}";
},
{
name = topright;
position = "{664, 510}";
}
);
layerId = "A732778C-A9DB-4576-83EA-D63CA8B0AAB2";
paths = (
{
closed = 1;
nodes = (
"59 95 OFFCURVE",
"159 -10 OFFCURVE",
"323 -10 CURVE SMOOTH",
"553 -10 OFFCURVE",
"695 196 OFFCURVE",
"695 433 CURVE SMOOTH",
"695 605 OFFCURVE",
"594 710 OFFCURVE",
"428 710 CURVE SMOOTH",
"197 710 OFFCURVE",
"59 505 OFFCURVE",
"59 266 CURVE SMOOTH"
);
},
{
closed = 1;
nodes = (
"98 482 OFFCURVE",
"221 679 OFFCURVE",
"428 679 CURVE SMOOTH",
"572 679 OFFCURVE",
"655 584 OFFCURVE",
"655 429 CURVE SMOOTH",
"655 215 OFFCURVE",
"530 21 OFFCURVE",
"323 21 CURVE SMOOTH",
"180 21 OFFCURVE",
"98 115 OFFCURVE",
"98 270 CURVE SMOOTH"
);
},
{
closed = 1;
nodes = (
"335 765 OFFCURVE",
"349 752 OFFCURVE",
"369 752 CURVE SMOOTH",
"396 752 OFFCURVE",
"415 771 OFFCURVE",
"415 798 CURVE SMOOTH",
"415 817 OFFCURVE",
"402 830 OFFCURVE",
"381 830 CURVE SMOOTH",
"354 830 OFFCURVE",
"335 811 OFFCURVE",
"335 785 CURVE SMOOTH"
);
},
{
closed = 1;
nodes = (
"476 765 OFFCURVE",
"490 752 OFFCURVE",
"510 752 CURVE SMOOTH",
"537 752 OFFCURVE",
"556 771 OFFCURVE",
"556 798 CURVE SMOOTH",
"556 817 OFFCURVE",
"543 830 OFFCURVE",
"522 830 CURVE SMOOTH",
"495 830 OFFCURVE",
"476 811 OFFCURVE",
"476 785 CURVE SMOOTH"
);
}
);
width = 722;
}
);
leftKerningGroup = O;
note = Odieresis;
rightKerningGroup = O;
unicode = 00D6;
},
{
glyphname = Odotbelow;
layers = (
{
anchors = (
{
name = bottom;
position = "{299, -140}";
},
{
name = center;
position = "{376, 350}";
},
{
name = ogonek;
position = "{612, 10}";
},
{
name = top;
position = "{432, 700}";
},
{
name = topleft;
position = "{91, 700}";
},
{
name = topright;
position = "{664, 510}";
}
);
layerId = "A732778C-A9DB-4576-83EA-D63CA8B0AAB2";
paths = (
{
closed = 1;
nodes = (
"59 95 OFFCURVE",
"159 -10 OFFCURVE",
"323 -10 CURVE SMOOTH",
"553 -10 OFFCURVE",
"695 196 OFFCURVE",
"695 433 CURVE SMOOTH",
"695 605 OFFCURVE",
"594 710 OFFCURVE",
"428 710 CURVE SMOOTH",
"197 710 OFFCURVE",
"59 505 OFFCURVE",
"59 266 CURVE SMOOTH"
);
},
{
closed = 1;
nodes = (
"98 482 OFFCURVE",
"221 679 OFFCURVE",
"428 679 CURVE SMOOTH",
"572 679 OFFCURVE",
"655 584 OFFCURVE",
"655 429 CURVE SMOOTH",
"655 215 OFFCURVE",
"530 21 OFFCURVE",
"323 21 CURVE SMOOTH",
"180 21 OFFCURVE",
"98 115 OFFCURVE",
"98 270 CURVE SMOOTH"
);
},
{
closed = 1;
nodes = (
"265 -125 OFFCURVE",
"279 -138 OFFCURVE",
"299 -138 CURVE SMOOTH",
"326 -138 OFFCURVE",
"345 -119 OFFCURVE",
"345 -92 CURVE SMOOTH",
"345 -73 OFFCURVE",
"332 -60 OFFCURVE",
"311 -60 CURVE SMOOTH",
"284 -60 OFFCURVE",
"265 -79 OFFCURVE",
"265 -105 CURVE SMOOTH"
);
}
);
width = 722;
}
);
leftKerningGroup = O;
note = Odotbelow;
rightKerningGroup = O;
unicode = 1ECC;
},
{
glyphname = Ograve;
layers = (
{
anchors = (
{
name = bottom;
position = "{321, 0}";
},
{
name = center;
position = "{376, 350}";
},
{
name = ogonek;
position = "{612, 10}";
},
{
name = top;
position = "{411, 890}";
},
{
name = topleft;
position = "{91, 700}";
},
{
name = topright;
position = "{664, 510}";
}
);
layerId = "A732778C-A9DB-4576-83EA-D63CA8B0AAB2";
paths = (
{
closed = 1;
nodes = (
"59 95 OFFCURVE",
"159 -10 OFFCURVE",
"323 -10 CURVE SMOOTH",
"553 -10 OFFCURVE",
"695 196 OFFCURVE",
"695 433 CURVE SMOOTH",
"695 605 OFFCURVE",
"594 710 OFFCURVE",
"428 710 CURVE SMOOTH",
"197 710 OFFCURVE",
"59 505 OFFCURVE",
"59 266 CURVE SMOOTH"
);
},
{
closed = 1;
nodes = (
"98 482 OFFCURVE",
"221 679 OFFCURVE",
"428 679 CURVE SMOOTH",
"572 679 OFFCURVE",
"655 584 OFFCURVE",
"655 429 CURVE SMOOTH",
"655 215 OFFCURVE",
"530 21 OFFCURVE",
"323 21 CURVE SMOOTH",
"180 21 OFFCURVE",
"98 115 OFFCURVE",
"98 270 CURVE SMOOTH"
);
},
{
closed = 1;
nodes = (
"460 752 LINE",
"476 752 LINE",
"433 890 LINE",
"389 890 LINE"
);
}
);
width = 722;
}
);
leftKerningGroup = O;
note = Ograve;
rightKerningGroup = O;
unicode = 00D2;
},
{
glyphname = Ohookabove;
layers = (
{
anchors = (
{
name = bottom;
position = "{321, 0}";
},
{
name = center;
position = "{376, 350}";
},
{
name = ogonek;
position = "{612, 10}";
},
{
name = top;
position = "{474, 917}";
},
{
name = topleft;
position = "{91, 700}";
},
{
name = topright;
position = "{664, 510}";
}
);
layerId = "A732778C-A9DB-4576-83EA-D63CA8B0AAB2";
paths = (
{
closed = 1;
nodes = (
"59 95 OFFCURVE",
"159 -10 OFFCURVE",
"323 -10 CURVE SMOOTH",
"553 -10 OFFCURVE",
"695 196 OFFCURVE",
"695 433 CURVE SMOOTH",
"695 605 OFFCURVE",
"594 710 OFFCURVE",
"428 710 CURVE SMOOTH",
"197 710 OFFCURVE",
"59 505 OFFCURVE",
"59 266 CURVE SMOOTH"
);
},
{
closed = 1;
nodes = (
"98 482 OFFCURVE",
"221 679 OFFCURVE",
"428 679 CURVE SMOOTH",
"572 679 OFFCURVE",
"655 584 OFFCURVE",
"655 429 CURVE SMOOTH",
"655 215 OFFCURVE",
"530 21 OFFCURVE",
"323 21 CURVE SMOOTH",
"180 21 OFFCURVE",
"98 115 OFFCURVE",
"98 270 CURVE SMOOTH"
);
},
{
closed = 1;
nodes = (
"427 883 OFFCURVE",
"440 887 OFFCURVE",
"455 887 CURVE SMOOTH",
"483 887 OFFCURVE",
"494 873 OFFCURVE",
"494 856 CURVE SMOOTH",
"494 831 OFFCURVE",
"467 786 OFFCURVE",
"417 752 CURVE",
"442 752 LINE",
"511 789 OFFCURVE",
"536 831 OFFCURVE",
"536 866 CURVE SMOOTH",
"536 899 OFFCURVE",
"509 917 OFFCURVE",
"473 917 CURVE SMOOTH",
"454 917 OFFCURVE",
"434 912 OFFCURVE",
"416 905 CURVE",
"412 877 LINE"
);
}
);
width = 722;
}
);
leftKerningGroup = O;
note = Ohookabove;
rightKerningGroup = O;
unicode = 1ECE;
},
{
glyphname = Ohorn;
lastChange = "2018-03-13 07:06:36 +0000";
layers = (
{
anchors = (
{
name = bottom;
position = "{321, 0}";
},
{
name = center;
position = "{376, 350}";
},
{
name = ogonek;
position = "{612, 10}";
},
{
name = top;
position = "{432, 700}";
},
{
name = topleft;
position = "{91, 700}";
},
{
name = topright;
position = "{664, 510}";
}
);
layerId = "A732778C-A9DB-4576-83EA-D63CA8B0AAB2";
paths = (
{
closed = 1;
nodes = (
"59 95 OFFCURVE",
"159 -10 OFFCURVE",
"323 -10 CURVE SMOOTH",
"553 -10 OFFCURVE",
"695 196 OFFCURVE",
"695 433 CURVE SMOOTH",
"695 460 OFFCURVE",
"693 485 OFFCURVE",
"688 508 CURVE",
"759 543 OFFCURVE",
"827 620 OFFCURVE",
"827 685 CURVE SMOOTH",
"827 709 OFFCURVE",
"807 720 OFFCURVE",
"788 720 CURVE SMOOTH",
"761 720 OFFCURVE",
"744 700 OFFCURVE",
"744 675 CURVE SMOOTH",
"744 655 OFFCURVE",
"757 640 OFFCURVE",
"783 640 CURVE",
"767 600 OFFCURVE",
"725 555 OFFCURVE",
"682 533 CURVE",
"649 645 OFFCURVE",
"559 710 OFFCURVE",
"428 710 CURVE SMOOTH",
"197 710 OFFCURVE",
"59 505 OFFCURVE",
"59 266 CURVE SMOOTH"
);
},
{
closed = 1;
nodes = (
"98 482 OFFCURVE",
"221 679 OFFCURVE",
"428 679 CURVE SMOOTH",
"572 679 OFFCURVE",
"655 584 OFFCURVE",
"655 429 CURVE SMOOTH",
"655 215 OFFCURVE",
"530 21 OFFCURVE",
"323 21 CURVE SMOOTH",
"180 21 OFFCURVE",
"98 115 OFFCURVE",
"98 270 CURVE SMOOTH"
);
}
);
width = 770;
}
);
note = Ohorn;
unicode = 01A0;
},
{
glyphname = Ohornacute;
lastChange = "2018-03-13 07:06:36 +0000";
layers = (
{
anchors = (
{
name = bottom;
position = "{321, 0}";
},
{
name = center;
position = "{376, 350}";
},
{
name = ogonek;
position = "{612, 10}";
},
{
name = top;
position = "{513, 890}";
},
{
name = topleft;
position = "{91, 700}";
},
{
name = topright;
position = "{664, 510}";
}
);
layerId = "A732778C-A9DB-4576-83EA-D63CA8B0AAB2";
paths = (
{
closed = 1;
nodes = (
"59 95 OFFCURVE",
"159 -10 OFFCURVE",
"323 -10 CURVE SMOOTH",
"553 -10 OFFCURVE",
"695 196 OFFCURVE",
"695 433 CURVE SMOOTH",
"695 460 OFFCURVE",
"693 485 OFFCURVE",
"688 508 CURVE",
"759 543 OFFCURVE",
"827 620 OFFCURVE",
"827 685 CURVE SMOOTH",
"827 709 OFFCURVE",
"807 720 OFFCURVE",
"788 720 CURVE SMOOTH",
"761 720 OFFCURVE",
"744 700 OFFCURVE",
"744 675 CURVE SMOOTH",
"744 655 OFFCURVE",
"757 640 OFFCURVE",
"783 640 CURVE",
"767 600 OFFCURVE",
"725 555 OFFCURVE",
"682 533 CURVE",
"649 645 OFFCURVE",
"559 710 OFFCURVE",
"428 710 CURVE SMOOTH",
"197 710 OFFCURVE",
"59 505 OFFCURVE",
"59 266 CURVE SMOOTH"
);
},
{
closed = 1;
nodes = (
"98 482 OFFCURVE",
"221 679 OFFCURVE",
"428 679 CURVE SMOOTH",
"572 679 OFFCURVE",
"655 584 OFFCURVE",
"655 429 CURVE SMOOTH",
"655 215 OFFCURVE",
"530 21 OFFCURVE",
"323 21 CURVE SMOOTH",
"180 21 OFFCURVE",
"98 115 OFFCURVE",
"98 270 CURVE SMOOTH"
);
},
{
closed = 1;
nodes = (
"420 752 LINE",
"535 890 LINE",
"491 890 LINE",
"404 752 LINE"
);
}
);
width = 770;
}
);
leftKerningGroup = O;
note = Ohornacute;
rightKerningGroup = O;
unicode = 1EDA;
},
{
glyphname = Ohorndotbelow;
lastChange = "2018-03-13 07:06:36 +0000";
layers = (
{
anchors = (
{
name = bottom;
position = "{299, -140}";
},
{
name = center;
position = "{376, 350}";
},
{
name = ogonek;
position = "{612, 10}";
},
{
name = top;
position = "{432, 700}";
},
{
name = topleft;
position = "{91, 700}";
},
{
name = topright;
position = "{664, 510}";
}
);
layerId = "A732778C-A9DB-4576-83EA-D63CA8B0AAB2";
paths = (
{
closed = 1;
nodes = (
"59 95 OFFCURVE",
"159 -10 OFFCURVE",
"323 -10 CURVE SMOOTH",
"553 -10 OFFCURVE",
"695 196 OFFCURVE",
"695 433 CURVE SMOOTH",
"695 460 OFFCURVE",
"693 485 OFFCURVE",
"688 508 CURVE",
"759 543 OFFCURVE",
"827 620 OFFCURVE",
"827 685 CURVE SMOOTH",
"827 709 OFFCURVE",
"807 720 OFFCURVE",
"788 720 CURVE SMOOTH",
"761 720 OFFCURVE",
"744 700 OFFCURVE",
"744 675 CURVE SMOOTH",
"744 655 OFFCURVE",
"757 640 OFFCURVE",
"783 640 CURVE",
"767 600 OFFCURVE",
"725 555 OFFCURVE",
"682 533 CURVE",
"649 645 OFFCURVE",
"559 710 OFFCURVE",
"428 710 CURVE SMOOTH",
"197 710 OFFCURVE",
"59 505 OFFCURVE",
"59 266 CURVE SMOOTH"
);
},
{
closed = 1;
nodes = (
"98 482 OFFCURVE",
"221 679 OFFCURVE",
"428 679 CURVE SMOOTH",
"572 679 OFFCURVE",
"655 584 OFFCURVE",
"655 429 CURVE SMOOTH",
"655 215 OFFCURVE",
"530 21 OFFCURVE",
"323 21 CURVE SMOOTH",
"180 21 OFFCURVE",
"98 115 OFFCURVE",
"98 270 CURVE SMOOTH"
);
},
{
closed = 1;
nodes = (
"265 -125 OFFCURVE",
"279 -138 OFFCURVE",
"299 -138 CURVE SMOOTH",
"326 -138 OFFCURVE",
"345 -119 OFFCURVE",
"345 -92 CURVE SMOOTH",
"345 -73 OFFCURVE",
"332 -60 OFFCURVE",
"311 -60 CURVE SMOOTH",
"284 -60 OFFCURVE",
"265 -79 OFFCURVE",
"265 -105 CURVE SMOOTH"
);
}
);
width = 770;
}
);
leftKerningGroup = O;
note = Ohorndotbelow;
rightKerningGroup = O;
unicode = 1EE2;
},
{
glyphname = Ohorngrave;
lastChange = "2018-03-13 07:06:36 +0000";
layers = (
{
anchors = (
{
name = bottom;
position = "{321, 0}";
},
{
name = center;
position = "{376, 350}";
},
{
name = ogonek;
position = "{612, 10}";
},
{
name = top;
position = "{411, 890}";
},
{
name = topleft;
position = "{91, 700}";
},
{
name = topright;
position = "{664, 510}";
}
);
layerId = "A732778C-A9DB-4576-83EA-D63CA8B0AAB2";
paths = (
{
closed = 1;
nodes = (
"59 95 OFFCURVE",
"159 -10 OFFCURVE",
"323 -10 CURVE SMOOTH",
"553 -10 OFFCURVE",
"695 196 OFFCURVE",
"695 433 CURVE SMOOTH",
"695 460 OFFCURVE",
"693 485 OFFCURVE",
"688 508 CURVE",
"759 543 OFFCURVE",
"827 620 OFFCURVE",
"827 685 CURVE SMOOTH",
"827 709 OFFCURVE",
"807 720 OFFCURVE",
"788 720 CURVE SMOOTH",
"761 720 OFFCURVE",
"744 700 OFFCURVE",
"744 675 CURVE SMOOTH",
"744 655 OFFCURVE",
"757 640 OFFCURVE",
"783 640 CURVE",
"767 600 OFFCURVE",
"725 555 OFFCURVE",
"682 533 CURVE",
"649 645 OFFCURVE",
"559 710 OFFCURVE",
"428 710 CURVE SMOOTH",
"197 710 OFFCURVE",
"59 505 OFFCURVE",
"59 266 CURVE SMOOTH"
);
},
{
closed = 1;
nodes = (
"98 482 OFFCURVE",
"221 679 OFFCURVE",
"428 679 CURVE SMOOTH",
"572 679 OFFCURVE",
"655 584 OFFCURVE",
"655 429 CURVE SMOOTH",
"655 215 OFFCURVE",
"530 21 OFFCURVE",
"323 21 CURVE SMOOTH",
"180 21 OFFCURVE",
"98 115 OFFCURVE",
"98 270 CURVE SMOOTH"
);
},
{
closed = 1;
nodes = (
"460 752 LINE",
"476 752 LINE",
"433 890 LINE",
"389 890 LINE"
);
}
);
width = 770;
}
);
leftKerningGroup = O;
note = Ohorngrave;
rightKerningGroup = O;
unicode = 1EDC;
},
{
glyphname = Ohornhookabove;
lastChange = "2018-03-13 07:06:36 +0000";
layers = (
{
anchors = (
{
name = bottom;
position = "{321, 0}";
},
{
name = center;
position = "{376, 350}";
},
{
name = ogonek;
position = "{612, 10}";
},
{
name = top;
position = "{474, 917}";
},
{
name = topleft;
position = "{91, 700}";
},
{
name = topright;
position = "{664, 510}";
}
);
layerId = "A732778C-A9DB-4576-83EA-D63CA8B0AAB2";
paths = (
{
closed = 1;
nodes = (
"59 95 OFFCURVE",
"159 -10 OFFCURVE",
"323 -10 CURVE SMOOTH",
"553 -10 OFFCURVE",
"695 196 OFFCURVE",
"695 433 CURVE SMOOTH",
"695 460 OFFCURVE",
"693 485 OFFCURVE",
"688 508 CURVE",
"759 543 OFFCURVE",
"827 620 OFFCURVE",
"827 685 CURVE SMOOTH",
"827 709 OFFCURVE",
"807 720 OFFCURVE",
"788 720 CURVE SMOOTH",
"761 720 OFFCURVE",
"744 700 OFFCURVE",
"744 675 CURVE SMOOTH",
"744 655 OFFCURVE",
"757 640 OFFCURVE",
"783 640 CURVE",
"767 600 OFFCURVE",
"725 555 OFFCURVE",
"682 533 CURVE",
"649 645 OFFCURVE",
"559 710 OFFCURVE",
"428 710 CURVE SMOOTH",
"197 710 OFFCURVE",
"59 505 OFFCURVE",
"59 266 CURVE SMOOTH"
);
},
{
closed = 1;
nodes = (
"98 482 OFFCURVE",
"221 679 OFFCURVE",
"428 679 CURVE SMOOTH",
"572 679 OFFCURVE",
"655 584 OFFCURVE",
"655 429 CURVE SMOOTH",
"655 215 OFFCURVE",
"530 21 OFFCURVE",
"323 21 CURVE SMOOTH",
"180 21 OFFCURVE",
"98 115 OFFCURVE",
"98 270 CURVE SMOOTH"
);
},
{
closed = 1;
nodes = (
"427 883 OFFCURVE",
"440 887 OFFCURVE",
"455 887 CURVE SMOOTH",
"483 887 OFFCURVE",
"494 873 OFFCURVE",
"494 856 CURVE SMOOTH",
"494 831 OFFCURVE",
"467 786 OFFCURVE",
"417 752 CURVE",
"442 752 LINE",
"511 789 OFFCURVE",
"536 831 OFFCURVE",
"536 866 CURVE SMOOTH",
"536 899 OFFCURVE",
"509 917 OFFCURVE",
"473 917 CURVE SMOOTH",
"454 917 OFFCURVE",
"434 912 OFFCURVE",
"416 905 CURVE",
"412 877 LINE"
);
}
);
width = 770;
}
);
leftKerningGroup = O;
note = Ohornhookabove;
rightKerningGroup = O;
unicode = 1EDE;
},
{
glyphname = Ohorntilde;
lastChange = "2018-03-13 07:06:36 +0000";
layers = (
{
anchors = (
{
name = bottom;
position = "{321, 0}";
},
{
name = center;
position = "{376, 350}";
},
{
name = ogonek;
position = "{612, 10}";
},
{
name = top;
position = "{457, 858}";
},
{
name = topleft;
position = "{91, 700}";
},
{
name = topright;
position = "{664, 510}";
}
);
layerId = "A732778C-A9DB-4576-83EA-D63CA8B0AAB2";
paths = (
{
closed = 1;
nodes = (
"59 95 OFFCURVE",
"159 -10 OFFCURVE",
"323 -10 CURVE SMOOTH",
"553 -10 OFFCURVE",
"695 196 OFFCURVE",
"695 433 CURVE SMOOTH",
"695 460 OFFCURVE",
"693 485 OFFCURVE",
"688 508 CURVE",
"759 543 OFFCURVE",
"827 620 OFFCURVE",
"827 685 CURVE SMOOTH",
"827 709 OFFCURVE",
"807 720 OFFCURVE",
"788 720 CURVE SMOOTH",
"761 720 OFFCURVE",
"744 700 OFFCURVE",
"744 675 CURVE SMOOTH",
"744 655 OFFCURVE",
"757 640 OFFCURVE",
"783 640 CURVE",
"767 600 OFFCURVE",
"725 555 OFFCURVE",
"682 533 CURVE",
"649 645 OFFCURVE",
"559 710 OFFCURVE",
"428 710 CURVE SMOOTH",
"197 710 OFFCURVE",
"59 505 OFFCURVE",
"59 266 CURVE SMOOTH"
);
},
{
closed = 1;
nodes = (
"98 482 OFFCURVE",
"221 679 OFFCURVE",
"428 679 CURVE SMOOTH",
"572 679 OFFCURVE",
"655 584 OFFCURVE",
"655 429 CURVE SMOOTH",
"655 215 OFFCURVE",
"530 21 OFFCURVE",
"323 21 CURVE SMOOTH",
"180 21 OFFCURVE",
"98 115 OFFCURVE",
"98 270 CURVE SMOOTH"
);
},
{
closed = 1;
nodes = (
"321 752 LINE",
"334 798 OFFCURVE",
"358 824 OFFCURVE",
"384 824 CURVE SMOOTH",
"426 824 OFFCURVE",
"443 752 OFFCURVE",
"505 752 CURVE SMOOTH",
"551 752 OFFCURVE",
"590 793 OFFCURVE",
"604 858 CURVE",
"576 858 LINE",
"563 812 OFFCURVE",
"536 786 OFFCURVE",
"510 786 CURVE SMOOTH",
"468 786 OFFCURVE",
"452 858 OFFCURVE",
"390 858 CURVE SMOOTH",
"344 858 OFFCURVE",
"308 817 OFFCURVE",
"293 752 CURVE"
);
}
);
width = 770;
}
);
leftKerningGroup = O;
note = Ohorntilde;
rightKerningGroup = O;
unicode = 1EE0;
},
{
glyphname = Ohungarumlaut;
layers = (
{
anchors = (
{
name = bottom;
position = "{321, 0}";
},
{
name = center;
position = "{376, 350}";
},
{
name = ogonek;
position = "{612, 10}";
},
{
name = top;
position = "{521, 890}";
},
{
name = topleft;
position = "{91, 700}";
},
{
name = topright;
position = "{664, 510}";
}
);
layerId = "A732778C-A9DB-4576-83EA-D63CA8B0AAB2";
paths = (
{
closed = 1;
nodes = (
"59 95 OFFCURVE",
"159 -10 OFFCURVE",
"323 -10 CURVE SMOOTH",
"553 -10 OFFCURVE",
"695 196 OFFCURVE",
"695 433 CURVE SMOOTH",
"695 605 OFFCURVE",
"594 710 OFFCURVE",
"428 710 CURVE SMOOTH",
"197 710 OFFCURVE",
"59 505 OFFCURVE",
"59 266 CURVE SMOOTH"
);
},
{
closed = 1;
nodes = (
"98 482 OFFCURVE",
"221 679 OFFCURVE",
"428 679 CURVE SMOOTH",
"572 679 OFFCURVE",
"655 584 OFFCURVE",
"655 429 CURVE SMOOTH",
"655 215 OFFCURVE",
"530 21 OFFCURVE",
"323 21 CURVE SMOOTH",
"180 21 OFFCURVE",
"98 115 OFFCURVE",
"98 270 CURVE SMOOTH"
);
},
{
closed = 1;
nodes = (
"396 752 LINE",
"491 890 LINE",
"447 890 LINE",
"380 752 LINE"
);
},
{
closed = 1;
nodes = (
"500 752 LINE",
"595 890 LINE",
"551 890 LINE",
"484 752 LINE"
);
}
);
width = 722;
}
);
leftKerningGroup = O;
note = Ohungarumlaut;
rightKerningGroup = O;
unicode = 0150;
},
{
glyphname = Omacron;
layers = (
{
anchors = (
{
name = bottom;
position = "{321, 0}";
},
{
name = center;
position = "{376, 350}";
},
{
name = ogonek;
position = "{612, 10}";
},
{
name = top;
position = "{446, 790}";
},
{
name = topleft;
position = "{91, 700}";
},
{
name = topright;
position = "{664, 510}";
}
);
layerId = "A732778C-A9DB-4576-83EA-D63CA8B0AAB2";
paths = (
{
closed = 1;
nodes = (
"59 95 OFFCURVE",
"159 -10 OFFCURVE",
"323 -10 CURVE SMOOTH",
"553 -10 OFFCURVE",
"695 196 OFFCURVE",
"695 433 CURVE SMOOTH",
"695 605 OFFCURVE",
"594 710 OFFCURVE",
"428 710 CURVE SMOOTH",
"197 710 OFFCURVE",
"59 505 OFFCURVE",
"59 266 CURVE SMOOTH"
);
},
{
closed = 1;
nodes = (
"98 482 OFFCURVE",
"221 679 OFFCURVE",
"428 679 CURVE SMOOTH",
"572 679 OFFCURVE",
"655 584 OFFCURVE",
"655 429 CURVE SMOOTH",
"655 215 OFFCURVE",
"530 21 OFFCURVE",
"323 21 CURVE SMOOTH",
"180 21 OFFCURVE",
"98 115 OFFCURVE",
"98 270 CURVE SMOOTH"
);
},
{
closed = 1;
nodes = (
"593 760 LINE",
"598 790 LINE",
"294 790 LINE",
"289 760 LINE"
);
}
);
width = 722;
}
);
leftKerningGroup = O;
note = Omacron;
rightKerningGroup = O;
unicode = 014C;
},
{
glyphname = Oslash;
lastChange = "2018-03-13 07:06:36 +0000";
layers = (
{
anchors = (
{
name = bottom;
position = "{321, 0}";
},
{
name = center;
position = "{376, 350}";
},
{
name = ogonek;
position = "{612, 10}";
},
{
name = top;
position = "{432, 700}";
},
{
name = topleft;
position = "{91, 700}";
},
{
name = topright;
position = "{664, 510}";
}
);
layerId = "A732778C-A9DB-4576-83EA-D63CA8B0AAB2";
paths = (
{
closed = 1;
nodes = (
"59 169.995 OFFCURVE",
"91 95 OFFCURVE",
"147 47 CURVE",
"73 -60 LINE",
"112 -60 LINE",
"173 29 LINE",
"214 3 OFFCURVE",
"264 -10 OFFCURVE",
"323 -10 CURVE SMOOTH",
"553 -10 OFFCURVE",
"695 196 OFFCURVE",
"695 433 CURVE SMOOTH",
"695 530 OFFCURVE",
"663 606 OFFCURVE",
"605 653 CURVE",
"679 760 LINE",
"640 760 LINE",
"579 672 LINE",
"538 697 OFFCURVE",
"487 710 OFFCURVE",
"428 710 CURVE SMOOTH",
"197 710 OFFCURVE",
"59 505 OFFCURVE",
"59 266 CURVE SMOOTH"
);
},
{
closed = 1;
nodes = (
"98 482 OFFCURVE",
"221 679 OFFCURVE",
"428 679 CURVE SMOOTH",
"480 679 OFFCURVE",
"524 667 OFFCURVE",
"559 643 CURVE",
"167 77 LINE",
"122 119 OFFCURVE",
"98 186 OFFCURVE",
"98 270 CURVE SMOOTH"
);
},
{
closed = 1;
nodes = (
"585 623 LINE",
"630 580 OFFCURVE",
"655 514 OFFCURVE",
"655 429 CURVE SMOOTH",
"655 215 OFFCURVE",
"530 21 OFFCURVE",
"323 21 CURVE SMOOTH",
"271 21 OFFCURVE",
"227 33 OFFCURVE",
"193 56 CURVE"
);
}
);
width = 722;
}
);
leftMetricsKey = O;
note = Oslash;
rightMetricsKey = O;
unicode = 00D8;
},
{
glyphname = Oslashacute;
lastChange = "2018-03-13 07:06:36 +0000";
layers = (
{
anchors = (
{
name = bottom;
position = "{321, 0}";
},
{
name = center;
position = "{376, 350}";
},
{
name = ogonek;
position = "{612, 10}";
},
{
name = top;
position = "{513, 890}";
},
{
name = topleft;
position = "{91, 700}";
},
{
name = topright;
position = "{664, 510}";
}
);
layerId = "A732778C-A9DB-4576-83EA-D63CA8B0AAB2";
paths = (
{
closed = 1;
nodes = (
"59 169.995 OFFCURVE",
"91 95 OFFCURVE",
"147 47 CURVE",
"73 -60 LINE",
"112 -60 LINE",
"173 29 LINE",
"214 3 OFFCURVE",
"264 -10 OFFCURVE",
"323 -10 CURVE SMOOTH",
"553 -10 OFFCURVE",
"695 196 OFFCURVE",
"695 433 CURVE SMOOTH",
"695 530 OFFCURVE",
"663 606 OFFCURVE",
"605 653 CURVE",
"679 760 LINE",
"640 760 LINE",
"579 672 LINE",
"538 697 OFFCURVE",
"487 710 OFFCURVE",
"428 710 CURVE SMOOTH",
"197 710 OFFCURVE",
"59 505 OFFCURVE",
"59 266 CURVE SMOOTH"
);
},
{
closed = 1;
nodes = (
"98 482 OFFCURVE",
"221 679 OFFCURVE",
"428 679 CURVE SMOOTH",
"480 679 OFFCURVE",
"524 667 OFFCURVE",
"559 643 CURVE",
"167 77 LINE",
"122 119 OFFCURVE",
"98 186 OFFCURVE",
"98 270 CURVE SMOOTH"
);
},
{
closed = 1;
nodes = (
"585 623 LINE",
"630 580 OFFCURVE",
"655 514 OFFCURVE",
"655 429 CURVE SMOOTH",
"655 215 OFFCURVE",
"530 21 OFFCURVE",
"323 21 CURVE SMOOTH",
"271 21 OFFCURVE",
"227 33 OFFCURVE",
"193 56 CURVE"
);
},
{
closed = 1;
nodes = (
"420 752 LINE",
"535 890 LINE",
"491 890 LINE",
"404 752 LINE"
);
}
);
width = 722;
}
);
leftKerningGroup = O;
note = Oslashacute;
rightKerningGroup = O;
unicode = 01FE;
},
{
glyphname = Otilde;
layers = (
{
anchors = (
{
name = bottom;
position = "{321, 0}";
},
{
name = center;
position = "{376, 350}";
},
{
name = ogonek;
position = "{612, 10}";
},
{
name = top;
position = "{457, 858}";
},
{
name = topleft;
position = "{91, 700}";
},
{
name = topright;
position = "{664, 510}";
}
);
layerId = "A732778C-A9DB-4576-83EA-D63CA8B0AAB2";
paths = (
{
closed = 1;
nodes = (
"59 95 OFFCURVE",
"159 -10 OFFCURVE",
"323 -10 CURVE SMOOTH",
"553 -10 OFFCURVE",
"695 196 OFFCURVE",
"695 433 CURVE SMOOTH",
"695 605 OFFCURVE",
"594 710 OFFCURVE",
"428 710 CURVE SMOOTH",
"197 710 OFFCURVE",
"59 505 OFFCURVE",
"59 266 CURVE SMOOTH"
);
},
{
closed = 1;
nodes = (
"98 482 OFFCURVE",
"221 679 OFFCURVE",
"428 679 CURVE SMOOTH",
"572 679 OFFCURVE",
"655 584 OFFCURVE",
"655 429 CURVE SMOOTH",
"655 215 OFFCURVE",
"530 21 OFFCURVE",
"323 21 CURVE SMOOTH",
"180 21 OFFCURVE",
"98 115 OFFCURVE",
"98 270 CURVE SMOOTH"
);
},
{
closed = 1;
nodes = (
"321 752 LINE",
"334 798 OFFCURVE",
"358 824 OFFCURVE",
"384 824 CURVE SMOOTH",
"426 824 OFFCURVE",
"443 752 OFFCURVE",
"505 752 CURVE SMOOTH",
"551 752 OFFCURVE",
"590 793 OFFCURVE",
"604 858 CURVE",
"576 858 LINE",
"563 812 OFFCURVE",
"536 786 OFFCURVE",
"510 786 CURVE SMOOTH",
"468 786 OFFCURVE",
"452 858 OFFCURVE",
"390 858 CURVE SMOOTH",
"344 858 OFFCURVE",
"308 817 OFFCURVE",
"293 752 CURVE"
);
}
);
width = 722;
}
);
leftKerningGroup = O;
note = Otilde;
rightKerningGroup = O;
unicode = 00D5;
},
{
glyphname = OE;
layers = (
{
anchors = (
{
name = bottom;
position = "{487, 0}";
},
{
name = top;
position = "{598, 700}";
}
);
layerId = "A732778C-A9DB-4576-83EA-D63CA8B0AAB2";
paths = (
{
closed = 1;
nodes = (
"59 95 OFFCURVE",
"154 -10 OFFCURVE",
"318 -10 CURVE SMOOTH",
"448 -10 OFFCURVE",
"555 54 OFFCURVE",
"622 164 CURVE",
"609 91 OFFCURVE",
"596 50 OFFCURVE",
"572 13 CURVE",
"576 0 LINE",
"943 0 LINE SMOOTH",
"963 0 OFFCURVE",
"975 8 OFFCURVE",
"975 24 CURVE SMOOTH",
"975 26 OFFCURVE",
"975 29 OFFCURVE",
"974 32 CURVE",
"621 32 LINE",
"643 74 OFFCURVE",
"655 136 OFFCURVE",
"664 188 CURVE SMOOTH",
"690 355 LINE",
"951 355 LINE SMOOTH",
"971 355 OFFCURVE",
"984 363 OFFCURVE",
"984 379 CURVE SMOOTH",
"984 381 OFFCURVE",
"983 384 OFFCURVE",
"982 386 CURVE",
"695 386 LINE",
"715 514 LINE SMOOTH",
"721 549 OFFCURVE",
"726 587 OFFCURVE",
"726 622 CURVE SMOOTH",
"726 638 OFFCURVE",
"725 654 OFFCURVE",
"722 668 CURVE",
"1033 668 LINE SMOOTH",
"1053 668 OFFCURVE",
"1065 676 OFFCURVE",
"1065 692 CURVE SMOOTH",
"1065 694 OFFCURVE",
"1065 697 OFFCURVE",
"1064 700 CURVE",
"687 700 LINE",
"679 687 LINE",
"692 646 OFFCURVE",
"689 592 OFFCURVE",
"681 537 CURVE",
"649 646 OFFCURVE",
"562 710 OFFCURVE",
"432 710 CURVE SMOOTH",
"201 710 OFFCURVE",
"59 505 OFFCURVE",
"59 266 CURVE SMOOTH"
);
},
{
closed = 1;
nodes = (
"98 482 OFFCURVE",
"221 679 OFFCURVE",
"428 679 CURVE SMOOTH",
"572 679 OFFCURVE",
"655 584 OFFCURVE",
"655 429 CURVE SMOOTH",
"655 215 OFFCURVE",
"530 21 OFFCURVE",
"323 21 CURVE SMOOTH",
"180 21 OFFCURVE",
"98 115 OFFCURVE",
"98 270 CURVE SMOOTH"
);
}
);
width = 1046;
}
);
leftMetricsKey = O;
note = OE;
rightMetricsKey = E;
unicode = 0152;
},
{
glyphname = P;
lastChange = "2018-03-13 07:06:36 +0000";
layers = (
{
anchors = (
{
name = bottom;
position = "{68, 0}";
},
{
name = top;
position = "{333, 700}";
}
);
layerId = "A732778C-A9DB-4576-83EA-D63CA8B0AAB2";
paths = (
{
closed = 1;
nodes = (
"54 -3 OFFCURVE",
"57 -4 OFFCURVE",
"61 -4 CURVE SMOOTH",
"80 -4 OFFCURVE",
"89 13 OFFCURVE",
"92 31 CURVE SMOOTH",
"137 315 LINE",
"248 315 LINE SMOOTH",
"405 315 OFFCURVE",
"535 403 OFFCURVE",
"535 540 CURVE SMOOTH",
"535 647 OFFCURVE",
"457 710 OFFCURVE",
"304 710 CURVE SMOOTH",
"257 710 OFFCURVE",
"194 704 OFFCURVE",
"141 704 CURVE",
"132 691 LINE",
"139 672 OFFCURVE",
"142 650 OFFCURVE",
"142 626 CURVE SMOOTH",
"142 596 OFFCURVE",
"137 561 OFFCURVE",
"130 514 CURVE SMOOTH",
"49 0 LINE"
);
},
{
closed = 1;
nodes = (
"168 514 LINE SMOOTH",
"174 549 OFFCURVE",
"179 588 OFFCURVE",
"179 623 CURVE SMOOTH",
"179 641 OFFCURVE",
"178 657 OFFCURVE",
"174 672 CURVE",
"213 673 OFFCURVE",
"282 678 OFFCURVE",
"318 678 CURVE SMOOTH",
"430 678 OFFCURVE",
"495 628 OFFCURVE",
"495 537 CURVE SMOOTH",
"495 426 OFFCURVE",
"399 346 OFFCURVE",
"269 346 CURVE SMOOTH",
"142 346 LINE"
);
}
);
width = 523;
}
);
leftKerningGroup = F;
leftMetricsKey = F;
note = P;
rightKerningGroup = P;
unicode = 0050;
},
{
glyphname = Thorn;
lastChange = "2018-03-13 07:06:36 +0000";
layers = (
{
layerId = "A732778C-A9DB-4576-83EA-D63CA8B0AAB2";
paths = (
{
closed = 1;
nodes = (
"48 -3 OFFCURVE",
"51 -4 OFFCURVE",
"55 -4 CURVE SMOOTH",
"72 -4 OFFCURVE",
"82 9 OFFCURVE",
"86 31 CURVE SMOOTH",
"111 192 LINE",
"269 192 LINE SMOOTH",
"410 192 OFFCURVE",
"503 273 OFFCURVE",
"503 407 CURVE SMOOTH",
"503 502 OFFCURVE",
"441 560 OFFCURVE",
"318 560 CURVE SMOOTH",
"169 560 LINE",
"194 716 LINE",
"190 719 OFFCURVE",
"186 720 OFFCURVE",
"182 720 CURVE SMOOTH",
"165 720 OFFCURVE",
"155 707 OFFCURVE",
"151 685 CURVE SMOOTH",
"43 0 LINE"
);
},
{
closed = 1;
nodes = (
"165 529 LINE",
"318 529 LINE SMOOTH",
"415 529 OFFCURVE",
"464 482 OFFCURVE",
"464 404 CURVE SMOOTH",
"464 298 OFFCURVE",
"389 223 OFFCURVE",
"269 223 CURVE SMOOTH",
"116 223 LINE"
);
}
);
width = 513;
}
);
leftMetricsKey = H;
note = Thorn;
rightMetricsKey = P;
unicode = 00DE;
},
{
glyphname = Q;
lastChange = "2018-03-13 07:06:36 +0000";
layers = (
{
anchors = (
{
name = bottom;
position = "{297, -150}";
},
{
name = top;
position = "{432, 700}";
}
);
layerId = "A732778C-A9DB-4576-83EA-D63CA8B0AAB2";
paths = (
{
closed = 1;
nodes = (
"59 162 OFFCURVE",
"95 83 OFFCURVE",
"160 37 CURVE",
"340 -111 OFFCURVE",
"424 -150 OFFCURVE",
"511 -150 CURVE SMOOTH",
"539 -150 OFFCURVE",
"559 -141 OFFCURVE",
"562 -120 CURVE",
"459 -120 OFFCURVE",
"410 -102 OFFCURVE",
"265 -5 CURVE",
"283 -8 OFFCURVE",
"302 -10 OFFCURVE",
"322 -10 CURVE SMOOTH",
"552 -10 OFFCURVE",
"695 196 OFFCURVE",
"695 433 CURVE SMOOTH",
"695 605 OFFCURVE",
"594 710 OFFCURVE",
"428 710 CURVE SMOOTH",
"197 710 OFFCURVE",
"59 505 OFFCURVE",
"59 266 CURVE SMOOTH"
);
},
{
closed = 1;
nodes = (
"98 482 OFFCURVE",
"221 679 OFFCURVE",
"428 679 CURVE SMOOTH",
"572 679 OFFCURVE",
"655 584 OFFCURVE",
"655 429 CURVE SMOOTH",
"655 215 OFFCURVE",
"530 21 OFFCURVE",
"323 21 CURVE SMOOTH",
"180 21 OFFCURVE",
"98 115 OFFCURVE",
"98 270 CURVE SMOOTH"
);
}
);
width = 722;
}
);
leftKerningGroup = O;
leftMetricsKey = O;
note = Q;
rightKerningGroup = O;
rightMetricsKey = O;
unicode = 0051;
},
{
glyphname = R;
lastChange = "2018-03-13 07:06:36 +0000";
layers = (
{
anchors = (
{
name = bottom;
position = "{240, 0}";
},
{
name = top;
position = "{321, 700}";
}
);
layerId = "A732778C-A9DB-4576-83EA-D63CA8B0AAB2";
paths = (
{
closed = 1;
nodes = (
"54 -3 OFFCURVE",
"57 -4 OFFCURVE",
"61 -4 CURVE SMOOTH",
"78 -4 OFFCURVE",
"88 9 OFFCURVE",
"92 31 CURVE SMOOTH",
"139 331 LINE",
"256 331 LINE SMOOTH",
"267 331 OFFCURVE",
"277 331 OFFCURVE",
"287 332 CURVE",
"334 307 OFFCURVE",
"355 261 OFFCURVE",
"386 154 CURVE SMOOTH",
"428 8 OFFCURVE",
"442 -4 OFFCURVE",
"466 -4 CURVE SMOOTH",
"476 -4 OFFCURVE",
"485 -2 OFFCURVE",
"492 1 CURVE",
"493 7 LINE",
"473 20 OFFCURVE",
"457 52 OFFCURVE",
"421 172 CURVE SMOOTH",
"392 269 OFFCURVE",
"371 316 OFFCURVE",
"335 339 CURVE",
"448 362 OFFCURVE",
"528 437 OFFCURVE",
"528 551 CURVE SMOOTH",
"528 648 OFFCURVE",
"447 710 OFFCURVE",
"310 710 CURVE SMOOTH",
"250 710 OFFCURVE",
"197 704 OFFCURVE",
"141 704 CURVE",
"132 691 LINE",
"139 672 OFFCURVE",
"142 651 OFFCURVE",
"142 626 CURVE SMOOTH",
"142 597 OFFCURVE",
"137 561 OFFCURVE",
"130 514 CURVE SMOOTH",
"49 0 LINE"
);
},
{
closed = 1;
nodes = (
"168 514 LINE SMOOTH",
"174 549 OFFCURVE",
"179 588 OFFCURVE",
"179 623 CURVE SMOOTH",
"179 641 OFFCURVE",
"178 657 OFFCURVE",
"174 672 CURVE",
"213 673 OFFCURVE",
"280 678 OFFCURVE",
"321 678 CURVE SMOOTH",
"426 678 OFFCURVE",
"489 629 OFFCURVE",
"489 549 CURVE SMOOTH",
"489 438 OFFCURVE",
"395 362 OFFCURVE",
"271 362 CURVE SMOOTH",
"144 362 LINE"
);
}
);
width = 558;
}
);
leftKerningGroup = F;
leftMetricsKey = F;
note = R;
rightKerningGroup = R;
unicode = 0052;
},
{
glyphname = Racute;
lastChange = "2018-03-13 07:06:36 +0000";
layers = (
{
anchors = (
{
name = bottom;
position = "{240, 0}";
},
{
name = top;
position = "{402, 890}";
}
);
layerId = "A732778C-A9DB-4576-83EA-D63CA8B0AAB2";
paths = (
{
closed = 1;
nodes = (
"54 -3 OFFCURVE",
"57 -4 OFFCURVE",
"61 -4 CURVE SMOOTH",
"78 -4 OFFCURVE",
"88 9 OFFCURVE",
"92 31 CURVE SMOOTH",
"139 331 LINE",
"256 331 LINE SMOOTH",
"267 331 OFFCURVE",
"277 331 OFFCURVE",
"287 332 CURVE",
"334 307 OFFCURVE",
"355 261 OFFCURVE",
"386 154 CURVE SMOOTH",
"428 8 OFFCURVE",
"442 -4 OFFCURVE",
"466 -4 CURVE SMOOTH",
"476 -4 OFFCURVE",
"485 -2 OFFCURVE",
"492 1 CURVE",
"493 7 LINE",
"473 20 OFFCURVE",
"457 52 OFFCURVE",
"421 172 CURVE SMOOTH",
"392 269 OFFCURVE",
"371 316 OFFCURVE",
"335 339 CURVE",
"448 362 OFFCURVE",
"528 437 OFFCURVE",
"528 551 CURVE SMOOTH",
"528 648 OFFCURVE",
"447 710 OFFCURVE",
"310 710 CURVE SMOOTH",
"250 710 OFFCURVE",
"197 704 OFFCURVE",
"141 704 CURVE",
"132 691 LINE",
"139 672 OFFCURVE",
"142 651 OFFCURVE",
"142 626 CURVE SMOOTH",
"142 597 OFFCURVE",
"137 561 OFFCURVE",
"130 514 CURVE SMOOTH",
"49 0 LINE"
);
},
{
closed = 1;
nodes = (
"168 514 LINE SMOOTH",
"174 549 OFFCURVE",
"179 588 OFFCURVE",
"179 623 CURVE SMOOTH",
"179 641 OFFCURVE",
"178 657 OFFCURVE",
"174 672 CURVE",
"213 673 OFFCURVE",
"280 678 OFFCURVE",
"321 678 CURVE SMOOTH",
"426 678 OFFCURVE",
"489 629 OFFCURVE",
"489 549 CURVE SMOOTH",
"489 438 OFFCURVE",
"395 362 OFFCURVE",
"271 362 CURVE SMOOTH",
"144 362 LINE"
);
},
{
closed = 1;
nodes = (
"309 752 LINE",
"424 890 LINE",
"380 890 LINE",
"293 752 LINE"
);
}
);
width = 558;
}
);
note = Racute;
rightKerningGroup = R;
unicode = 0154;
},
{
glyphname = Rcaron;
lastChange = "2018-03-13 07:06:36 +0000";
layers = (
{
anchors = (
{
name = bottom;
position = "{240, 0}";
},
{
name = top;
position = "{351, 890}";
}
);
layerId = "A732778C-A9DB-4576-83EA-D63CA8B0AAB2";
paths = (
{
closed = 1;
nodes = (
"54 -3 OFFCURVE",
"57 -4 OFFCURVE",
"61 -4 CURVE SMOOTH",
"78 -4 OFFCURVE",
"88 9 OFFCURVE",
"92 31 CURVE SMOOTH",
"139 331 LINE",
"256 331 LINE SMOOTH",
"267 331 OFFCURVE",
"277 331 OFFCURVE",
"287 332 CURVE",
"334 307 OFFCURVE",
"355 261 OFFCURVE",
"386 154 CURVE SMOOTH",
"428 8 OFFCURVE",
"442 -4 OFFCURVE",
"466 -4 CURVE SMOOTH",
"476 -4 OFFCURVE",
"485 -2 OFFCURVE",
"492 1 CURVE",
"493 7 LINE",
"473 20 OFFCURVE",
"457 52 OFFCURVE",
"421 172 CURVE SMOOTH",
"392 269 OFFCURVE",
"371 316 OFFCURVE",
"335 339 CURVE",
"448 362 OFFCURVE",
"528 437 OFFCURVE",
"528 551 CURVE SMOOTH",
"528 648 OFFCURVE",
"447 710 OFFCURVE",
"310 710 CURVE SMOOTH",
"250 710 OFFCURVE",
"197 704 OFFCURVE",
"141 704 CURVE",
"132 691 LINE",
"139 672 OFFCURVE",
"142 651 OFFCURVE",
"142 626 CURVE SMOOTH",
"142 597 OFFCURVE",
"137 561 OFFCURVE",
"130 514 CURVE SMOOTH",
"49 0 LINE"
);
},
{
closed = 1;
nodes = (
"168 514 LINE SMOOTH",
"174 549 OFFCURVE",
"179 588 OFFCURVE",
"179 623 CURVE SMOOTH",
"179 641 OFFCURVE",
"178 657 OFFCURVE",
"174 672 CURVE",
"213 673 OFFCURVE",
"280 678 OFFCURVE",
"321 678 CURVE SMOOTH",
"426 678 OFFCURVE",
"489 629 OFFCURVE",
"489 549 CURVE SMOOTH",
"489 438 OFFCURVE",
"395 362 OFFCURVE",
"271 362 CURVE SMOOTH",
"144 362 LINE"
);
},
{
closed = 1;
nodes = (
"305 752 LINE",
"353 752 LINE",
"481 890 LINE",
"465 890 LINE",
"333 792 LINE",
"237 890 LINE",
"221 890 LINE"
);
}
);
width = 558;
}
);
note = Rcaron;
rightKerningGroup = R;
unicode = 0158;
},
{
glyphname = Rcommaaccent;
lastChange = "2018-03-13 07:06:36 +0000";
layers = (
{
anchors = (
{
name = bottom;
position = "{193, -299}";
},
{
name = top;
position = "{321, 700}";
}
);
layerId = "A732778C-A9DB-4576-83EA-D63CA8B0AAB2";
paths = (
{
closed = 1;
nodes = (
"54 -3 OFFCURVE",
"57 -4 OFFCURVE",
"61 -4 CURVE SMOOTH",
"78 -4 OFFCURVE",
"88 9 OFFCURVE",
"92 31 CURVE SMOOTH",
"139 331 LINE",
"256 331 LINE SMOOTH",
"267 331 OFFCURVE",
"277 331 OFFCURVE",
"287 332 CURVE",
"334 307 OFFCURVE",
"355 261 OFFCURVE",
"386 154 CURVE SMOOTH",
"428 8 OFFCURVE",
"442 -4 OFFCURVE",
"466 -4 CURVE SMOOTH",
"476 -4 OFFCURVE",
"485 -2 OFFCURVE",
"492 1 CURVE",
"493 7 LINE",
"473 20 OFFCURVE",
"457 52 OFFCURVE",
"421 172 CURVE SMOOTH",
"392 269 OFFCURVE",
"371 316 OFFCURVE",
"335 339 CURVE",
"448 362 OFFCURVE",
"528 437 OFFCURVE",
"528 551 CURVE SMOOTH",
"528 648 OFFCURVE",
"447 710 OFFCURVE",
"310 710 CURVE SMOOTH",
"250 710 OFFCURVE",
"197 704 OFFCURVE",
"141 704 CURVE",
"132 691 LINE",
"139 672 OFFCURVE",
"142 651 OFFCURVE",
"142 626 CURVE SMOOTH",
"142 597 OFFCURVE",
"137 561 OFFCURVE",
"130 514 CURVE SMOOTH",
"49 0 LINE"
);
},
{
closed = 1;
nodes = (
"168 514 LINE SMOOTH",
"174 549 OFFCURVE",
"179 588 OFFCURVE",
"179 623 CURVE SMOOTH",
"179 641 OFFCURVE",
"178 657 OFFCURVE",
"174 672 CURVE",
"213 673 OFFCURVE",
"280 678 OFFCURVE",
"321 678 CURVE SMOOTH",
"426 678 OFFCURVE",
"489 629 OFFCURVE",
"489 549 CURVE SMOOTH",
"489 438 OFFCURVE",
"395 362 OFFCURVE",
"271 362 CURVE SMOOTH",
"144 362 LINE"
);
},
{
closed = 1;
nodes = (
"184 -227 LINE",
"222 -204 OFFCURVE",
"266 -148 OFFCURVE",
"266 -101 CURVE SMOOTH",
"266 -73 OFFCURVE",
"247 -60 OFFCURVE",
"226 -60 CURVE SMOOTH",
"201 -60 OFFCURVE",
"184 -80 OFFCURVE",
"184 -105 CURVE SMOOTH",
"184 -125 OFFCURVE",
"197 -140 OFFCURVE",
"218 -140 CURVE",
"217 -163 OFFCURVE",
"193 -190 OFFCURVE",
"172 -205 CURVE"
);
}
);
width = 558;
}
);
note = Rcommaaccent;
rightKerningGroup = R;
unicode = 0156;
},
{
glyphname = Rdotbelow;
lastChange = "2018-03-13 07:06:36 +0000";
layers = (
{
anchors = (
{
name = bottom;
position = "{218, -140}";
},
{
name = top;
position = "{321, 700}";
}
);
layerId = "A732778C-A9DB-4576-83EA-D63CA8B0AAB2";
paths = (
{
closed = 1;
nodes = (
"54 -3 OFFCURVE",
"57 -4 OFFCURVE",
"61 -4 CURVE SMOOTH",
"78 -4 OFFCURVE",
"88 9 OFFCURVE",
"92 31 CURVE SMOOTH",
"139 331 LINE",
"256 331 LINE SMOOTH",
"267 331 OFFCURVE",
"277 331 OFFCURVE",
"287 332 CURVE",
"334 307 OFFCURVE",
"355 261 OFFCURVE",
"386 154 CURVE SMOOTH",
"428 8 OFFCURVE",
"442 -4 OFFCURVE",
"466 -4 CURVE SMOOTH",
"476 -4 OFFCURVE",
"485 -2 OFFCURVE",
"492 1 CURVE",
"493 7 LINE",
"473 20 OFFCURVE",
"457 52 OFFCURVE",
"421 172 CURVE SMOOTH",
"392 269 OFFCURVE",
"371 316 OFFCURVE",
"335 339 CURVE",
"448 362 OFFCURVE",
"528 437 OFFCURVE",
"528 551 CURVE SMOOTH",
"528 648 OFFCURVE",
"447 710 OFFCURVE",
"310 710 CURVE SMOOTH",
"250 710 OFFCURVE",
"197 704 OFFCURVE",
"141 704 CURVE",
"132 691 LINE",
"139 672 OFFCURVE",
"142 651 OFFCURVE",
"142 626 CURVE SMOOTH",
"142 597 OFFCURVE",
"137 561 OFFCURVE",
"130 514 CURVE SMOOTH",
"49 0 LINE"
);
},
{
closed = 1;
nodes = (
"168 514 LINE SMOOTH",
"174 549 OFFCURVE",
"179 588 OFFCURVE",
"179 623 CURVE SMOOTH",
"179 641 OFFCURVE",
"178 657 OFFCURVE",
"174 672 CURVE",
"213 673 OFFCURVE",
"280 678 OFFCURVE",
"321 678 CURVE SMOOTH",
"426 678 OFFCURVE",
"489 629 OFFCURVE",
"489 549 CURVE SMOOTH",
"489 438 OFFCURVE",
"395 362 OFFCURVE",
"271 362 CURVE SMOOTH",
"144 362 LINE"
);
},
{
closed = 1;
nodes = (
"184 -125 OFFCURVE",
"198 -138 OFFCURVE",
"218 -138 CURVE SMOOTH",
"245 -138 OFFCURVE",
"264 -119 OFFCURVE",
"264 -92 CURVE SMOOTH",
"264 -73 OFFCURVE",
"251 -60 OFFCURVE",
"230 -60 CURVE SMOOTH",
"203 -60 OFFCURVE",
"184 -79 OFFCURVE",
"184 -105 CURVE SMOOTH"
);
}
);
width = 558;
}
);
note = Rdotbelow;
rightKerningGroup = R;
unicode = 1E5A;
},
{
glyphname = Rdotbelowmacron;
lastChange = "2018-03-13 07:06:36 +0000";
layers = (
{
anchors = (
{
name = bottom;
position = "{218, -140}";
},
{
name = top;
position = "{335, 790}";
}
);
layerId = "A732778C-A9DB-4576-83EA-D63CA8B0AAB2";
paths = (
{
closed = 1;
nodes = (
"54 -3 OFFCURVE",
"57 -4 OFFCURVE",
"61 -4 CURVE SMOOTH",
"78 -4 OFFCURVE",
"88 9 OFFCURVE",
"92 31 CURVE SMOOTH",
"139 331 LINE",
"256 331 LINE SMOOTH",
"267 331 OFFCURVE",
"277 331 OFFCURVE",
"287 332 CURVE",
"334 307 OFFCURVE",
"355 261 OFFCURVE",
"386 154 CURVE SMOOTH",
"428 8 OFFCURVE",
"442 -4 OFFCURVE",
"466 -4 CURVE SMOOTH",
"476 -4 OFFCURVE",
"485 -2 OFFCURVE",
"492 1 CURVE",
"493 7 LINE",
"473 20 OFFCURVE",
"457 52 OFFCURVE",
"421 172 CURVE SMOOTH",
"392 269 OFFCURVE",
"371 316 OFFCURVE",
"335 339 CURVE",
"448 362 OFFCURVE",
"528 437 OFFCURVE",
"528 551 CURVE SMOOTH",
"528 648 OFFCURVE",
"447 710 OFFCURVE",
"310 710 CURVE SMOOTH",
"250 710 OFFCURVE",
"197 704 OFFCURVE",
"141 704 CURVE",
"132 691 LINE",
"139 672 OFFCURVE",
"142 651 OFFCURVE",
"142 626 CURVE SMOOTH",
"142 597 OFFCURVE",
"137 561 OFFCURVE",
"130 514 CURVE SMOOTH",
"49 0 LINE"
);
},
{
closed = 1;
nodes = (
"168 514 LINE SMOOTH",
"174 549 OFFCURVE",
"179 588 OFFCURVE",
"179 623 CURVE SMOOTH",
"179 641 OFFCURVE",
"178 657 OFFCURVE",
"174 672 CURVE",
"213 673 OFFCURVE",
"280 678 OFFCURVE",
"321 678 CURVE SMOOTH",
"426 678 OFFCURVE",
"489 629 OFFCURVE",
"489 549 CURVE SMOOTH",
"489 438 OFFCURVE",
"395 362 OFFCURVE",
"271 362 CURVE SMOOTH",
"144 362 LINE"
);
},
{
closed = 1;
nodes = (
"482 760 LINE",
"487 790 LINE",
"183 790 LINE",
"178 760 LINE"
);
},
{
closed = 1;
nodes = (
"184 -125 OFFCURVE",
"198 -138 OFFCURVE",
"218 -138 CURVE SMOOTH",
"245 -138 OFFCURVE",
"264 -119 OFFCURVE",
"264 -92 CURVE SMOOTH",
"264 -73 OFFCURVE",
"251 -60 OFFCURVE",
"230 -60 CURVE SMOOTH",
"203 -60 OFFCURVE",
"184 -79 OFFCURVE",
"184 -105 CURVE SMOOTH"
);
}
);
width = 558;
}
);
note = Rdotbelowmacron;
rightKerningGroup = R;
unicode = 1E5C;
},
{
glyphname = Rlinebelow;
lastChange = "2018-03-13 07:06:36 +0000";
layers = (
{
anchors = (
{
name = bottom;
position = "{224, -102}";
},
{
name = top;
position = "{321, 700}";
}
);
layerId = "A732778C-A9DB-4576-83EA-D63CA8B0AAB2";
paths = (
{
closed = 1;
nodes = (
"54 -3 OFFCURVE",
"57 -4 OFFCURVE",
"61 -4 CURVE SMOOTH",
"78 -4 OFFCURVE",
"88 9 OFFCURVE",
"92 31 CURVE SMOOTH",
"139 331 LINE",
"256 331 LINE SMOOTH",
"267 331 OFFCURVE",
"277 331 OFFCURVE",
"287 332 CURVE",
"334 307 OFFCURVE",
"355 261 OFFCURVE",
"386 154 CURVE SMOOTH",
"428 8 OFFCURVE",
"442 -4 OFFCURVE",
"466 -4 CURVE SMOOTH",
"476 -4 OFFCURVE",
"485 -2 OFFCURVE",
"492 1 CURVE",
"493 7 LINE",
"473 20 OFFCURVE",
"457 52 OFFCURVE",
"421 172 CURVE SMOOTH",
"392 269 OFFCURVE",
"371 316 OFFCURVE",
"335 339 CURVE",
"448 362 OFFCURVE",
"528 437 OFFCURVE",
"528 551 CURVE SMOOTH",
"528 648 OFFCURVE",
"447 710 OFFCURVE",
"310 710 CURVE SMOOTH",
"250 710 OFFCURVE",
"197 704 OFFCURVE",
"141 704 CURVE",
"132 691 LINE",
"139 672 OFFCURVE",
"142 651 OFFCURVE",
"142 626 CURVE SMOOTH",
"142 597 OFFCURVE",
"137 561 OFFCURVE",
"130 514 CURVE SMOOTH",
"49 0 LINE"
);
},
{
closed = 1;
nodes = (
"376 -102 LINE",
"381 -72 LINE",
"77 -72 LINE",
"72 -102 LINE"
);
},
{
closed = 1;
nodes = (
"168 514 LINE SMOOTH",
"174 549 OFFCURVE",
"179 588 OFFCURVE",
"179 623 CURVE SMOOTH",
"179 641 OFFCURVE",
"178 657 OFFCURVE",
"174 672 CURVE",
"213 673 OFFCURVE",
"280 678 OFFCURVE",
"321 678 CURVE SMOOTH",
"426 678 OFFCURVE",
"489 629 OFFCURVE",
"489 549 CURVE SMOOTH",
"489 438 OFFCURVE",
"395 362 OFFCURVE",
"271 362 CURVE SMOOTH",
"144 362 LINE"
);
}
);
width = 558;
}
);
note = Rlinebelow;
rightKerningGroup = R;
unicode = 1E5E;
},
{
glyphname = S;
layers = (
{
anchors = (
{
name = bottom;
position = "{234, 0}";
},
{
name = top;
position = "{339, 700}";
}
);
layerId = "A732778C-A9DB-4576-83EA-D63CA8B0AAB2";
paths = (
{
closed = 1;
nodes = (
"15 59 OFFCURVE",
"89 -10 OFFCURVE",
"230 -10 CURVE SMOOTH",
"379 -10 OFFCURVE",
"484 69 OFFCURVE",
"484 209 CURVE SMOOTH",
"484 288 OFFCURVE",
"433 343 OFFCURVE",
"304 392 CURVE SMOOTH",
"194 434 OFFCURVE",
"149 472 OFFCURVE",
"149 530 CURVE SMOOTH",
"149 621 OFFCURVE",
"225 679 OFFCURVE",
"331 679 CURVE SMOOTH",
"410 679 OFFCURVE",
"472 650 OFFCURVE",
"511 600 CURVE",
"524 600 OFFCURVE",
"534 606 OFFCURVE",
"534 619 CURVE SMOOTH",
"534 641 OFFCURVE",
"459 710 OFFCURVE",
"330 710 CURVE SMOOTH",
"201 710 OFFCURVE",
"110 645 OFFCURVE",
"110 524 CURVE SMOOTH",
"110 455 OFFCURVE",
"157 404 OFFCURVE",
"273 361 CURVE SMOOTH",
"396 317 OFFCURVE",
"444 273 OFFCURVE",
"444 202 CURVE SMOOTH",
"444 88 OFFCURVE",
"357 21 OFFCURVE",
"228 21 CURVE SMOOTH",
"139 21 OFFCURVE",
"77 50 OFFCURVE",
"38 100 CURVE",
"25 100 OFFCURVE",
"15 94 OFFCURVE",
"15 81 CURVE SMOOTH"
);
}
);
width = 536;
}
);
leftKerningGroup = S;
note = S;
rightKerningGroup = S;
unicode = 0053;
},
{
glyphname = Sacute;
layers = (
{
anchors = (
{
name = bottom;
position = "{234, 0}";
},
{
name = top;
position = "{420, 890}";
}
);
layerId = "A732778C-A9DB-4576-83EA-D63CA8B0AAB2";
paths = (
{
closed = 1;
nodes = (
"15 59 OFFCURVE",
"89 -10 OFFCURVE",
"230 -10 CURVE SMOOTH",
"379 -10 OFFCURVE",
"484 69 OFFCURVE",
"484 209 CURVE SMOOTH",
"484 288 OFFCURVE",
"433 343 OFFCURVE",
"304 392 CURVE SMOOTH",
"194 434 OFFCURVE",
"149 472 OFFCURVE",
"149 530 CURVE SMOOTH",
"149 621 OFFCURVE",
"225 679 OFFCURVE",
"331 679 CURVE SMOOTH",
"410 679 OFFCURVE",
"472 650 OFFCURVE",
"511 600 CURVE",
"524 600 OFFCURVE",
"534 606 OFFCURVE",
"534 619 CURVE SMOOTH",
"534 641 OFFCURVE",
"459 710 OFFCURVE",
"330 710 CURVE SMOOTH",
"201 710 OFFCURVE",
"110 645 OFFCURVE",
"110 524 CURVE SMOOTH",
"110 455 OFFCURVE",
"157 404 OFFCURVE",
"273 361 CURVE SMOOTH",
"396 317 OFFCURVE",
"444 273 OFFCURVE",
"444 202 CURVE SMOOTH",
"444 88 OFFCURVE",
"357 21 OFFCURVE",
"228 21 CURVE SMOOTH",
"139 21 OFFCURVE",
"77 50 OFFCURVE",
"38 100 CURVE",
"25 100 OFFCURVE",
"15 94 OFFCURVE",
"15 81 CURVE SMOOTH"
);
},
{
closed = 1;
nodes = (
"327 752 LINE",
"442 890 LINE",
"398 890 LINE",
"311 752 LINE"
);
}
);
width = 536;
}
);
leftKerningGroup = S;
note = Sacute;
rightKerningGroup = S;
unicode = 015A;
},
{
glyphname = Scaron;
layers = (
{
anchors = (
{
name = bottom;
position = "{234, 0}";
},
{
name = top;
position = "{369, 890}";
}
);
layerId = "A732778C-A9DB-4576-83EA-D63CA8B0AAB2";
paths = (
{
closed = 1;
nodes = (
"15 59 OFFCURVE",
"89 -10 OFFCURVE",
"230 -10 CURVE SMOOTH",
"379 -10 OFFCURVE",
"484 69 OFFCURVE",
"484 209 CURVE SMOOTH",
"484 288 OFFCURVE",
"433 343 OFFCURVE",
"304 392 CURVE SMOOTH",
"194 434 OFFCURVE",
"149 472 OFFCURVE",
"149 530 CURVE SMOOTH",
"149 621 OFFCURVE",
"225 679 OFFCURVE",
"331 679 CURVE SMOOTH",
"410 679 OFFCURVE",
"472 650 OFFCURVE",
"511 600 CURVE",
"524 600 OFFCURVE",
"534 606 OFFCURVE",
"534 619 CURVE SMOOTH",
"534 641 OFFCURVE",
"459 710 OFFCURVE",
"330 710 CURVE SMOOTH",
"201 710 OFFCURVE",
"110 645 OFFCURVE",
"110 524 CURVE SMOOTH",
"110 455 OFFCURVE",
"157 404 OFFCURVE",
"273 361 CURVE SMOOTH",
"396 317 OFFCURVE",
"444 273 OFFCURVE",
"444 202 CURVE SMOOTH",
"444 88 OFFCURVE",
"357 21 OFFCURVE",
"228 21 CURVE SMOOTH",
"139 21 OFFCURVE",
"77 50 OFFCURVE",
"38 100 CURVE",
"25 100 OFFCURVE",
"15 94 OFFCURVE",
"15 81 CURVE SMOOTH"
);
},
{
closed = 1;
nodes = (
"323 752 LINE",
"371 752 LINE",
"499 890 LINE",
"483 890 LINE",
"351 792 LINE",
"255 890 LINE",
"239 890 LINE"
);
}
);
width = 536;
}
);
leftKerningGroup = S;
note = Scaron;
rightKerningGroup = S;
unicode = 0160;
},
{
glyphname = Scedilla;
lastChange = "2018-03-13 07:06:36 +0000";
layers = (
{
anchors = (
{
name = bottom;
position = "{179, -175}";
},
{
name = top;
position = "{339, 700}";
}
);
layerId = "A732778C-A9DB-4576-83EA-D63CA8B0AAB2";
paths = (
{
closed = 1;
nodes = (
"15 60 OFFCURVE",
"81 -2 OFFCURVE",
"207 -9 CURVE",
"144 -84 LINE",
"148 -92 LINE",
"161 -88 OFFCURVE",
"173 -86 OFFCURVE",
"187 -86 CURVE SMOOTH",
"218 -86 OFFCURVE",
"234 -95 OFFCURVE",
"234 -112 CURVE SMOOTH",
"234 -133 OFFCURVE",
"213 -145 OFFCURVE",
"178 -145 CURVE SMOOTH",
"155 -145 OFFCURVE",
"135 -140 OFFCURVE",
"115 -131 CURVE",
"111 -159 LINE",
"132 -170 OFFCURVE",
"154 -175 OFFCURVE",
"179 -175 CURVE SMOOTH",
"238 -175 OFFCURVE",
"273 -148 OFFCURVE",
"273 -106 CURVE SMOOTH",
"273 -74 OFFCURVE",
"245 -56 OFFCURVE",
"198 -56 CURVE",
"235 -10 LINE",
"381 -8 OFFCURVE",
"484 71 OFFCURVE",
"484 209 CURVE SMOOTH",
"484 288 OFFCURVE",
"433 343 OFFCURVE",
"304 392 CURVE SMOOTH",
"194 434 OFFCURVE",
"149 472 OFFCURVE",
"149 530 CURVE SMOOTH",
"149 621 OFFCURVE",
"225 679 OFFCURVE",
"331 679 CURVE SMOOTH",
"410 679 OFFCURVE",
"472 650 OFFCURVE",
"511 600 CURVE",
"524 600 OFFCURVE",
"534 606 OFFCURVE",
"534 619 CURVE SMOOTH",
"534 641 OFFCURVE",
"459 710 OFFCURVE",
"330 710 CURVE SMOOTH",
"201 710 OFFCURVE",
"110 645 OFFCURVE",
"110 524 CURVE SMOOTH",
"110 455 OFFCURVE",
"157 404 OFFCURVE",
"273 361 CURVE SMOOTH",
"396 317 OFFCURVE",
"444 273 OFFCURVE",
"444 202 CURVE SMOOTH",
"444 88 OFFCURVE",
"357 21 OFFCURVE",
"228 21 CURVE SMOOTH",
"139 21 OFFCURVE",
"77 50 OFFCURVE",
"38 100 CURVE",
"25 100 OFFCURVE",
"15 94 OFFCURVE",
"15 81 CURVE SMOOTH"
);
}
);
width = 536;
}
);
leftKerningGroup = S;
note = Scedilla;
rightKerningGroup = S;
unicode = 015E;
},
{
glyphname = Scircumflex;
layers = (
{
anchors = (
{
name = bottom;
position = "{234, 0}";
},
{
name = top;
position = "{369, 890}";
}
);
layerId = "A732778C-A9DB-4576-83EA-D63CA8B0AAB2";
paths = (
{
closed = 1;
nodes = (
"15 59 OFFCURVE",
"89 -10 OFFCURVE",
"230 -10 CURVE SMOOTH",
"379 -10 OFFCURVE",
"484 69 OFFCURVE",
"484 209 CURVE SMOOTH",
"484 288 OFFCURVE",
"433 343 OFFCURVE",
"304 392 CURVE SMOOTH",
"194 434 OFFCURVE",
"149 472 OFFCURVE",
"149 530 CURVE SMOOTH",
"149 621 OFFCURVE",
"225 679 OFFCURVE",
"331 679 CURVE SMOOTH",
"410 679 OFFCURVE",
"472 650 OFFCURVE",
"511 600 CURVE",
"524 600 OFFCURVE",
"534 606 OFFCURVE",
"534 619 CURVE SMOOTH",
"534 641 OFFCURVE",
"459 710 OFFCURVE",
"330 710 CURVE SMOOTH",
"201 710 OFFCURVE",
"110 645 OFFCURVE",
"110 524 CURVE SMOOTH",
"110 455 OFFCURVE",
"157 404 OFFCURVE",
"273 361 CURVE SMOOTH",
"396 317 OFFCURVE",
"444 273 OFFCURVE",
"444 202 CURVE SMOOTH",
"444 88 OFFCURVE",
"357 21 OFFCURVE",
"228 21 CURVE SMOOTH",
"139 21 OFFCURVE",
"77 50 OFFCURVE",
"38 100 CURVE",
"25 100 OFFCURVE",
"15 94 OFFCURVE",
"15 81 CURVE SMOOTH"
);
},
{
closed = 1;
nodes = (
"233 752 LINE",
"365 850 LINE",
"461 752 LINE",
"477 752 LINE",
"393 890 LINE",
"345 890 LINE",
"217 752 LINE"
);
}
);
width = 536;
}
);
leftKerningGroup = S;
note = Scircumflex;
rightKerningGroup = S;
unicode = 015C;
},
{
glyphname = Scommaaccent;
layers = (
{
anchors = (
{
name = bottom;
position = "{187, -299}";
},
{
name = top;
position = "{339, 700}";
}
);
layerId = "A732778C-A9DB-4576-83EA-D63CA8B0AAB2";
paths = (
{
closed = 1;
nodes = (
"15 59 OFFCURVE",
"89 -10 OFFCURVE",
"230 -10 CURVE SMOOTH",
"379 -10 OFFCURVE",
"484 69 OFFCURVE",
"484 209 CURVE SMOOTH",
"484 288 OFFCURVE",
"433 343 OFFCURVE",
"304 392 CURVE SMOOTH",
"194 434 OFFCURVE",
"149 472 OFFCURVE",
"149 530 CURVE SMOOTH",
"149 621 OFFCURVE",
"225 679 OFFCURVE",
"331 679 CURVE SMOOTH",
"410 679 OFFCURVE",
"472 650 OFFCURVE",
"511 600 CURVE",
"524 600 OFFCURVE",
"534 606 OFFCURVE",
"534 619 CURVE SMOOTH",
"534 641 OFFCURVE",
"459 710 OFFCURVE",
"330 710 CURVE SMOOTH",
"201 710 OFFCURVE",
"110 645 OFFCURVE",
"110 524 CURVE SMOOTH",
"110 455 OFFCURVE",
"157 404 OFFCURVE",
"273 361 CURVE SMOOTH",
"396 317 OFFCURVE",
"444 273 OFFCURVE",
"444 202 CURVE SMOOTH",
"444 88 OFFCURVE",
"357 21 OFFCURVE",
"228 21 CURVE SMOOTH",
"139 21 OFFCURVE",
"77 50 OFFCURVE",
"38 100 CURVE",
"25 100 OFFCURVE",
"15 94 OFFCURVE",
"15 81 CURVE SMOOTH"
);
},
{
closed = 1;
nodes = (
"178 -227 LINE",
"216 -204 OFFCURVE",
"260 -148 OFFCURVE",
"260 -101 CURVE SMOOTH",
"260 -73 OFFCURVE",
"241 -60 OFFCURVE",
"220 -60 CURVE SMOOTH",
"195 -60 OFFCURVE",
"178 -80 OFFCURVE",
"178 -105 CURVE SMOOTH",
"178 -125 OFFCURVE",
"191 -140 OFFCURVE",
"212 -140 CURVE",
"211 -163 OFFCURVE",
"187 -190 OFFCURVE",
"166 -205 CURVE"
);
}
);
width = 536;
}
);
leftKerningGroup = S;
note = Scommaaccent;
rightKerningGroup = S;
unicode = 0218;
},
{
glyphname = Sdotaccent;
layers = (
{
anchors = (
{
name = bottom;
position = "{234, 0}";
},
{
name = top;
position = "{362, 843}";
}
);
layerId = "A732778C-A9DB-4576-83EA-D63CA8B0AAB2";
paths = (
{
closed = 1;
nodes = (
"15 59 OFFCURVE",
"89 -10 OFFCURVE",
"230 -10 CURVE SMOOTH",
"379 -10 OFFCURVE",
"484 69 OFFCURVE",
"484 209 CURVE SMOOTH",
"484 288 OFFCURVE",
"433 343 OFFCURVE",
"304 392 CURVE SMOOTH",
"194 434 OFFCURVE",
"149 472 OFFCURVE",
"149 530 CURVE SMOOTH",
"149 621 OFFCURVE",
"225 679 OFFCURVE",
"331 679 CURVE SMOOTH",
"410 679 OFFCURVE",
"472 650 OFFCURVE",
"511 600 CURVE",
"524 600 OFFCURVE",
"534 606 OFFCURVE",
"534 619 CURVE SMOOTH",
"534 641 OFFCURVE",
"459 710 OFFCURVE",
"330 710 CURVE SMOOTH",
"201 710 OFFCURVE",
"110 645 OFFCURVE",
"110 524 CURVE SMOOTH",
"110 455 OFFCURVE",
"157 404 OFFCURVE",
"273 361 CURVE SMOOTH",
"396 317 OFFCURVE",
"444 273 OFFCURVE",
"444 202 CURVE SMOOTH",
"444 88 OFFCURVE",
"357 21 OFFCURVE",
"228 21 CURVE SMOOTH",
"139 21 OFFCURVE",
"77 50 OFFCURVE",
"38 100 CURVE",
"25 100 OFFCURVE",
"15 94 OFFCURVE",
"15 81 CURVE SMOOTH"
);
},
{
closed = 1;
nodes = (
"312 769 OFFCURVE",
"326 755 OFFCURVE",
"348 755 CURVE SMOOTH",
"378 755 OFFCURVE",
"398 775 OFFCURVE",
"398 805 CURVE SMOOTH",
"398 825 OFFCURVE",
"384 839 OFFCURVE",
"362 839 CURVE SMOOTH",
"332 839 OFFCURVE",
"312 819 OFFCURVE",
"312 789 CURVE SMOOTH"
);
}
);
width = 536;
}
);
leftKerningGroup = S;
note = Sdotaccent;
rightKerningGroup = S;
unicode = 1E60;
},
{
glyphname = Sdotbelow;
layers = (
{
anchors = (
{
name = bottom;
position = "{212, -140}";
},
{
name = top;
position = "{339, 700}";
}
);
layerId = "A732778C-A9DB-4576-83EA-D63CA8B0AAB2";
paths = (
{
closed = 1;
nodes = (
"15 59 OFFCURVE",
"89 -10 OFFCURVE",
"230 -10 CURVE SMOOTH",
"379 -10 OFFCURVE",
"484 69 OFFCURVE",
"484 209 CURVE SMOOTH",
"484 288 OFFCURVE",
"433 343 OFFCURVE",
"304 392 CURVE SMOOTH",
"194 434 OFFCURVE",
"149 472 OFFCURVE",
"149 530 CURVE SMOOTH",
"149 621 OFFCURVE",
"225 679 OFFCURVE",
"331 679 CURVE SMOOTH",
"410 679 OFFCURVE",
"472 650 OFFCURVE",
"511 600 CURVE",
"524 600 OFFCURVE",
"534 606 OFFCURVE",
"534 619 CURVE SMOOTH",
"534 641 OFFCURVE",
"459 710 OFFCURVE",
"330 710 CURVE SMOOTH",
"201 710 OFFCURVE",
"110 645 OFFCURVE",
"110 524 CURVE SMOOTH",
"110 455 OFFCURVE",
"157 404 OFFCURVE",
"273 361 CURVE SMOOTH",
"396 317 OFFCURVE",
"444 273 OFFCURVE",
"444 202 CURVE SMOOTH",
"444 88 OFFCURVE",
"357 21 OFFCURVE",
"228 21 CURVE SMOOTH",
"139 21 OFFCURVE",
"77 50 OFFCURVE",
"38 100 CURVE",
"25 100 OFFCURVE",
"15 94 OFFCURVE",
"15 81 CURVE SMOOTH"
);
},
{
closed = 1;
nodes = (
"178 -125 OFFCURVE",
"192 -138 OFFCURVE",
"212 -138 CURVE SMOOTH",
"239 -138 OFFCURVE",
"258 -119 OFFCURVE",
"258 -92 CURVE SMOOTH",
"258 -73 OFFCURVE",
"245 -60 OFFCURVE",
"224 -60 CURVE SMOOTH",
"197 -60 OFFCURVE",
"178 -79 OFFCURVE",
"178 -105 CURVE SMOOTH"
);
}
);
width = 536;
}
);
leftKerningGroup = S;
note = Sdotbelow;
rightKerningGroup = S;
unicode = 1E62;
},
{
glyphname = Germandbls;
layers = (
{
layerId = "A732778C-A9DB-4576-83EA-D63CA8B0AAB2";
paths = (
{
closed = 1;
nodes = (
"43 -3 OFFCURVE",
"46 -4 OFFCURVE",
"50 -4 CURVE SMOOTH",
"67 -4 OFFCURVE",
"77 9 OFFCURVE",
"81 31 CURVE SMOOTH",
"163 547 LINE SMOOTH",
"175 628 OFFCURVE",
"242 679 OFFCURVE",
"334 679 CURVE SMOOTH",
"420 679 OFFCURVE",
"466 635 OFFCURVE",
"470 545 CURVE",
"245 373 LINE",
"242 353 LINE",
"304 353 LINE SMOOTH",
"405 353 OFFCURVE",
"466 302 OFFCURVE",
"466 218 CURVE SMOOTH",
"466 109 OFFCURVE",
"388 21 OFFCURVE",
"272 21 CURVE SMOOTH",
"218 21 OFFCURVE",
"194 40 OFFCURVE",
"176 58 CURVE",
"163 58 OFFCURVE",
"155 50 OFFCURVE",
"155 36 CURVE SMOOTH",
"155 15 OFFCURVE",
"196 -10 OFFCURVE",
"267 -10 CURVE SMOOTH",
"405 -10 OFFCURVE",
"505 87 OFFCURVE",
"505 224 CURVE SMOOTH",
"505 325 OFFCURVE",
"433 385 OFFCURVE",
"312 385 CURVE",
"513 537 LINE",
"506 654 OFFCURVE",
"448 710 OFFCURVE",
"338 710 CURVE SMOOTH",
"223 710 OFFCURVE",
"140 647 OFFCURVE",
"125 547 CURVE SMOOTH",
"38 0 LINE"
);
}
);
width = 558;
}
);
note = uni1E9E;
rightMetricsKey = B;
unicode = 1E9E;
},
{
glyphname = Schwa;
layers = (
{
layerId = "A732778C-A9DB-4576-83EA-D63CA8B0AAB2";
paths = (
{
closed = 1;
nodes = (
"52 84 OFFCURVE",
"135 -10 OFFCURVE",
"288 -10 CURVE SMOOTH",
"504 -10 OFFCURVE",
"632 206 OFFCURVE",
"632 435 CURVE SMOOTH",
"632 606 OFFCURVE",
"533 710 OFFCURVE",
"368 710 CURVE SMOOTH",
"231 710 OFFCURVE",
"129 638 OFFCURVE",
"126 618 CURVE SMOOTH",
"124 606 OFFCURVE",
"129 600 OFFCURVE",
"145 600 CURVE",
"205 650 OFFCURVE",
"285 679 OFFCURVE",
"366 679 CURVE SMOOTH",
"512 679 OFFCURVE",
"593 585 OFFCURVE",
"593 433 CURVE SMOOTH",
"593 411 OFFCURVE",
"592 387 OFFCURVE",
"588 362 CURVE",
"69 362 LINE",
"58 335 OFFCURVE",
"52 278 OFFCURVE",
"52 239 CURVE SMOOTH"
);
},
{
closed = 1;
nodes = (
"93 269 OFFCURVE",
"95 297 OFFCURVE",
"99 328 CURVE",
"584 334 LINE",
"551 143 OFFCURVE",
"435 21 OFFCURVE",
"288 21 CURVE SMOOTH",
"155 21 OFFCURVE",
"93 99 OFFCURVE",
"93 243 CURVE SMOOTH"
);
}
);
width = 660;
}
);
note = uni018F;
unicode = 018F;
},
{
glyphname = T;
lastChange = "2018-03-13 07:06:36 +0000";
layers = (
{
anchors = (
{
name = bottom;
position = "{212, 0}";
},
{
name = center;
position = "{267, 350}";
},
{
name = top;
position = "{323, 700}";
}
);
layerId = "A732778C-A9DB-4576-83EA-D63CA8B0AAB2";
paths = (
{
closed = 1;
nodes = (
"93 676 OFFCURVE",
"93 672 OFFCURVE",
"95 668 CURVE",
"298 668 LINE",
"193 0 LINE",
"198 -3 OFFCURVE",
"201 -4 OFFCURVE",
"205 -4 CURVE SMOOTH",
"222 -4 OFFCURVE",
"232 9 OFFCURVE",
"236 31 CURVE SMOOTH",
"336 668 LINE",
"515 668 LINE SMOOTH",
"533 668 OFFCURVE",
"545 675 OFFCURVE",
"547 688 CURVE",
"548 692 OFFCURVE",
"547 696 OFFCURVE",
"546 700 CURVE",
"126 700 LINE SMOOTH",
"108 700 OFFCURVE",
"96 693 OFFCURVE",
"94 680 CURVE"
);
}
);
width = 504;
}
);
leftKerningGroup = T;
note = T;
rightKerningGroup = T;
unicode = 0054;
},
